<svg width="120" height="120" viewBox="0 0 120 120" fill="none" xmlns="http://www.w3.org/2000/svg">
<circle cx="60" cy="60" r="60" fill="url(#paint0_linear_77_1223)"/>
<g clip-path="url(#clip0_77_1223)">
<path d="M34.9089 36.8344C34.9854 42.3797 34.9526 42.2047 35.8604 42.2594L36.3526 42.2922L36.3964 44.2281C36.4292 46 36.4511 46.1969 36.6589 46.4813L36.8886 46.8094L36.4729 47.6297C36.1557 48.2422 35.8057 49.3578 35.1167 51.95C34.6026 53.8641 34.187 55.5156 34.187 55.6141C34.187 55.7234 34.2854 56.0953 34.4057 56.4453C34.5261 56.7953 34.6245 57.1016 34.6245 57.1234C34.6245 57.1453 34.4057 57.2656 34.1323 57.3859C32.9839 57.8891 32.3932 58.7422 32.3932 59.8906C32.3823 60.5906 32.4479 60.7328 37.2386 71.4297C39.9073 77.3906 42.1276 82.3016 42.1714 82.3563C42.2151 82.4 44.0745 81.6344 46.2948 80.6391C48.5042 79.6438 50.5495 78.725 50.8229 78.6156C51.4026 78.3641 51.7964 77.9266 51.7964 77.5109C51.7964 77.3031 51.6214 77.0734 51.1182 76.625C49.3464 75.0609 49.0073 74.5141 49.0182 73.2344C49.0182 71.3969 50.3198 69.9969 52.1354 69.8656C54.6182 69.6906 56.4557 72.0641 55.6354 74.3828C55.5151 74.7328 55.4057 75.1266 55.4057 75.2359C55.4057 75.4984 55.9854 76.0781 56.2589 76.0781C56.6307 76.0781 64.3854 72.5453 64.7464 72.2063C65.1073 71.8672 65.9714 71.4516 66.1245 71.5391C66.1682 71.5719 66.2448 71.8125 66.2886 72.0859C66.3214 72.3594 66.562 73.0047 66.8136 73.5078L67.2729 74.4156L66.9776 74.7547L66.6714 75.0938V77.0625V79.0313H66.2557C66.0261 79.0313 65.7307 79.1078 65.5995 79.2063C65.3589 79.3703 65.3589 79.4031 65.3589 82.0719C65.3589 83.5594 65.3917 85.4734 65.4354 86.3266L65.5011 87.8906H66.1136H66.7261L66.6932 84.1172L66.6495 80.3438H70.4667C72.5557 80.3438 76.4495 80.3109 79.1182 80.2672L83.9526 80.2016V81.6672C83.9526 82.4766 83.9854 84.2047 84.0292 85.5172L84.0948 87.8906H84.7292H85.3636L85.2979 83.7016C85.2323 78.9 85.2542 78.9984 84.3682 78.9438L83.8651 78.9109L83.8214 76.9531C83.7886 75.1813 83.7667 74.9734 83.5589 74.6891L83.3292 74.3828L83.7557 73.5625C84.2698 72.5563 86.0745 65.95 85.987 65.4141C85.9542 65.2281 85.812 64.7141 85.6589 64.2438L85.3964 63.4125L86.0854 63.0734C87.2339 62.5047 87.8573 61.3125 87.5948 60.1859C87.4526 59.5516 78.5823 38.3438 78.462 38.3438C78.4073 38.3438 76.537 39.1094 74.2948 40.05C72.0526 40.9906 70.1604 41.7781 70.0948 41.8109C69.9854 41.8547 69.9526 41.625 69.9526 40.8922C69.9526 39.2844 69.6136 38.3438 68.7057 37.3703C67.7761 36.3859 66.6932 35.9266 65.2932 35.9266C63.8714 35.9266 62.8542 36.3641 61.8698 37.4141C60.5245 38.8359 60.2073 40.8813 61.0495 42.675C61.3667 43.3531 62.0448 44.1406 62.5807 44.4797C62.9089 44.6766 62.9417 44.7422 62.8104 44.8188C62.537 44.9719 53.9948 48.5156 53.9073 48.5156C53.8526 48.5156 53.6229 48.1219 53.3823 47.6516L52.9339 46.7875L53.2401 46.4484L53.5464 46.1094V44.1516V42.2047L54.0386 42.15C54.8917 42.0516 54.8589 42.1938 54.8589 38.7266C54.8589 37.0313 54.8261 34.8219 54.7823 33.8266L54.7167 32H54.1042H53.4917L53.5245 36.4297L53.5682 40.8594H49.0401C46.5464 40.8594 42.6526 40.8922 40.3886 40.9359L36.2651 41.0016V39.4703C36.2651 38.6281 36.2323 36.6047 36.1886 34.975L36.1229 32H35.4886H34.8542L34.9089 36.8344ZM66.737 37.5234C67.3823 37.8078 67.9948 38.3766 68.3339 39.0328C68.5636 39.4484 68.5854 39.6453 68.5964 41.0781C68.6073 42.8063 68.662 43.0469 69.1761 43.2656C69.5917 43.4297 69.4495 43.4844 74.1089 41.5266C76.1214 40.6844 77.8057 40.0281 77.8386 40.0719C77.9917 40.2469 86.2714 60.1969 86.3261 60.5141C86.4354 61.1813 85.9651 61.8484 85.2432 62.0234C84.9807 62.0891 84.9479 62.0563 84.7948 61.5641C84.6964 61.2797 84.2698 59.9344 83.8323 58.5781C83.0229 56.0406 82.8479 55.6906 82.1807 55.3406C81.8089 55.1547 80.9667 55.1547 80.4198 55.3406C79.4026 55.7125 78.7901 56.5219 78.5167 57.8891C78.3417 58.7422 78.3417 58.7422 78.7464 61.3125C78.9761 62.7234 79.1839 63.9922 79.2167 64.1234C79.2604 64.3094 79.1729 64.4188 78.8448 64.6375C78.6151 64.7906 75.5307 66.125 71.9761 67.6016C68.4323 69.0891 65.4901 70.325 65.4354 70.3578C65.3917 70.3797 65.3151 70.2922 65.2604 70.15C65.2057 70.0078 64.5386 68.4766 63.7839 66.7594C63.0292 65.0313 62.4057 63.5766 62.4057 63.5219C62.4057 63.4672 62.5479 63.4453 62.7229 63.4781C63.3245 63.5656 64.8448 63.2922 65.4682 62.9859C67.3823 62.0563 68.5089 59.5297 67.9401 57.4297C67.5026 55.7891 66.4198 54.6406 64.7901 54.0828C64.2323 53.8969 63.9261 53.8641 63.1714 53.9078C61.6073 53.9844 60.3714 54.6406 59.5511 55.8109L59.1573 56.3797L57.812 53.35C57.0792 51.6875 56.3354 50.0469 56.1714 49.7188L55.8651 49.1172L60.2401 47.3125C63.0073 46.175 64.6698 45.4313 64.7682 45.3C65.1511 44.7531 64.812 44.0641 64.0354 43.8125C63.3901 43.5938 62.4932 42.7406 62.1761 42.0406C61.7932 41.1766 61.8042 39.9188 62.2089 39.1531C62.6245 38.3656 62.9636 37.9938 63.5979 37.6547C64.6261 37.0969 65.687 37.0531 66.737 37.5234ZM52.2339 43.9109V45.65L49.587 45.7266C48.1214 45.7594 44.862 45.7813 42.3354 45.7594L37.7417 45.7266L37.7089 44.0094L37.6761 42.2813L40.8807 42.2484C42.6417 42.2375 45.9229 42.2156 48.1651 42.1938L52.2339 42.1719V43.9109ZM51.7854 47.4766C52.1354 47.9688 52.5511 48.8 52.562 49.0188C52.562 49.0844 50.2214 50.1891 47.3557 51.4688C43.0682 53.3938 42.1386 53.8531 42.0073 54.0828C41.6792 54.7172 40.6948 55.5047 39.5682 56.0188C39.5573 56.0297 39.7651 57.4078 40.0495 59.0813C40.5854 62.3625 40.6073 62.8875 40.2136 63.7625C39.8636 64.5719 38.8464 64.9984 38.4307 64.5063C38.3432 64.4078 37.6432 62.3516 36.8776 59.9453L35.4886 55.5703L36.4292 52.0703C37.2495 49.0188 37.4354 48.4719 37.8292 47.8375L38.2776 47.0938L43.4292 47.0609C46.2511 47.05 49.2151 47.0281 50.0026 47.0063L51.4354 46.9844L51.7854 47.4766ZM54.7714 49.9047C54.8589 50.0141 55.6792 51.8188 56.5979 53.9297C57.5167 56.0297 58.337 57.8672 58.4245 58.0094C58.6542 58.3594 59.037 58.4906 59.4636 58.3375C59.737 58.25 59.8682 58.0859 60.0761 57.6047C60.4917 56.675 60.9948 56.1281 61.8261 55.7125C62.4386 55.4172 62.6682 55.3625 63.3245 55.3625C65.1511 55.3625 66.5511 56.675 66.6495 58.4906C66.7151 59.5625 66.4636 60.2297 65.6979 60.9844C64.8995 61.7828 64.4948 61.9031 62.712 61.9141C61.3995 61.9141 61.312 61.925 61.0495 62.1766C60.8526 62.3625 60.7651 62.5594 60.7651 62.8C60.7651 63.0188 61.3776 64.5281 62.4057 66.8141C63.3136 68.8266 64.0464 70.5875 64.0464 70.7406C64.0464 70.8828 63.9807 71.0906 63.9151 71.1891C63.7948 71.3531 57.3526 74.3281 57.1229 74.3281C57.0792 74.3281 57.0682 74.0438 57.112 73.6938C57.2979 71.9984 56.3464 70.1172 54.8479 69.2203C51.9604 67.4922 48.3292 69.2094 47.7276 72.5781C47.4651 74.0656 47.9136 75.2578 49.2261 76.5922L50.1011 77.5L48.8979 78.0359C48.2417 78.3422 46.6011 79.075 45.2557 79.6766L42.8167 80.7703L42.6198 80.3109C42.5104 80.0594 40.4432 75.4219 38.0151 70.0188C34.0339 61.1266 33.6182 60.1422 33.6729 59.7484C33.7057 59.4859 33.8479 59.2016 34.0229 59.0156C34.3292 58.6984 34.9089 58.3922 35.0182 58.5016C35.0511 58.5344 35.5432 60.0219 36.1229 61.8266C37.2167 65.2719 37.3589 65.5453 38.0917 65.8625C38.8464 66.1797 40.1917 65.8844 40.7823 65.2719C41.187 64.8563 41.5917 63.8938 41.7229 63.0625C41.8432 62.2969 41.8214 62.0891 41.2417 58.5344C40.9901 57.0141 40.9792 56.7734 41.1104 56.6969C41.5479 56.4563 42.4229 55.6906 42.7401 55.2641C43.0792 54.8156 43.3198 54.6953 48.7339 52.2672C51.8292 50.8672 54.4214 49.7297 54.487 49.7297C54.5526 49.7188 54.6839 49.8063 54.7714 49.9047ZM81.8089 56.5875C81.8417 56.6422 82.5089 58.6875 83.2964 61.1266L84.7292 65.5781L83.7776 69.1C82.9464 72.2063 82.7823 72.7094 82.3667 73.3875L81.8964 74.1641L75.4104 74.1969L68.9245 74.2188L68.6729 73.9781C68.1151 73.4531 67.437 71.9 67.437 71.1672C67.437 70.8938 67.6339 70.7953 71.0792 69.3734C73.0698 68.5422 75.1698 67.6672 75.7167 67.4375L76.7339 67.0109L76.4604 67.5469C76.3073 67.8422 76.187 68.1047 76.187 68.1266C76.187 68.1813 77.2261 68.6406 77.3245 68.6406C77.3573 68.6406 77.587 68.2359 77.8495 67.7438C78.3964 66.6828 79.1839 65.8625 80.0698 65.4359C80.6276 65.1516 80.6823 65.0969 80.6276 64.8344C80.2667 63.0734 79.6761 58.9609 79.7198 58.4578C79.7854 57.7578 80.1026 57.0578 80.5182 56.7297C80.8136 56.5 81.6886 56.4016 81.8089 56.5875ZM82.4761 77.2266V78.8672L75.3667 78.9547C71.462 78.9984 68.1917 79.0094 68.1261 78.9766C68.0167 78.9438 67.9839 78.4844 67.9839 77.2266V75.5313L75.2354 75.5531L82.4761 75.5859V77.2266Z" fill="white"/>
<path d="M78.4406 32.7766C78.4078 33.1484 78.375 33.8922 78.375 34.4172V35.3906H79.0203H79.6766L79.7094 33.8047C79.7422 32.0437 79.775 32.1094 78.9109 32.1094H78.5172L78.4406 32.7766Z" fill="white"/>
<path d="M73.65 34.1437L73.125 34.4062L73.8359 35.8281C74.2297 36.6156 74.6016 37.25 74.6562 37.25C74.7547 37.25 75.6297 36.8453 75.7281 36.7578C75.7828 36.7141 74.2844 33.8594 74.2187 33.8703C74.1859 33.8703 73.9344 33.9906 73.65 34.1437Z" fill="white"/>
<path d="M83.2531 35.2484C82.8594 36.0141 82.5312 36.6813 82.5312 36.725C82.5312 36.7688 82.7719 36.9328 83.0672 37.0859L83.6141 37.3594L84.325 35.9703C84.7187 35.2047 85.0469 34.5375 85.0469 34.4938C85.0469 34.45 84.8062 34.2859 84.5109 34.1328L83.9641 33.8594L83.2531 35.2484Z" fill="white"/>
<path d="M46.3062 83.0344C46.0109 83.1766 45.7812 83.3516 45.7812 83.4172C45.7812 83.5375 46.0437 84.0734 46.7328 85.3422L47.2141 86.25L47.7609 85.9766C48.0562 85.8234 48.2969 85.6703 48.2969 85.6484C48.2969 85.5719 46.8859 82.75 46.8422 82.75C46.8312 82.7609 46.5906 82.8813 46.3062 83.0344Z" fill="white"/>
<path d="M37.0859 84.2813L36.375 85.6922L36.8453 85.9766C37.1078 86.1297 37.3703 86.25 37.425 86.25C37.4797 86.25 37.8625 85.6047 38.2672 84.8281L39.0109 83.4172L38.4641 83.1328C38.1578 82.9797 37.8844 82.8594 37.8516 82.8594C37.8297 82.8594 37.4797 83.4938 37.0859 84.2813Z" fill="white"/>
<path d="M41.6906 85.7254C41.6578 86.2723 41.625 86.9832 41.625 87.3004V87.8801L42.2266 87.9457C42.5656 87.9895 42.85 88.0113 42.8719 87.9895C42.8938 87.9676 42.9375 87.2238 42.9703 86.327L43.025 84.7192H42.3906H41.7672L41.6906 85.7254Z" fill="white"/>
</g>
<defs>
<linearGradient id="paint0_linear_77_1223" x1="108.649" y1="-6.48649" x2="-11.3514" y2="126.486" gradientUnits="userSpaceOnUse">
<stop stop-color="#0060AA"/>
<stop offset="1" stop-color="#0E94FB"/>
</linearGradient>
<clipPath id="clip0_77_1223">
<rect width="56" height="56" fill="white" transform="translate(32 32)"/>
</clipPath>
</defs>
</svg>
