<svg width="120" height="120" viewBox="0 0 120 120" fill="none" xmlns="http://www.w3.org/2000/svg">
<circle cx="60" cy="60" r="60" fill="url(#paint0_linear_77_1190)"/>
<path d="M46.5911 32.3832L46.3067 32.6676L46.3942 34.527L46.4708 36.3863L44.6005 36.3098L42.7411 36.2332L42.4567 36.5176C41.888 37.0863 41.9536 37.1848 44.5786 39.8207L46.9848 42.227L48.5161 42.2598C49.3583 42.2816 50.0473 42.3145 50.0473 42.3363C50.0473 42.3582 49.8723 42.6316 49.6536 42.9488C48.4067 44.7754 47.663 47.0613 47.5645 49.3473C47.4005 52.9457 48.6911 56.2598 51.2177 58.7645C53.1317 60.6566 55.4942 61.8488 58.1083 62.2426C59.4645 62.4504 60.5364 62.4504 61.8927 62.2426C64.5177 61.8488 66.8911 60.6457 68.8052 58.7426C70.1942 57.3426 71.1895 55.7457 71.813 53.8973C74.0114 47.3348 70.4895 40.2801 63.9161 38.0816C60.3395 36.8785 55.9427 37.502 52.9677 39.6129C52.6833 39.8207 52.4317 39.9848 52.3989 39.9848C52.3661 39.9848 52.3442 39.3066 52.3442 38.4863V36.977L49.9052 34.5488C47.2473 31.891 47.1489 31.8254 46.5911 32.3832ZM50.7255 39.1316L50.7802 40.641H49.238H47.6958L46.3833 39.3285L45.0708 38.016H46.3286C47.4552 38.016 47.5973 37.9941 47.827 37.7754C48.0567 37.5566 48.0786 37.4582 48.0786 36.277V35.0082L49.3802 36.3207L50.6817 37.6332L50.7255 39.1316ZM62.8989 39.4816C67.8317 40.9145 71.0255 45.3441 70.7958 50.4301C70.7192 52.0051 70.4567 53.0988 69.7895 54.4988C69.177 55.7895 68.7833 56.3582 67.777 57.4191C66.0927 59.1582 64.1677 60.1863 61.7942 60.602C59.1036 61.0723 56.1395 60.416 53.8755 58.8738C53.1317 58.3598 51.7208 56.9598 51.1848 56.216C50.5505 55.3191 49.7958 53.7113 49.5005 52.6176C49.1723 51.3926 49.0958 49.4238 49.3255 48.1223C49.6317 46.3613 50.5067 44.3598 51.4583 43.266L51.7864 42.8832L52.6723 43.7691L53.5692 44.6551L53.0661 45.3879C51.8302 47.2363 51.4036 49.7629 51.9614 51.9613C52.1911 52.8582 53.0005 54.466 53.5802 55.166C55.1989 57.1238 57.4302 58.1629 60.0005 58.1629C62.5708 58.1629 64.7036 57.1785 66.388 55.1879C66.9895 54.4879 67.7989 52.902 68.0395 51.9613C68.7614 49.1504 67.9302 46.1535 65.852 44.0863C63.052 41.2754 58.7536 40.827 55.4505 43.0035L54.7067 43.4957L53.8536 42.6426C53.3833 42.1723 53.0005 41.7566 53.0005 41.7129C53.0005 41.5707 54.127 40.7832 54.9692 40.3348C56.7192 39.4051 58.0973 39.0988 60.2739 39.1535C61.6411 39.1863 62.0786 39.241 62.8989 39.4816ZM62.002 43.5832C64.1458 44.3379 65.7098 45.9238 66.377 48.0238C66.7161 49.0957 66.7052 50.8895 66.3552 51.9066C65.6333 53.9957 64.0473 55.5816 62.0239 56.2488C61.302 56.4785 60.9411 56.5332 60.0005 56.5332C58.0098 56.5332 56.4458 55.8332 55.0786 54.3348C53.2411 52.3332 52.8255 49.4566 54.0395 47.0395C54.7286 45.6613 54.5645 45.6504 56.0739 47.1598L57.3864 48.4723L57.2114 48.9426C56.938 49.741 56.9927 50.4738 57.4083 51.2723C58.5239 53.4379 61.5317 53.416 62.6145 51.2395C63.3364 49.7957 62.8552 48.166 61.4661 47.3566C60.8317 46.9848 59.738 46.8863 59.0161 47.1379L58.5239 47.302L57.2333 46.0223C56.5333 45.3223 55.9645 44.6988 55.9864 44.6332C56.052 44.4363 57.5723 43.7035 58.3708 43.4848C59.4098 43.2004 61.0505 43.2441 62.002 43.5832ZM60.6567 48.7895C61.0505 48.9973 61.313 49.4676 61.313 49.9926C61.313 50.277 61.2145 50.4848 60.9411 50.791C60.602 51.1629 60.5145 51.1957 60.0005 51.1957C59.4864 51.1957 59.3989 51.1629 59.0598 50.791C58.6442 50.3207 58.5677 49.8285 58.852 49.2816C59.1692 48.6801 60.0005 48.4504 60.6567 48.7895Z" fill="white"/>
<path d="M44.4031 60.4375C41.0453 60.9516 38.6937 63.9813 39.1094 67.2625C39.2625 68.4766 39.5797 69.2531 40.3344 70.2594C40.575 70.5875 40.75 70.8609 40.7281 70.8828C40.7172 70.8938 40.4219 71.0469 40.0937 71.2109C38.7703 71.8781 37.6656 72.8625 36.8672 74.1094C35.7187 75.8922 35.5 76.8547 35.5 80.2672C35.5 82.3781 35.5328 82.9359 35.6641 83.1875C36.0141 83.8656 35.8062 83.8438 43.3203 83.8438H50.1562L50.1672 85.2328C50.1672 86.8625 50.2875 87.2891 50.8016 87.6391L51.1734 87.8906H59.9891C66.7703 87.8906 68.8703 87.8578 69.0672 87.7484C69.2094 87.6828 69.4391 87.475 69.5594 87.3109C69.7672 87.0375 69.7891 86.8188 69.8219 85.4188L69.8656 83.8438H76.6906C84.1937 83.8438 83.9859 83.8656 84.3359 83.1875C84.5766 82.7172 84.5766 78.1672 84.325 76.975C83.8109 74.4813 82.1703 72.3484 79.9062 71.2109C79.5781 71.0469 79.2828 70.8938 79.2719 70.8828C79.25 70.8609 79.425 70.5875 79.6656 70.2594C80.4203 69.2422 80.7375 68.4766 80.8906 67.2297C81.2625 64.3641 79.5125 61.6625 76.6578 60.7C75.5422 60.3172 73.9891 60.2953 72.9062 60.6453C70.7953 61.3234 69.0781 63.1609 68.6516 65.2281C68.2797 67.0328 68.7937 69.1547 69.9094 70.3906L70.2922 70.8172L69.7125 71.1125C68.0281 71.9656 66.6281 73.3438 65.8078 74.9516L65.5781 75.4219L65.0531 75.1813C64.7687 75.0391 64.5172 74.9297 64.5062 74.9188C64.4844 74.8969 64.6594 74.6453 64.9 74.3391C65.7094 73.3219 66.2234 71.8563 66.2344 70.5984C66.2453 67.8203 64.1672 65.2281 61.4219 64.5828C58.6219 63.9375 55.6687 65.3375 54.4437 67.8859C53.7766 69.275 53.6234 70.4125 53.9187 71.8344C54.1156 72.7422 54.5312 73.6172 55.1 74.3391C55.3406 74.6453 55.5156 74.8969 55.4937 74.9188C55.4828 74.9297 55.2312 75.0391 54.9469 75.1813L54.4219 75.4219L54.1922 74.9516C53.3937 73.3766 51.95 71.9438 50.2875 71.1125L49.7078 70.8172L50.1453 70.3031C52.0266 68.0391 51.8953 64.5719 49.8391 62.3734C48.45 60.8969 46.3281 60.1422 44.4031 60.4375ZM46.0656 62.0891C48.1547 62.4719 49.6859 64.1563 49.8062 66.2234C49.8828 67.6563 49.4344 68.8156 48.4172 69.7672C46.1641 71.8781 42.5656 71.2766 41.1984 68.5531C40.3344 66.8359 40.6187 64.8672 41.9422 63.4672C42.6094 62.7563 43.3531 62.3297 44.2828 62.1328C45.1469 61.9469 45.2781 61.9469 46.0656 62.0891ZM75.6734 62.1328C76.6469 62.3406 77.3797 62.7453 78.0578 63.4672C79.3812 64.8672 79.6656 66.8359 78.8016 68.5531C77.3687 71.3969 73.5516 71.8891 71.3312 69.5266C71.0469 69.2094 70.6859 68.6844 70.5219 68.3344C70.2703 67.7875 70.2266 67.5688 70.2266 66.5516C70.2266 65.4359 70.2375 65.3703 70.6422 64.5719C71.2766 63.2703 72.3375 62.45 73.7812 62.1219C74.5797 61.9469 74.7984 61.9469 75.6734 62.1328ZM60.7 66.125C63.1719 66.5297 64.9219 68.8484 64.5172 71.2109C64.0797 73.7375 61.75 75.4328 59.3 75.0172C58.2719 74.8422 57.4625 74.4266 56.7625 73.7375C54.9906 71.9656 54.9906 69.1766 56.7516 67.4156C57.3641 66.8031 58.3812 66.2672 59.2016 66.125C59.9453 66.0047 59.9781 66.0047 60.7 66.125ZM43.375 72.3922C43.8453 72.5672 44.25 72.6109 45.2344 72.6219C46.3281 72.6219 46.6016 72.5891 47.3125 72.3375L48.1328 72.0422L48.8766 72.3047C50.4406 72.8406 51.8625 74.0766 52.6391 75.5859L53.0437 76.3734L52.4422 77.0516C51.4359 78.2 50.8234 79.3594 50.4187 80.8797C50.3312 81.2188 50.2656 81.6453 50.2656 81.8422V82.2031H43.6922H37.1187L37.1625 79.7094C37.2062 77.3578 37.2172 77.1828 37.4906 76.4938C38.0812 74.9406 39.1094 73.6938 40.4437 72.8734C41.1984 72.425 42.3469 72.0094 42.6094 72.1078C42.6969 72.1406 43.0469 72.2609 43.375 72.3922ZM72.8516 72.3922C73.8687 72.7422 75.7609 72.7203 76.7781 72.3375L77.5328 72.0422L78.2 72.25C80.1031 72.8406 81.7328 74.4375 82.5094 76.4938C82.7828 77.1828 82.7937 77.3578 82.8375 79.7094L82.8812 82.2031H76.3187H69.7672L69.6906 81.5469C69.5047 79.9391 68.6187 78.1453 67.3391 76.8109L66.9453 76.3953L67.35 75.6078C67.875 74.6016 68.6406 73.7375 69.5922 73.0813C70.3797 72.5453 71.7578 71.9875 72.0312 72.0969C72.1187 72.1406 72.4906 72.2719 72.8516 72.3922ZM58.0859 76.4391C58.6109 76.625 58.9937 76.6688 60 76.6688C61.0828 76.6688 61.3672 76.6359 62.0562 76.3844L62.8547 76.1L63.4234 76.2859C64.9547 76.8109 66.1359 77.7078 66.9781 78.9656C67.9297 80.3875 68.1922 81.5797 68.2031 84.5219V86.25H59.9891H51.7641L51.8187 83.9203C51.8734 81.7984 51.9062 81.525 52.1687 80.7047C52.7047 79.0531 53.9844 77.5109 55.4391 76.7672C56.2266 76.3734 57.0687 76.0891 57.2656 76.1438C57.3531 76.1766 57.725 76.3078 58.0859 76.4391Z" fill="white"/>
<defs>
<linearGradient id="paint0_linear_77_1190" x1="108.649" y1="-6.48649" x2="-11.3514" y2="126.486" gradientUnits="userSpaceOnUse">
<stop stop-color="#0060AA"/>
<stop offset="1" stop-color="#0E94FB"/>
</linearGradient>
</defs>
</svg>
