<svg width="120" height="120" viewBox="0 0 120 120" fill="none" xmlns="http://www.w3.org/2000/svg">
<circle cx="60" cy="60" r="60" fill="url(#paint0_linear_77_1234)"/>
<path d="M38.2672 34.657C38.1359 34.7227 36.8891 36.057 35.5 37.6102C33.6844 39.6445 32.9844 40.4977 32.9844 40.6945C32.9844 41.0008 33.2906 41.3727 36.1234 44.5227C37.8844 46.4914 38.2344 46.8195 38.5297 46.8523C38.7703 46.8742 38.9453 46.8195 39.0984 46.6664C39.3062 46.4586 39.3281 46.3055 39.3281 45.1242V43.8117H50.4078C62.3953 43.8117 62.3844 43.8117 64.5062 44.4133C69.8328 45.9336 74.2516 50.418 75.6516 55.7227C76.3953 58.5664 76.3734 61.7164 75.5859 64.4289C74.6016 67.8305 72.5562 70.8164 69.7672 72.9492C69.3625 73.2555 69.0562 73.5727 69.0125 73.7367C68.9141 74.1086 69.1219 74.5242 69.4281 74.6008C69.5703 74.6336 71.2984 74.6445 73.2891 74.6336L76.8875 74.6008L77.4234 73.9445C81.5578 68.8586 83.2094 61.8258 81.8094 55.2961C80.0375 47.0273 73.6281 40.4102 65.3703 38.343C62.8437 37.7086 62.3406 37.6867 50.2984 37.6867H39.3281V36.3414C39.3281 35.182 39.2953 34.9633 39.1422 34.8211C38.8469 34.5586 38.5297 34.5039 38.2672 34.657ZM38.0484 38.9664C38.2344 39.1523 38.9234 39.1633 50.3531 39.218C62.2531 39.2836 62.4828 39.2836 63.6641 39.5242C67.8531 40.3555 71.3531 42.1383 74.2953 44.9492C82.0062 52.3102 82.9578 64.1008 76.5375 72.6102L76.1437 73.1242H74.0766H72.0203L72.9062 72.1617C75.2141 69.6789 76.6687 66.868 77.4125 63.4664C77.6312 62.493 77.6641 62.0336 77.6531 59.9445C77.6531 57.6914 77.6422 57.4508 77.3469 56.2258C76.5375 52.7586 74.9844 49.9367 72.5234 47.4758C70.0844 45.0367 67.3062 43.4945 63.8281 42.6523L62.5703 42.3461L50.4187 42.3133L38.2781 42.2695L38.0594 42.5102C37.9281 42.6633 37.8297 42.9586 37.7969 43.3961L37.7422 44.0414L36.3203 42.4445C35.5328 41.5695 34.8875 40.8039 34.8656 40.7492C34.8437 40.6945 35.4891 39.9289 36.2875 39.043L37.7422 37.4242L37.7969 38.1023C37.8297 38.5398 37.9172 38.8352 38.0484 38.9664Z" fill="white"/>
<path d="M81.2187 34.5919C80.7266 34.7778 80.6719 34.9309 80.6719 36.3419V37.6872H76.1328C71.7359 37.6872 71.5828 37.6981 71.375 37.9059C71.2547 38.0262 71.1562 38.2669 71.1562 38.4419C71.1562 38.8247 71.2109 38.8684 73.1687 40.159C74.7219 41.1762 75.3672 41.6903 76.6578 42.9372L77.5219 43.7575L79.0969 43.7903L80.6719 43.8231V45.1356C80.6719 46.3059 80.6937 46.459 80.9016 46.6669C81.0547 46.82 81.2297 46.8747 81.4703 46.8528C81.7656 46.82 82.1156 46.4919 83.8766 44.5231C86.7094 41.3731 87.0156 41.0012 87.0156 40.695C87.0156 40.4981 86.3266 39.6559 84.5437 37.6653C83.1766 36.145 82.0172 34.8434 81.9406 34.7778C81.7766 34.6028 81.4266 34.5153 81.2187 34.5919ZM83.7344 39.0653C84.5219 39.9403 85.1562 40.695 85.1344 40.7497C85.1125 40.8044 84.4672 41.57 83.6797 42.445L82.2578 44.0419L82.2031 43.3965C82.1156 42.3137 82.0609 42.2809 79.9937 42.2809H78.2547L77.1609 41.2965C76.5594 40.7606 75.75 40.0825 75.3672 39.7981L74.6562 39.2731L78.2219 39.2184L81.7875 39.1637L81.9953 38.9012C82.1375 38.7262 82.2031 38.4747 82.2031 38.059C82.2031 37.7309 82.225 37.4684 82.2469 37.4684C82.2797 37.4684 82.9469 38.1903 83.7344 39.0653Z" fill="white"/>
<path d="M42.9149 45.6387C41.5805 47.0934 39.9399 49.9153 39.0758 52.234C37.6211 56.1168 37.3039 60.5793 38.1899 64.6918C39.3055 69.8872 42.3352 74.6231 46.6008 77.8278C49.1164 79.72 52.0914 81.0981 55.0774 81.7653C57.3742 82.2793 57.943 82.3012 69.6571 82.3122H80.6711V83.6575C80.6711 84.8168 80.7039 85.0356 80.8571 85.1778C81.1742 85.4622 81.4696 85.495 81.7867 85.2872C81.9399 85.1887 83.1867 83.8543 84.543 82.334C86.3258 80.3434 87.0149 79.5012 87.0149 79.3043C87.0149 78.9981 86.7086 78.6262 83.8758 75.4762C82.1149 73.5075 81.7649 73.1793 81.4696 73.1465C81.2289 73.1247 81.0539 73.1793 80.9008 73.3325C80.693 73.5403 80.6711 73.6934 80.6711 74.8747V76.1872H69.6024C60.218 76.1872 58.3586 76.1653 57.4836 76.0231C50.5274 74.9075 45.0914 69.4715 43.9758 62.5153C43.7899 61.3012 43.7571 58.9059 43.9321 57.7793C44.3039 55.2747 45.2117 52.945 46.6117 50.8559C47.3336 49.784 48.8539 48.1434 49.7836 47.4215C51.0852 46.4153 51.293 46.0434 50.8117 45.5622C50.6039 45.3543 50.4508 45.3434 46.8961 45.3434H43.1992L42.9149 45.6387ZM47.3555 47.5528C44.8727 50.1122 43.3633 52.9559 42.5867 56.4997C42.368 57.5059 42.3352 57.9543 42.3461 60.0543C42.3461 62.3075 42.3571 62.5481 42.6524 63.7731C43.4617 67.2403 45.0149 70.0622 47.4758 72.5231C49.9149 74.9622 52.693 76.5043 56.1711 77.3465L57.4289 77.6528L69.5805 77.6856L81.7211 77.7293L81.9399 77.4887C82.0711 77.3356 82.1696 77.0403 82.2024 76.6028L82.2571 75.9575L83.6789 77.5543C84.4664 78.4293 85.1117 79.195 85.1336 79.2497C85.1555 79.3043 84.5102 80.07 83.7117 80.9559L82.2571 82.5747L82.2024 81.8856C82.1039 80.6606 83.3836 80.7809 70.1602 80.7809C57.6039 80.7809 57.418 80.77 54.8477 80.1247C48.7117 78.5934 43.5164 74.1528 40.9133 68.2356C39.2399 64.4184 38.7914 59.9559 39.6664 55.7012C40.2352 52.8684 41.6461 49.795 43.4617 47.3887L43.8555 46.8747H45.9336H48.0117L47.3555 47.5528Z" fill="white"/>
<path d="M57.9547 47.3125C57.5172 47.575 57.2984 47.9906 57.2 48.7234C56.9812 50.3641 55.3953 51.0313 54.0391 50.0578C52.8469 49.2047 52.4422 49.2922 50.9656 50.725C50.3531 51.3266 49.7625 51.9938 49.6641 52.2016C49.4125 52.7266 49.5109 53.2406 50.0031 53.9516C50.4625 54.6188 50.6047 55.1438 50.4844 55.7016C50.2984 56.5109 49.6312 57.0797 48.7234 57.2C47.9906 57.2984 47.575 57.5172 47.3125 57.9547C47.1156 58.2609 47.0938 58.5125 47.0938 60C47.0938 61.4875 47.1156 61.7391 47.3125 62.0453C47.575 62.4828 47.9906 62.7016 48.7234 62.8C50.3641 63.0188 51.0312 64.6047 50.0578 65.9609C49.5984 66.6063 49.4781 66.9672 49.5656 67.4922C49.6203 67.8641 49.8172 68.1047 50.8562 69.1438C51.9062 70.1938 52.1359 70.3797 52.5187 70.4344C53.0328 70.5219 53.4812 70.3688 54.0937 69.9094C55.3625 68.9469 56.9922 69.6578 57.2 71.2766C57.2984 72.0094 57.5172 72.425 57.9547 72.6875C58.2609 72.8844 58.5125 72.9062 60 72.9062C61.4875 72.9062 61.7391 72.8844 62.0453 72.6875C62.4828 72.425 62.6906 72.0422 62.7891 71.2984C63.0078 69.6688 64.6375 68.9469 65.9062 69.9094C66.5187 70.3688 66.9672 70.5219 67.4812 70.4344C67.8641 70.3797 68.0937 70.1938 69.1437 69.1438C70.1937 68.0938 70.3797 67.8641 70.4344 67.4813C70.5219 66.9672 70.3687 66.5188 69.9094 65.9063C68.9469 64.6375 69.6578 63.0078 71.2766 62.8C72.0094 62.7016 72.425 62.4828 72.6875 62.0453C72.8844 61.7391 72.9062 61.4875 72.9062 60C72.9062 58.5125 72.8844 58.2609 72.6875 57.9547C72.425 57.5172 72.0094 57.2984 71.2766 57.2C69.6578 56.9922 68.9469 55.3625 69.9094 54.0938C70.3687 53.4813 70.5219 53.0328 70.4344 52.5188C70.3797 52.1359 70.1937 51.9063 69.1437 50.8563C68.1047 49.8172 67.8641 49.6203 67.4922 49.5656C66.9672 49.4781 66.6062 49.5984 65.9609 50.0578C64.6047 51.0313 63.0187 50.3641 62.8 48.7234C62.7016 47.9906 62.4828 47.575 62.0453 47.3125C61.7391 47.1156 61.4875 47.0938 60 47.0938C58.5125 47.0938 58.2609 47.1156 57.9547 47.3125ZM61.3234 49.1719C61.4328 49.8938 61.6734 50.4078 62.1766 50.9547C63.1609 52.0266 64.9 52.3766 66.1469 51.7641C66.475 51.6 66.8359 51.3703 66.9453 51.25C67.1531 51.0203 67.1531 51.0313 68.05 51.9172L68.9469 52.8141L68.5859 53.2844C68.1156 53.9078 67.9406 54.4328 67.9406 55.2969C67.9406 56.9922 69.1766 58.4359 70.8281 58.6766L71.3203 58.7422V60V61.2578L70.8281 61.3234C70.1062 61.4328 69.5922 61.6734 69.0453 62.1766C67.9734 63.1719 67.6234 64.8891 68.2359 66.1469C68.4 66.475 68.6297 66.8359 68.75 66.9453C68.9797 67.1531 68.9687 67.1531 68.0828 68.05L67.1859 68.9469L66.7156 68.5859C66.0922 68.1156 65.5672 67.9406 64.7031 67.9406C63.0078 67.9406 61.5641 69.1766 61.3234 70.8281L61.2578 71.3203H60H58.7422L58.6766 70.8281C58.4359 69.1766 56.9922 67.9406 55.2969 67.9406C54.4328 67.9406 53.9078 68.1156 53.2844 68.5859L52.8141 68.9469L51.9172 68.05C51.0312 67.1531 51.0203 67.1531 51.25 66.9453C51.3703 66.8359 51.6 66.475 51.7641 66.1469C52.3766 64.9 52.0266 63.1609 50.9547 62.1766C50.4078 61.6734 49.8937 61.4328 49.1719 61.3234L48.6797 61.2578V60V58.7422L49.1719 58.6766C49.8937 58.5672 50.4078 58.3266 50.9547 57.8234C52.0266 56.8391 52.3766 55.1 51.7641 53.8531C51.6 53.525 51.3703 53.1641 51.25 53.0547C51.0203 52.8469 51.0312 52.8469 51.9172 51.95L52.8141 51.0531L53.2844 51.4141C54.2469 52.1578 55.5156 52.2781 56.7078 51.7422C57.8125 51.2391 58.6875 50.0578 58.6875 49.0625C58.6875 48.8984 58.7203 48.7344 58.7641 48.6906C58.8078 48.6578 59.3875 48.6359 60.0437 48.6469L61.2578 48.6797L61.3234 49.1719Z" fill="white"/>
<path d="M58.3047 53.4916C56.0188 54.126 54.1047 56.051 53.4922 58.3588C53.4047 58.6869 53.3281 59.4307 53.3281 59.9994C53.3281 60.5682 53.4047 61.3119 53.4922 61.64C54.1047 63.9697 56.0297 65.8947 58.3594 66.5072C59.1359 66.715 60.8641 66.715 61.6406 66.5072C63.9703 65.8947 65.8953 63.9697 66.5078 61.64C66.7156 60.8635 66.7156 59.1354 66.5078 58.3588C65.8953 56.0291 63.9703 54.1041 61.6406 53.4916C60.8969 53.2947 59.0484 53.2947 58.3047 53.4916ZM61.5422 55.0775C63.7188 55.7447 65.1406 57.7025 65.1406 59.9994C65.1406 62.9088 62.9094 65.14 60 65.14C57.0906 65.14 54.8594 62.9088 54.8594 59.9994C54.8594 57.7025 56.2703 55.7666 58.4469 55.0666C59.3 54.7932 60.6563 54.7932 61.5422 55.0775Z" fill="white"/>
<path d="M37.3375 74.1309C33.5312 78.3309 32.9844 78.9762 32.9844 79.3153C32.9844 79.5012 33.6844 80.3543 35.4562 82.334C36.8125 83.8543 38.0594 85.1887 38.2125 85.2872C38.5297 85.495 38.825 85.4622 39.1422 85.1778C39.2953 85.0356 39.3281 84.8168 39.3281 83.6575V82.3122H43.8672C48.2641 82.3122 48.4172 82.3012 48.625 82.0934C48.9203 81.7981 48.9094 81.3168 48.6031 81.0325C48.4609 80.9122 47.9578 80.5731 47.4766 80.2887C46.2078 79.5012 44.6766 78.32 43.4953 77.2153L42.4672 76.2418L40.8922 76.209L39.3281 76.1762V74.8637C39.3281 73.7043 39.3062 73.5403 39.1094 73.3434C38.6609 72.895 38.3328 73.0372 37.3375 74.1309ZM38.0594 77.4887C38.2562 77.7075 38.3766 77.7184 40.0062 77.7184H41.7453L42.8391 78.6918C43.4406 79.2387 44.25 79.9168 44.6437 80.2012L45.3656 80.7262L41.8 80.7809C37.6766 80.8465 37.8844 80.7809 37.7969 81.8965L37.7422 82.5747L36.2875 80.9559C35.4891 80.07 34.8437 79.3043 34.8656 79.2497C34.8875 79.195 35.5328 78.4293 36.3203 77.5543L37.7422 75.9575L37.7969 76.6028C37.8297 77.0293 37.9281 77.3356 38.0594 77.4887Z" fill="white"/>
<defs>
<linearGradient id="paint0_linear_77_1234" x1="108.649" y1="-6.48649" x2="-11.3514" y2="126.486" gradientUnits="userSpaceOnUse">
<stop stop-color="#0060AA"/>
<stop offset="1" stop-color="#0E94FB"/>
</linearGradient>
</defs>
</svg>
