<svg width="120" height="120" viewBox="0 0 120 120" fill="none" xmlns="http://www.w3.org/2000/svg">
<circle cx="60" cy="60" r="60" fill="url(#paint0_linear_77_1174)"/>
<path d="M59.4763 32.2183C59.1372 32.5354 59.1044 32.8854 59.1481 35.5433L59.1809 37.9276L59.4872 38.1901C59.8591 38.5073 60.0997 38.5183 60.4825 38.2229L60.7669 38.0042V35.2261C60.7669 32.5026 60.7669 32.437 60.5263 32.2183C60.22 31.9339 59.7825 31.9339 59.4763 32.2183Z" fill="white"/>
<path d="M51.5781 36.7023C51.4578 36.8226 51.3594 37.0632 51.3594 37.2491C51.3594 37.7085 52.1031 39.5241 52.3438 39.6554C52.9125 39.9616 53.5906 39.6116 53.5797 39.021C53.5797 38.6163 52.9125 36.9429 52.6609 36.6913C52.3875 36.4179 51.8516 36.4288 51.5781 36.7023Z" fill="white"/>
<path d="M67.3503 36.6703C67.044 36.9437 66.3221 38.8469 66.4096 39.1422C66.5737 39.7 67.1315 39.9297 67.6565 39.6562C67.8971 39.525 68.6409 37.7094 68.6409 37.25C68.6409 36.5937 67.8425 36.2437 67.3503 36.6703Z" fill="white"/>
<path d="M42.0625 39.437C41.9312 39.5682 41.8438 39.7979 41.8438 40.0057C41.8438 40.312 42.0734 40.5854 43.6812 42.2041C44.6875 43.2213 45.6281 44.0963 45.7703 44.151C46.2844 44.3479 46.875 43.8885 46.875 43.2979C46.875 43.1995 46 42.237 44.9391 41.1651C43.2109 39.426 42.9594 39.2182 42.6422 39.2182C42.4234 39.2182 42.1937 39.3057 42.0625 39.437Z" fill="white"/>
<path d="M75.0609 41.1648C74 42.2366 73.125 43.1991 73.125 43.2866C73.125 43.9101 73.7047 44.3585 74.2297 44.1507C74.3719 44.096 75.3125 43.221 76.3297 42.2038C77.9266 40.5851 78.1562 40.3116 78.1562 40.0054C78.1562 39.546 77.8172 39.2179 77.3578 39.2179C77.0406 39.2179 76.7891 39.4257 75.0609 41.1648Z" fill="white"/>
<path d="M58.4155 40.498C57.5295 40.5746 55.5936 40.9902 54.6092 41.2965C53.4389 41.6793 50.8686 42.9152 50.453 43.309C49.9498 43.7683 50.1358 44.5777 50.7701 44.7308C50.9998 44.7965 51.2623 44.6871 52.0061 44.2605C53.6467 43.3199 55.3092 42.6965 57.2123 42.3246C58.5576 42.0621 61.4233 42.0511 62.7905 42.3136C68.7514 43.473 73.4655 47.6293 75.1936 53.273C76.1014 56.2261 76.1233 59.4746 75.2592 62.4277C74.3295 65.6543 72.2842 68.6074 69.5498 70.6965C67.942 71.9105 67.0998 73.0699 66.7608 74.5246L66.6186 75.0933H65.1092H63.5889L63.2608 75.4215C62.9983 75.6949 62.9436 75.8152 62.9983 76.0558C63.1405 76.6574 63.3701 76.734 65.0545 76.734H66.5748L66.542 79.173L66.5092 81.623L66.192 82.0277C65.5576 82.859 65.6014 82.859 60.0014 82.859C55.3967 82.859 54.992 82.8371 54.5873 82.6511C54.0842 82.4215 53.7233 82.0605 53.5592 81.623C53.4826 81.4371 53.4389 80.3761 53.4389 79.0199V76.734H57.1576C60.7342 76.734 60.8873 76.723 61.0951 76.5152C61.4233 76.1871 61.3905 75.6074 61.0295 75.323C60.7451 75.1043 60.6139 75.0933 57.0592 75.0933H53.3842L53.242 74.5136C52.903 73.0371 52.0389 71.8777 50.3217 70.5871C46.8436 67.973 44.4811 63.6199 44.153 59.223C43.8248 54.7386 45.3014 50.4949 48.3201 47.2574C48.9764 46.5465 49.1733 46.2511 49.1733 46.0105C49.1733 45.5511 48.8451 45.2011 48.4076 45.2011C48.0905 45.2011 47.9155 45.3215 47.1061 46.1746C45.1701 48.198 43.6936 50.8996 43.0045 53.6558C42.6545 55.0558 42.5998 55.373 42.5014 56.773C42.1076 62.7011 44.7545 68.4761 49.5014 72.0308C50.628 72.873 51.1092 73.4418 51.5248 74.4371C51.7108 74.8746 51.7436 75.323 51.7983 78.3746C51.853 81.6996 51.8639 81.8418 52.1155 82.3996C52.4436 83.1215 53.3733 83.9855 54.0951 84.248C54.478 84.3793 54.6639 84.5215 54.7842 84.773C55.3639 85.9761 56.6326 87.1027 57.9998 87.6386C58.6561 87.9011 58.8967 87.934 60.0014 87.923C61.0186 87.923 61.3905 87.8793 61.9155 87.6824C63.2061 87.2121 64.3436 86.2605 65.0436 85.0574C65.3608 84.5105 65.492 84.3902 65.9295 84.2371C66.6295 83.9855 67.5701 83.1105 67.8873 82.3996C68.1389 81.8418 68.1498 81.6996 68.2045 78.3746C68.2592 75.334 68.292 74.8746 68.478 74.4371C68.8936 73.4308 69.4076 72.8402 70.7201 71.8668C71.7701 71.0793 73.3998 69.373 74.242 68.1918C76.6373 64.823 77.7529 60.9074 77.4904 56.7621C77.3373 54.3011 76.7576 52.234 75.5764 49.9371C72.853 44.6543 67.7233 41.1652 61.7295 40.5308C60.7561 40.4324 59.3451 40.4105 58.4155 40.498ZM63.392 84.598C63.392 84.8058 62.2545 85.7355 61.6639 86.009C61.128 86.2605 60.8983 86.3043 60.0014 86.3043C59.1045 86.3043 58.8748 86.2605 58.3389 86.009C57.7483 85.7355 56.6108 84.8058 56.6108 84.598C56.6108 84.5433 58.142 84.4996 60.0014 84.4996C61.8717 84.4996 63.392 84.5433 63.392 84.598Z" fill="white"/>
<path d="M57.7688 47.4546C57.5719 47.6515 57.4954 47.914 57.386 48.7343C57.2 50.1234 57.2 50.1234 56.7407 50.2765C56.5219 50.3421 56.161 50.4953 55.9532 50.5937L55.5704 50.7906L54.5422 50.0359C53.9079 49.5656 53.4157 49.2812 53.2407 49.2812C53.0329 49.2812 52.6282 49.6093 51.5672 50.6593C50.8016 51.425 50.1454 52.1578 50.1125 52.3C50.025 52.6281 50.1344 52.8359 50.9329 53.8859L51.5672 54.7281L51.2282 55.5265C51.0422 55.975 50.8891 56.3468 50.8782 56.3578C50.8672 56.3796 50.3204 56.4671 49.6532 56.5546C47.936 56.8062 47.9688 56.7515 47.9688 59.1796C47.9688 61.6187 47.936 61.564 49.6641 61.8156C50.3313 61.914 50.8782 62.0015 50.8782 62.0015C50.8891 62.0125 51.0422 62.3843 51.2282 62.8328L51.5672 63.6421L50.8016 64.6812C50.1782 65.5343 50.0469 65.775 50.1016 66.0046C50.1782 66.3109 52.7157 68.9359 53.0329 69.0343C53.3829 69.1437 53.711 68.9906 54.6407 68.2796L55.5485 67.5796L56.325 67.9187C56.7516 68.1046 57.1344 68.3015 57.1672 68.3453C57.2 68.4 57.2985 68.9359 57.375 69.5375C57.5829 71.189 57.5282 71.1562 60 71.1562C62.4719 71.1562 62.4172 71.189 62.625 69.5375C62.7016 68.9359 62.8 68.4 62.8329 68.3453C62.8657 68.3015 63.2485 68.1046 63.6641 67.9187L64.4407 67.5906L65.3594 68.2796C66.3 68.9906 66.6172 69.1437 66.9672 69.0343C67.0766 69.0015 67.7766 68.3562 68.5204 67.6125C70.1829 65.939 70.1719 65.9937 69.1547 64.6265L68.4329 63.6421L68.761 62.8328C68.9469 62.3843 69.111 62.0125 69.1219 62.0015C69.1219 62.0015 69.6797 61.914 70.336 61.8156C72.0641 61.564 72.0313 61.6187 72.0313 59.1906C72.0313 56.7406 72.075 56.8171 70.3579 56.5546L69.111 56.3687L68.761 55.5375L68.4219 54.7171L69.0563 53.8859C69.8657 52.8468 69.975 52.6281 69.8875 52.3C69.8547 52.1578 69.1985 51.425 68.4329 50.6593C67.3719 49.6093 66.9672 49.2812 66.7594 49.2812C66.5844 49.2812 66.0922 49.5656 65.4579 50.0359L64.4407 50.7796L63.8938 50.539C63.5875 50.4078 63.2157 50.2437 63.0625 50.189C62.8 50.0796 62.7672 49.9921 62.636 48.8984C62.4172 47.1593 62.4938 47.2031 60 47.2031C58.086 47.2031 58.0094 47.214 57.7688 47.4546ZM61.0829 49.7953C61.2688 51.2171 61.3891 51.414 62.1547 51.6328C62.5047 51.7312 63.1282 51.9828 63.5329 52.1906C63.9375 52.3984 64.3969 52.5625 64.5391 52.5625C64.6813 52.5625 65.1844 52.2671 65.6766 51.9062C66.1688 51.5453 66.6063 51.25 66.65 51.25C66.6938 51.25 67.0219 51.5453 67.3829 51.9062L68.0172 52.5515L67.4157 53.35C66.4641 54.6078 66.486 54.4984 66.9782 55.6031C67.2188 56.1281 67.4922 56.8171 67.6016 57.1343C67.7 57.4515 67.8641 57.7468 67.9735 57.8015C68.0719 57.8562 68.575 57.9656 69.0782 58.0312C70.511 58.2171 70.4016 58.1187 70.3688 59.2125L70.336 60.164L69.2204 60.3281C67.9625 60.514 67.7547 60.6453 67.5579 61.3453C67.4813 61.5968 67.2297 62.2312 66.9891 62.7562C66.486 63.85 66.4641 63.7515 67.4047 65.0203L68.0063 65.8187L67.3719 66.464C67.0219 66.825 66.6829 67.1093 66.6172 67.1093C66.5625 67.1093 66.1141 66.814 65.6438 66.4531C64.6704 65.7203 64.4516 65.6765 63.7844 66.0593C63.5329 66.2015 63.0188 66.4312 62.625 66.5625C61.5641 66.9234 61.4329 67 61.3235 67.3718C61.236 67.6343 60.9844 69.2203 60.9844 69.4718C60.9844 69.5484 59.0157 69.5156 59.0157 69.4281C59.0047 69.1875 58.6985 67.35 58.6329 67.1968C58.5891 67.0984 58.3266 66.9234 58.0532 66.825C57.1016 66.475 56.2266 66.1031 56.0079 65.95C55.6032 65.6656 55.2532 65.775 54.3563 66.4531C53.886 66.814 53.4375 67.1093 53.3829 67.1093C53.3172 67.1093 52.9782 66.825 52.6282 66.464L51.9938 65.8187L52.5954 65.0203C53.4813 63.839 53.4922 63.7734 53.0547 62.8656C52.8579 62.439 52.6063 61.8156 52.4969 61.4875C52.2125 60.5906 52.0375 60.4812 50.7579 60.3062L49.6641 60.164L49.6313 59.2125C49.5985 58.1187 49.4563 58.239 50.9657 58.0203C51.4469 57.9546 51.9282 57.8453 52.0375 57.7796C52.1469 57.7031 52.3438 57.3312 52.475 56.9375C52.6063 56.5437 52.8688 55.8875 53.0657 55.4828C53.4922 54.5859 53.4813 54.5531 52.6063 53.3718L51.9829 52.5515L52.6282 51.8953C52.9782 51.5453 53.3063 51.25 53.35 51.25C53.3938 51.25 53.8313 51.5453 54.3235 51.9062C54.8157 52.2671 55.3188 52.5625 55.461 52.5625C55.6032 52.5625 56.0625 52.3984 56.4672 52.1906C56.8719 51.9937 57.4079 51.764 57.6485 51.6984C58.2829 51.5015 58.5563 51.3484 58.6329 51.1515C58.6985 50.9984 59.0047 49.1609 59.0157 48.9203C59.0157 48.8765 59.4532 48.8437 59.9891 48.8437H60.9625L61.0829 49.7953Z" fill="white"/>
<path d="M58.6997 54.0496C54.7184 55.1215 53.3731 60.0215 56.2606 62.9199C58.3388 64.998 61.6638 64.998 63.7419 62.9199C65.3278 61.323 65.7434 58.9168 64.7591 56.8824C63.6872 54.6512 61.0513 53.4152 58.6997 54.0496ZM61.445 55.8215C62.7356 56.3902 63.6325 57.7355 63.6325 59.1137C63.6434 60.1746 63.3809 60.8637 62.67 61.6293C61.8606 62.5043 61.2263 62.7887 60.0013 62.7887C58.7763 62.7887 58.1419 62.5043 57.3325 61.6293C56.6434 60.8855 56.3481 60.1637 56.3481 59.1793C56.3481 57.5934 57.3981 56.1715 58.9403 55.6684C59.5747 55.4605 60.7997 55.5371 61.445 55.8215Z" fill="white"/>
<path d="M39.3397 49.0179C38.8584 49.6304 39.1975 50.1008 40.4772 50.582C41.5053 50.9758 41.8772 50.9976 42.1725 50.7023C42.4459 50.4289 42.4678 49.8164 42.2053 49.5867C41.899 49.3351 40.2912 48.7336 39.9084 48.7336C39.6678 48.7336 39.4928 48.8211 39.3397 49.0179Z" fill="white"/>
<path d="M78.8016 49.0953C77.7297 49.5437 77.6094 49.6531 77.6094 50.1672C77.6094 50.6375 77.8938 50.9219 78.375 50.9219C78.8344 50.9219 80.3766 50.2766 80.65 49.9812C80.9453 49.6422 80.9563 49.3906 80.6609 49.0187C80.3547 48.6359 79.8734 48.6578 78.8016 49.0953Z" fill="white"/>
<path d="M35.0962 56.6094C34.604 56.8062 34.4946 57.3969 34.8556 57.8562L35.0743 58.1406H37.8524H40.6306L40.8493 57.8562C41.1337 57.4953 41.1446 57.1453 40.8712 56.8172C40.6634 56.5547 40.6524 56.5547 37.9946 56.5328C36.5399 56.5219 35.2274 56.5547 35.0962 56.6094Z" fill="white"/>
<path d="M79.3931 56.6094C78.9009 56.8062 78.7915 57.3969 79.1524 57.8562L79.3712 58.1406H82.1493H84.9274L85.1462 57.8562C85.4306 57.4953 85.4415 57.1453 85.1681 56.8172C84.9602 56.5547 84.9493 56.5547 82.2915 56.5328C80.8368 56.5219 79.5243 56.5547 79.3931 56.6094Z" fill="white"/>
<defs>
<linearGradient id="paint0_linear_77_1174" x1="108.649" y1="-6.48649" x2="-11.3514" y2="126.486" gradientUnits="userSpaceOnUse">
<stop stop-color="#0060AA"/>
<stop offset="1" stop-color="#0E94FB"/>
</linearGradient>
</defs>
</svg>
