<svg width="120" height="120" viewBox="0 0 120 120" fill="none" xmlns="http://www.w3.org/2000/svg">
<circle cx="60" cy="60" r="60" fill="url(#paint0_linear_77_1207)"/>
<path d="M59.4863 32.2188C59.1691 32.5031 59.0925 33.1047 59.1363 34.8438C59.18 36.2656 59.18 36.2875 59.4863 36.55C59.6504 36.6922 59.891 36.8125 60.0004 36.8125C60.1097 36.8125 60.3504 36.6922 60.5144 36.55C60.8207 36.2875 60.8207 36.2656 60.8644 34.8438C60.8754 34.0563 60.8644 33.1813 60.8207 32.9188C60.7441 32.3609 60.416 32 60.0004 32C59.8472 32 59.6066 32.0984 59.4863 32.2188Z" fill="white"/>
<path d="M48.8875 34.9638C48.6578 35.0842 48.4062 35.4888 48.4062 35.7404C48.4062 35.9263 50.0359 38.7701 50.2766 39.0107C50.5391 39.2732 51.0422 39.2732 51.3484 39.0217C51.775 38.6826 51.6766 38.2888 50.7688 36.7029C50.2984 35.8935 49.8609 35.1717 49.7953 35.0951C49.5984 34.8982 49.15 34.8435 48.8875 34.9638Z" fill="white"/>
<path d="M70.4012 34.9857C70.0512 35.1607 68.3887 38.0701 68.3887 38.4967C68.3887 39.1201 69.2746 39.4592 69.723 39.0107C69.9637 38.7701 71.5934 35.9264 71.5934 35.7404C71.5934 35.4779 71.3418 35.0842 71.0793 34.9639C70.7512 34.8107 70.7293 34.8107 70.4012 34.9857Z" fill="white"/>
<path d="M65.108 39.8096C64.4955 40.0393 63.883 40.4658 63.5439 40.9361C63.3799 41.1658 63.2049 41.3955 63.1611 41.4502C63.1174 41.4939 62.7892 41.3955 62.4392 41.2314C61.597 40.8049 60.4595 40.7939 59.5845 41.1768C58.9174 41.4721 58.0095 42.4127 57.8127 42.9924L57.6924 43.3752L57.233 43.1346C56.8939 42.9596 56.5767 42.8939 56.008 42.8939C54.8049 42.8939 53.8424 43.4299 53.2627 44.4143L52.9892 44.8846L52.4752 44.6658C51.2939 44.1408 49.7955 44.4799 48.9095 45.4643C48.0455 46.4268 48.0783 46.0768 48.0783 54.5424C48.0783 61.7283 48.0892 62.0893 48.297 62.7564C48.5814 63.6971 49.2486 64.583 50.1127 65.2064C50.8345 65.7314 51.3377 66.3439 51.5564 66.9893C51.633 67.1971 51.6877 67.9518 51.6877 68.6627C51.6877 69.5924 51.7314 70.0518 51.8517 70.2705C52.1142 70.7846 52.5736 70.8611 53.0439 70.4893L53.3502 70.2486L53.3064 68.4877L53.2736 66.7158L52.8689 65.8955C52.4642 65.0752 52.2674 64.8564 50.8127 63.6205C49.8064 62.7564 49.7736 62.6689 49.7408 59.4314L49.708 56.6205L50.1236 56.7955C50.7142 57.0471 51.8517 57.0252 52.4642 56.7518C53.1095 56.4674 53.722 55.9205 53.9955 55.3846C54.1158 55.1549 54.2252 54.9689 54.247 54.9689C54.258 54.9689 54.4439 55.0564 54.6517 55.1549C54.8705 55.2752 55.3627 55.3627 55.8549 55.3846C56.8064 55.4393 57.572 55.1768 58.0861 54.6408L58.3924 54.3236L58.7314 54.608C59.7814 55.4939 61.2799 55.6799 62.4939 55.0674C63.0955 54.7721 63.2049 54.7502 63.5767 54.8486C63.8064 54.9143 64.1783 54.9689 64.408 54.9689C64.6267 54.9689 64.8127 54.9908 64.8127 55.0236C64.8127 55.0455 64.6486 55.3846 64.4408 55.7564C63.7955 56.9377 63.5549 57.9111 63.5549 59.3221C63.5549 60.5471 63.5549 60.5689 63.8611 60.8314C64.2002 61.1268 64.3533 61.1486 64.7361 60.9736C65.1299 60.7986 65.2283 60.4705 65.1736 59.6174C65.0642 58.108 65.6658 56.5439 66.8908 55.1549C67.5799 54.3674 67.6236 54.2689 67.4267 53.8314C67.2408 53.4377 66.8033 53.3283 65.3267 53.3283C64.2002 53.3283 63.9377 53.2955 63.522 53.0986C62.9642 52.8252 62.3845 52.2783 62.122 51.7861C61.8924 51.3268 61.7502 50.4189 61.9033 50.2658C62.0892 50.0799 67.2845 50.1236 67.9408 50.3205C68.6955 50.5502 69.483 51.1846 69.8877 51.9064L70.2267 52.508L70.2595 56.2814C70.3033 60.3283 70.2595 60.7877 69.7674 61.8486C69.6142 62.1658 69.1549 62.833 68.7392 63.3252C67.4595 64.8236 66.7924 66.4971 66.7814 68.1596V68.8268L66.0486 68.958C63.1064 69.4939 60.3064 71.8018 59.1361 74.6455C58.5674 76.0127 58.4252 76.7674 58.4252 78.3752C58.4252 79.983 58.5674 80.7377 59.1361 82.1049C60.022 84.2596 61.9361 86.2174 64.1127 87.1799C65.3924 87.7486 66.3767 87.9346 67.9845 87.9346C69.6252 87.9346 70.4236 87.7814 71.7799 87.2236C72.4361 86.9502 72.633 86.808 72.7642 86.5236C72.9174 86.2064 72.9174 86.1408 72.7533 85.8346C72.5345 85.4189 72.1299 85.2877 71.6595 85.4846C69.997 86.1846 69.4939 86.2939 68.0392 86.3049C66.847 86.3049 66.4861 86.2611 65.797 86.0424C63.5549 85.3533 61.8595 83.9314 60.8752 81.9299C60.2408 80.6611 60.0658 79.8627 60.0658 78.3752C60.0658 76.8877 60.2408 76.0893 60.8752 74.8205C62.8002 70.9049 67.5033 69.2971 71.4299 71.2111C73.1908 72.0643 74.372 73.2674 75.2142 75.0393C76.4174 77.5877 76.1767 80.4205 74.547 82.9252C74.3064 83.2861 74.1095 83.7127 74.1095 83.8768C74.1095 84.2924 74.4705 84.6096 74.9299 84.6096C75.258 84.6096 75.3674 84.533 75.7502 84.0518C76.3189 83.3299 76.9861 81.9518 77.3033 80.8361C77.6533 79.5783 77.6642 77.1721 77.3033 75.9361C76.8002 74.1861 76.0127 72.8299 74.7767 71.583C73.3439 70.1502 71.572 69.2424 69.5158 68.8924L68.422 68.6955V68.1486C68.422 66.858 68.958 65.6002 70.0189 64.3643C70.872 63.3799 71.4189 62.3627 71.7033 61.2471C71.9002 60.4814 71.922 60.033 71.922 56.5111C71.922 52.6939 71.9111 52.6064 71.6595 51.8846C71.3533 51.0205 70.7845 50.2111 70.1064 49.6533L69.6252 49.2596V45.8252C69.6252 41.8221 69.5814 41.5924 68.6408 40.6408C67.7439 39.7549 66.2564 39.4049 65.108 39.8096ZM67.1205 41.5486C67.3174 41.6799 67.6017 41.9643 67.733 42.1611C67.9845 42.5221 67.9845 42.5877 67.9845 45.5955V48.6471L67.7439 48.5814C67.6017 48.5486 66.7924 48.5158 65.9283 48.5158H64.3642L64.397 45.5299L64.4299 42.533L64.7142 42.0955C65.2502 41.2971 66.3658 41.0455 67.1205 41.5486ZM61.7502 42.7408C62.0236 42.883 62.3517 43.1564 62.483 43.3643C62.7236 43.7252 62.7345 43.8236 62.7345 46.1205V48.5158H62.2205C61.247 48.5158 60.4814 49.0736 60.2408 49.9705C60.0002 50.8236 60.4486 52.3768 61.2142 53.3393L61.5533 53.7658H60.9845C60.2845 53.7658 59.7924 53.4924 59.4314 52.9127C59.1799 52.508 59.1799 52.508 59.1799 48.1877C59.1799 43.3971 59.1689 43.4627 59.9127 42.9049C60.5252 42.4455 61.0611 42.3908 61.7502 42.7408ZM56.4127 44.5783C56.6314 44.6439 56.9595 44.8627 57.1455 45.0814L57.4845 45.4643V49.0955C57.4845 52.508 57.4736 52.7486 57.2658 53.0768C57.0033 53.5252 56.533 53.7658 55.9533 53.7658C55.3736 53.7658 54.9361 53.5143 54.6517 53.0002C54.433 52.6064 54.422 52.4314 54.422 49.1502C54.422 45.2236 54.433 45.158 55.297 44.7096C55.8549 44.4361 55.8658 44.4361 56.4127 44.5783ZM52.0705 46.3174C52.7486 46.7002 52.7814 46.8861 52.7814 50.7033C52.7814 53.7658 52.7595 54.1924 52.5845 54.5314C52.0814 55.5377 50.5283 55.5924 49.9377 54.608C49.7299 54.2799 49.7189 54.0393 49.7189 50.7252C49.7189 46.8752 49.7299 46.7877 50.3424 46.3502C50.8674 45.9783 51.4361 45.9674 52.0705 46.3174Z" fill="white"/>
<path d="M41.0014 42.85C40.8702 42.9156 40.7061 43.1125 40.6295 43.2984C40.3998 43.8343 40.6514 44.0968 42.2811 45.0593C43.9108 46.0218 44.3373 46.1312 44.6983 45.6828C44.9827 45.3437 44.9608 44.8843 44.6655 44.6109C44.3264 44.3047 41.778 42.839 41.4827 42.7843C41.3514 42.7515 41.1327 42.7843 41.0014 42.85Z" fill="white"/>
<path d="M78.1014 42.9486C77.106 43.4846 75.5639 44.4033 75.3451 44.6111C74.831 45.0705 75.181 45.9346 75.8701 45.9346C76.3514 45.9236 79.1185 44.3158 79.3482 43.9111C79.556 43.5502 79.3592 43.0252 78.9654 42.8393C78.6045 42.6861 78.6045 42.6861 78.1014 42.9486Z" fill="white"/>
<path d="M37.9059 53.7658C37.6325 54.0392 37.6216 54.5423 37.895 54.8704C38.1028 55.122 38.1575 55.1329 39.9622 55.1658C41.7888 55.1986 41.8216 55.1986 42.1169 54.9361C42.5106 54.597 42.5434 54.0392 42.1825 53.7439C41.9528 53.5689 41.7122 53.547 40.0278 53.547C38.2669 53.547 38.1028 53.5689 37.9059 53.7658Z" fill="white"/>
<path d="M77.8178 53.7439C77.4569 54.0392 77.4897 54.597 77.8834 54.9361C78.1787 55.1986 78.2116 55.1986 80.0381 55.1658C81.8428 55.1329 81.8975 55.122 82.1053 54.8704C82.3787 54.5423 82.3678 54.0392 82.0944 53.7658C81.8975 53.5689 81.7334 53.547 79.9725 53.547C78.2881 53.547 78.0475 53.5689 77.8178 53.7439Z" fill="white"/>
<path d="M42.2812 63.6094C40.7391 64.5172 40.5312 64.6922 40.5312 65.1078C40.5312 65.4469 40.9906 65.9062 41.3187 65.9062C41.625 65.9062 44.4359 64.3422 44.7203 64.025C45.1469 63.5219 44.7531 62.7344 44.075 62.7344C43.8781 62.7453 43.1891 63.0734 42.2812 63.6094Z" fill="white"/>
<path d="M75.3346 62.9859C75.0612 63.2703 75.0284 63.6859 75.2362 63.9703C75.433 64.2547 78.3862 65.9062 78.6815 65.9062C78.9987 65.9062 79.469 65.4469 79.469 65.1406C79.469 64.7031 79.2502 64.5063 77.7299 63.6203C76.0784 62.6578 75.7284 62.5703 75.3346 62.9859Z" fill="white"/>
<path d="M52.0047 73.114L51.6875 73.4312V80.3437C51.6875 86.1843 51.7094 87.289 51.8516 87.5515C52.1031 88.0546 52.5734 88.1421 53.0437 87.7703L53.3281 87.5515V80.3984V73.2453L53.0437 73.0265C52.65 72.7203 52.3875 72.7421 52.0047 73.114Z" fill="white"/>
<path d="M71.4297 74.3385C71.3094 74.4041 70.2266 75.7495 69.0234 77.3354C67.8203 78.9323 66.8031 80.2229 66.7594 80.201C66.7156 80.1901 66.2672 79.5885 65.7422 78.8666C64.7359 77.4666 64.4406 77.226 63.9156 77.412C63.5656 77.5323 63.3906 77.7948 63.3906 78.1776C63.3906 78.5166 66.0922 82.2135 66.475 82.3885C66.6609 82.487 66.8469 82.4979 67.0219 82.4323C67.4047 82.2901 72.5016 75.5745 72.5562 75.1479C72.6328 74.5463 71.9656 74.0651 71.4297 74.3385Z" fill="white"/>
<defs>
<linearGradient id="paint0_linear_77_1207" x1="108.649" y1="-6.48649" x2="-11.3514" y2="126.486" gradientUnits="userSpaceOnUse">
<stop stop-color="#0060AA"/>
<stop offset="1" stop-color="#0E94FB"/>
</linearGradient>
</defs>
</svg>
