<svg width="120" height="120" viewBox="0 0 120 120" fill="none" xmlns="http://www.w3.org/2000/svg">
<circle cx="60" cy="60" r="60" fill="url(#paint0_linear_77_1196)"/>
<path d="M61.4767 37.5348C57.4736 38.0926 53.4486 39.8098 50.3751 42.2707C49.4564 43.0035 47.6736 44.7644 46.908 45.6941C46.5798 46.0988 46.033 46.8535 45.683 47.3785L45.0486 48.3191L41.5267 48.3082L38.0048 48.2863L37.6876 48.6144C37.283 49.0082 37.272 49.3801 37.622 49.7957L37.8845 50.1019L41.0126 50.1566L44.1408 50.2113L43.5392 51.4582C43.1783 52.2129 42.9376 52.8473 42.9376 53.066C42.9376 53.7441 43.6158 54.1488 44.2173 53.8316C44.4908 53.7004 44.7095 53.3176 45.497 51.6223C46.022 50.4957 46.6783 49.2269 46.9517 48.8004C50.8126 42.8066 57.3751 39.2191 64.4845 39.2191C68.4876 39.2191 72.1517 40.2801 75.6298 42.4457C78.0908 43.9769 80.6392 46.5582 82.1923 49.0957C86.808 56.6426 86.1736 66.3113 80.6173 73.1254C79.797 74.1316 77.9267 75.9254 76.9533 76.6473C73.2673 79.3707 69.0017 80.7816 64.4517 80.7816C59.2017 80.7816 54.4767 78.9441 50.397 75.3238C49.0189 74.0988 48.8111 74.0223 48.2861 74.5363C47.7939 75.0394 47.8595 75.3238 48.658 76.1551C50.5283 78.1129 53.5361 80.0707 56.358 81.1644C60.2298 82.6519 64.9111 83.0348 69.0017 82.1926C75.9689 80.7488 81.8205 76.1879 84.8939 69.7894C89.0611 61.1379 87.3001 50.8129 80.508 43.9988C77.1501 40.641 73.0267 38.5082 68.1486 37.6332C66.7158 37.3707 63.0298 37.316 61.4767 37.5348Z" fill="white"/>
<path d="M63.8937 44.2609L63.6094 44.4797V52.4422V60.3938L63.9703 60.7328C64.1562 60.9188 65.7859 62.2531 67.5797 63.7078C70.4453 66.0156 70.8937 66.3438 71.2219 66.3438C71.9 66.3438 72.3484 65.6328 72.0312 65.0422C71.9766 64.9328 70.4562 63.6422 68.6406 62.1766L65.3594 59.5188V52.0156V44.5016L65.1078 44.2719C64.7797 43.9656 64.2766 43.9656 63.8937 44.2609Z" fill="white"/>
<path d="M33.1151 58.5788C32.601 59.06 32.7651 59.8694 33.4323 60.0991C33.662 60.1756 35.1495 60.2194 37.8073 60.2194H41.8432V60.7335C41.8432 61.5647 42.051 63.2053 42.1823 63.4678C42.4448 63.971 43.2541 64.0475 43.6588 63.5991C43.8776 63.3585 43.8885 63.1506 43.7573 61.4444L43.6698 60.2194H47.3338C51.1073 60.2194 51.5885 60.1756 51.7963 59.7819C51.9932 59.41 51.9276 58.8522 51.6541 58.6006L51.4026 58.36H42.3791C33.4651 58.36 33.3557 58.36 33.1151 58.5788Z" fill="white"/>
<path d="M80.8129 59.4094C80.5832 59.6391 80.5504 59.7594 80.605 60.0875C80.6816 60.6016 81.0097 60.875 81.5675 60.875C82.1254 60.875 82.3769 60.7328 82.5082 60.3281C82.6504 59.9344 82.4972 59.3875 82.2019 59.2344C81.7972 59.0156 81.1191 59.1031 80.8129 59.4094Z" fill="white"/>
<path d="M37.4786 68.4875C37.0411 68.8484 37.0083 69.3953 37.413 69.7891C37.6646 70.0516 37.7521 70.0625 38.8896 70.0625C39.9396 70.0625 40.1146 70.0406 40.3114 69.8438C40.7817 69.3734 40.6833 68.6406 40.0927 68.3453C39.9286 68.2688 39.4036 68.2031 38.813 68.2031C37.8942 68.2031 37.7849 68.225 37.4786 68.4875Z" fill="white"/>
<path d="M44.5221 68.3344C43.9643 68.6625 43.8549 69.3516 44.3033 69.7891L44.5658 70.0625H50.0455H55.5361L55.8643 69.7344C56.1377 69.45 56.1815 69.3406 56.1268 69.0453C56.083 68.8484 55.9627 68.5969 55.8315 68.4766C55.6236 68.2688 55.4596 68.2578 50.1768 68.2359C46.2065 68.2141 44.6861 68.2359 44.5221 68.3344Z" fill="white"/>
<path d="M63.8939 75.7609C63.5002 76.0671 63.4783 76.9093 63.8611 77.2593C64.2111 77.5874 64.8127 77.5765 65.1189 77.2484C65.4799 76.8656 65.458 76.0562 65.0752 75.7609C64.9111 75.6296 64.6486 75.5312 64.4845 75.5312C64.3205 75.5312 64.058 75.6296 63.8939 75.7609Z" fill="white"/>
<defs>
<linearGradient id="paint0_linear_77_1196" x1="108.649" y1="-6.48649" x2="-11.3514" y2="126.486" gradientUnits="userSpaceOnUse">
<stop stop-color="#0060AA"/>
<stop offset="1" stop-color="#0E94FB"/>
</linearGradient>
</defs>
</svg>
