<svg width="174" height="40" viewBox="0 0 174 40" fill="none" xmlns="http://www.w3.org/2000/svg">
<mask id="mask0_434_538" style="mask-type:luminance" maskUnits="userSpaceOnUse" x="0" y="0" width="174" height="40">
<path d="M173.886 0H0V39.8732H173.886V0Z" fill="white"/>
</mask>
<g mask="url(#mask0_434_538)">
<path fill-rule="evenodd" clip-rule="evenodd" d="M67.3542 17.987L72.077 15.8984L72.6153 20.9508L71.3599 20.0556C69.148 25.1478 64.0661 28.7083 58.148 28.7083C57.7694 28.7083 57.3908 28.6884 57.0117 28.6685C61.8342 26.8584 65.9595 23.8946 69.0879 19.1406L67.3542 17.987Z" fill="url(#paint0_linear_434_538)"/>
<path fill-rule="evenodd" clip-rule="evenodd" d="M63.5476 9.97078L70.3226 5.59473L71.3391 13.213L69.3461 12.2781C65.6799 18.9815 59.6817 25.9633 54.5007 26.8783C51.7106 27.5347 48.5821 25.3267 47.207 23.6559C52.3882 25.6052 58.0677 24.4316 65.9388 10.8858L63.5476 9.97078Z" fill="url(#paint1_linear_434_538)"/>
<path fill-rule="evenodd" clip-rule="evenodd" d="M55.8357 13.6314L53.9222 12.5175L59.8008 9.55371L60.3787 15.899L58.7051 15.0238C56.6524 19.0816 53.3644 21.9061 49.5783 22.304C47.6653 22.5029 45.832 21.9658 44.6562 19.3402C47.2468 21.2497 52.5475 20.1756 55.8357 13.6314Z" fill="url(#paint2_linear_434_538)"/>
<path fill-rule="evenodd" clip-rule="evenodd" d="M55.0603 1.57726C57.7304 0.642379 60.5002 0.582705 63.3896 0.980527C61.7556 0.344009 60.0019 0.00585938 58.1491 0.00585938C50.2178 0.00585938 43.7812 6.43072 43.7812 14.3474C43.8809 15.6602 44.678 16.8338 45.8936 17.0725C47.5674 17.331 49.1616 15.9586 50.5765 13.8103L51.6526 14.5463L51.7522 10.4885L48.1055 12.2986L49.2015 12.8556C48.3845 13.9893 47.3483 14.9441 46.591 14.8049C45.6943 14.6259 45.5747 13.2335 45.9533 11.125C46.9895 6.78877 50.9152 3.04921 55.0603 1.57726Z" fill="url(#paint3_linear_434_538)"/>
<path d="M17.1648 -1.30859V25.2595H13.7828L3.12533 4.76776V25.2595H-0.238281V-1.30859H3.12533L13.8377 19.2379V-1.30859H17.1648Z" fill="url(#paint4_linear_434_538)"/>
<path d="M38.9855 22.3947V25.2595H27.4322V22.3947H38.9855ZM28.0355 -1.30859V25.2595H24.6719V-1.30859H28.0355ZM37.4317 10.1142V12.979H27.4322V10.1142H37.4317ZM38.8027 -1.30859V1.57448H27.4322V-1.30859H38.8027Z" fill="url(#paint5_linear_434_538)"/>
<path d="M85.9744 -1.30859V25.2595H82.6473V-1.30859H85.9744ZM92.976 -1.30859V1.57448H75.6641V-1.30859H92.976Z" fill="url(#paint6_linear_434_538)"/>
<path d="M114.231 22.3947V25.2595H102.678V22.3947H114.231ZM103.281 -1.30859V25.2595H99.918V-1.30859H103.281ZM112.678 10.1142V12.979H102.678V10.1142H112.678ZM114.049 -1.30859V1.57448H102.678V-1.30859H114.049Z" fill="url(#paint7_linear_434_538)"/>
<path d="M121.039 -1.30859H128.479C130.21 -1.30859 131.66 -1.00447 132.83 -0.39623C134.012 0.212014 134.902 1.11222 135.499 2.30437C136.108 3.48436 136.413 4.93807 136.413 6.66547C136.413 7.882 136.212 8.99505 135.81 10.0047C135.407 11.0023 134.822 11.8538 134.055 12.5594C133.287 13.2528 132.354 13.7698 131.258 14.1104L130.344 14.4936H123.708L123.671 11.6287H128.442C129.466 11.6287 130.32 11.4098 131.002 10.9718C131.684 10.5217 132.196 9.91958 132.537 9.16536C132.878 8.41115 133.049 7.57784 133.049 6.66547C133.049 5.64363 132.897 4.74951 132.592 3.98313C132.287 3.21674 131.8 2.62674 131.13 2.21314C130.471 1.78736 129.588 1.57448 128.479 1.57448H124.403V25.2595H121.039V-1.30859ZM133.817 25.2595L128.516 13.2163L132.007 13.198L137.418 25.0405V25.2595H133.817Z" fill="url(#paint8_linear_434_538)"/>
<path d="M147.985 -1.30859V25.2595H144.621V-1.30859H147.985Z" fill="url(#paint9_linear_434_538)"/>
<path d="M167.884 16.8107H171.248C171.162 18.6354 170.791 20.2108 170.133 21.5368C169.487 22.8506 168.542 23.8602 167.299 24.5658C166.068 25.2714 164.527 25.6242 162.674 25.6242C161.346 25.6242 160.145 25.3626 159.073 24.8396C158 24.3164 157.08 23.5683 156.312 22.5951C155.557 21.6098 154.978 20.4298 154.576 19.0551C154.174 17.6805 153.973 16.1356 153.973 14.4203V9.51176C153.973 7.80871 154.174 6.26981 154.576 4.8952C154.99 3.52057 155.581 2.34666 156.349 1.37347C157.129 0.388118 158.073 -0.366105 159.183 -0.889197C160.304 -1.41229 161.571 -1.67383 162.985 -1.67383C164.715 -1.67383 166.178 -1.32713 167.372 -0.633733C168.579 0.0475012 169.505 1.0511 170.15 2.37708C170.809 3.69088 171.174 5.30271 171.248 7.2126H167.884C167.799 5.81366 167.579 4.67624 167.226 3.80037C166.872 2.91233 166.348 2.26151 165.654 1.8479C164.971 1.42214 164.082 1.20925 162.985 1.20925C162.01 1.20925 161.163 1.40389 160.444 1.79316C159.737 2.18244 159.152 2.74202 158.689 3.47191C158.238 4.18964 157.897 5.05943 157.665 6.08129C157.446 7.09097 157.336 8.22229 157.336 9.47529V14.4203C157.336 15.5881 157.427 16.6769 157.61 17.6866C157.805 18.6962 158.11 19.5843 158.524 20.3507C158.951 21.1049 159.505 21.6949 160.188 22.1207C160.87 22.5464 161.699 22.7593 162.674 22.7593C163.905 22.7593 164.88 22.5586 165.599 22.1572C166.318 21.7557 166.848 21.1171 167.189 20.2412C167.543 19.3653 167.774 18.2218 167.884 16.8107Z" fill="url(#paint10_linear_434_538)"/>
<path d="M35.9049 32.8038V39.4237H35.0759V32.8038H35.9049ZM37.6494 32.8038V33.5222H33.3359V32.8038H37.6494ZM42.1952 38.7098V39.4237H39.3165V38.7098H42.1952ZM39.4668 32.8038V39.4237H38.6287V32.8038H39.4668ZM41.808 35.65V36.3638H39.3165V35.65H41.808ZM42.1496 32.8038V33.5222H39.3165V32.8038H42.1496ZM46.5861 37.3186H47.4242C47.4029 37.7733 47.3103 38.1658 47.1463 38.4962C46.9854 38.8235 46.7501 39.0751 46.4403 39.2509C46.1336 39.4267 45.7495 39.5146 45.2879 39.5146C44.9569 39.5146 44.6579 39.4494 44.3906 39.3191C44.1234 39.1888 43.8942 39.0024 43.7029 38.7599C43.5146 38.5144 43.3704 38.2204 43.2701 37.8778C43.1699 37.5353 43.1198 37.1504 43.1198 36.723V35.4999C43.1198 35.0756 43.1699 34.6922 43.2701 34.3497C43.3734 34.0072 43.5206 33.7147 43.7119 33.4722C43.9063 33.2267 44.1416 33.0387 44.4179 32.9084C44.6973 32.778 45.0131 32.7129 45.3653 32.7129C45.7966 32.7129 46.161 32.7993 46.4585 32.972C46.7591 33.1418 46.9899 33.3918 47.1509 33.7223C47.3148 34.0496 47.4059 34.4512 47.4242 34.9271H46.5861C46.5648 34.5785 46.5102 34.2951 46.4221 34.0769C46.3341 33.8556 46.2034 33.6934 46.0304 33.5904C45.8604 33.4843 45.6387 33.4313 45.3653 33.4313C45.1224 33.4313 44.9114 33.4797 44.7323 33.5767C44.5561 33.6737 44.4104 33.8132 44.295 33.9951C44.1826 34.1738 44.0976 34.3906 44.0399 34.6452C43.9853 34.8968 43.9579 35.1787 43.9579 35.4908V36.723C43.9579 37.014 43.9807 37.2853 44.0262 37.5368C44.0748 37.7884 44.1507 38.0097 44.254 38.2006C44.3603 38.3886 44.4984 38.5356 44.6685 38.6417C44.8385 38.7477 45.045 38.8008 45.2879 38.8008C45.5946 38.8008 45.8376 38.7508 46.0167 38.6507C46.1959 38.5507 46.328 38.3916 46.413 38.1734C46.501 37.9551 46.5587 37.6702 46.5861 37.3186ZM52.1567 35.65V36.3638H49.2826V35.65H52.1567ZM49.3965 32.8038V39.4237H48.5584V32.8038H49.3965ZM52.8989 32.8038V39.4237H52.061V32.8038H52.8989ZM58.6794 32.8038V39.4237H57.8368L55.1809 34.3178V39.4237H54.3431V32.8038H55.1809L57.8505 37.9233V32.8038H58.6794ZM64.4414 35.5409V36.6912C64.4414 37.1579 64.3897 37.5687 64.2864 37.9233C64.1862 38.2749 64.0391 38.5689 63.8445 38.8054C63.65 39.0418 63.4164 39.2191 63.1432 39.3373C62.8696 39.4555 62.5617 39.5146 62.2184 39.5146C61.8873 39.5146 61.5852 39.4555 61.312 39.3373C61.0389 39.2191 60.8032 39.0418 60.606 38.8054C60.4088 38.5689 60.2554 38.2749 60.1457 37.9233C60.0397 37.5687 59.9865 37.1579 59.9865 36.6912V35.5409C59.9865 35.0741 60.0397 34.6649 60.1457 34.3133C60.2522 33.9587 60.4041 33.6632 60.6013 33.4267C60.799 33.1903 61.0342 33.0129 61.3073 32.8947C61.5809 32.7735 61.8831 32.7129 62.2137 32.7129C62.5569 32.7129 62.8654 32.7735 63.1385 32.8947C63.4148 33.0129 63.6484 33.1903 63.8398 33.4267C64.0343 33.6632 64.183 33.9587 64.2864 34.3133C64.3897 34.6649 64.4414 35.0741 64.4414 35.5409ZM63.612 36.6912V35.5318C63.612 35.1681 63.5819 34.8558 63.5213 34.5952C63.4601 34.3315 63.371 34.1163 63.2524 33.9496C63.1338 33.7828 62.9882 33.6601 62.8153 33.5813C62.6418 33.4995 62.4414 33.4585 62.2137 33.4585C61.998 33.4585 61.804 33.4995 61.631 33.5813C61.4607 33.6601 61.3152 33.7828 61.1934 33.9496C61.0721 34.1163 60.9777 34.3315 60.9113 34.5952C60.8475 34.8558 60.8153 35.1681 60.8153 35.5318V36.6912C60.8153 37.0579 60.8475 37.3732 60.9113 37.6368C60.9777 37.8975 61.0721 38.1127 61.1934 38.2825C61.3178 38.4492 61.467 38.5735 61.64 38.6553C61.8129 38.7341 62.0059 38.7735 62.2184 38.7735C62.4462 38.7735 62.6466 38.7341 62.8195 38.6553C62.9956 38.5735 63.1417 38.4492 63.2571 38.2825C63.3752 38.1127 63.4633 37.8975 63.5213 37.6368C63.5819 37.3732 63.612 37.0579 63.612 36.6912ZM69.1784 38.7098V39.4237H66.4271V38.7098H69.1784ZM66.5774 32.8038V39.4237H65.7395V32.8038H66.5774ZM74.1886 35.5409V36.6912C74.1886 37.1579 74.1369 37.5687 74.0335 37.9233C73.9333 38.2749 73.7862 38.5689 73.5917 38.8054C73.3976 39.0418 73.1635 39.2191 72.8904 39.3373C72.6173 39.4555 72.3088 39.5146 71.9656 39.5146C71.635 39.5146 71.3328 39.4555 71.0592 39.3373C70.7861 39.2191 70.5509 39.0418 70.3532 38.8054C70.156 38.5689 70.0025 38.2749 69.8934 37.9233C69.7869 37.5687 69.7342 37.1579 69.7342 36.6912V35.5409C69.7342 35.0741 69.7869 34.6649 69.8934 34.3133C69.9994 33.9587 70.1512 33.6632 70.349 33.4267C70.5462 33.1903 70.7813 33.0129 71.055 32.8947C71.3281 32.7735 71.6302 32.7129 71.9614 32.7129C72.3046 32.7129 72.6125 32.7735 72.8857 32.8947C73.1625 33.0129 73.3961 33.1903 73.5875 33.4267C73.7815 33.6632 73.9307 33.9587 74.0335 34.3133C74.1369 34.6649 74.1886 35.0741 74.1886 35.5409ZM73.3597 36.6912V35.5318C73.3597 35.1681 73.3291 34.8558 73.2685 34.5952C73.2078 34.3315 73.1182 34.1163 72.9995 33.9496C72.8814 33.7828 72.7354 33.6601 72.5624 33.5813C72.3895 33.4995 72.1891 33.4585 71.9614 33.4585C71.7457 33.4585 71.5511 33.4995 71.3782 33.5813C71.2084 33.6601 71.0624 33.7828 70.9411 33.9496C70.8193 34.1163 70.7254 34.3315 70.6585 34.5952C70.5947 34.8558 70.563 35.1681 70.563 35.5318V36.6912C70.563 37.0579 70.5947 37.3732 70.6585 37.6368C70.7254 37.8975 70.8193 38.1127 70.9411 38.2825C71.0655 38.4492 71.2142 38.5735 71.3872 38.6553C71.5606 38.7341 71.7531 38.7735 71.9656 38.7735C72.1934 38.7735 72.3937 38.7341 72.5672 38.6553C72.7433 38.5735 72.8888 38.4492 73.0043 38.2825C73.1229 38.1127 73.211 37.8975 73.2685 37.6368C73.3291 37.3732 73.3597 37.0579 73.3597 36.6912ZM79.6406 36.1274V38.5962C79.5678 38.6932 79.4571 38.8144 79.3084 38.9599C79.1623 39.1054 78.9577 39.2343 78.6936 39.3464C78.4294 39.4585 78.083 39.5146 77.6548 39.5146C77.3116 39.5146 76.9973 39.457 76.7121 39.3418C76.4295 39.2267 76.1853 39.0539 75.9786 38.8235C75.7751 38.5902 75.6175 38.3007 75.5051 37.9551C75.3928 37.6066 75.3364 37.1989 75.3364 36.7321V35.4908C75.3364 35.0271 75.3834 34.6209 75.4777 34.2724C75.5716 33.9238 75.7113 33.6343 75.8969 33.404C76.0852 33.1736 76.3172 33.0008 76.5934 32.8857C76.8729 32.7705 77.1977 32.7129 77.5684 32.7129C77.9965 32.7129 78.3609 32.7932 78.6614 32.9538C78.962 33.1145 79.1945 33.3464 79.3585 33.6495C79.5256 33.9526 79.6195 34.3163 79.6406 34.7407H78.8027C78.7816 34.4679 78.7236 34.2345 78.6298 34.0405C78.5354 33.8435 78.402 33.6934 78.2285 33.5904C78.0556 33.4843 77.8357 33.4313 77.5684 33.4313C77.3132 33.4313 77.0975 33.4737 76.9214 33.5586C76.7453 33.6434 76.6013 33.7707 76.489 33.9405C76.3794 34.1102 76.2992 34.3239 76.2476 34.5815C76.199 34.8392 76.1743 35.1393 76.1743 35.4818V36.7321C76.1743 37.0837 76.2096 37.3898 76.2792 37.6505C76.3493 37.9112 76.4479 38.1264 76.5755 38.2961C76.7057 38.4658 76.8624 38.5932 77.0443 38.678C77.2267 38.7599 77.4318 38.8008 77.6596 38.8008C77.9174 38.8008 78.121 38.7735 78.2696 38.7189C78.4183 38.6644 78.5322 38.6023 78.6113 38.5325C78.6936 38.4628 78.7584 38.4067 78.8075 38.3643V36.8367H77.591V36.1274H79.6406ZM81.8725 32.8038V39.4237H81.0347V32.8038H81.8725ZM86.8969 38.7098V39.4237H84.018V38.7098H86.8969ZM84.1682 32.8038V39.4237H83.3304V32.8038H84.1682ZM86.5093 35.65V36.3638H84.018V35.65H86.5093ZM86.851 32.8038V33.5222H84.018V32.8038H86.851ZM90.8683 37.7505C90.8683 37.5959 90.8504 37.4595 90.814 37.3413C90.7776 37.2201 90.7138 37.111 90.6226 37.014C90.5314 36.917 90.4038 36.8245 90.2398 36.7366C90.0758 36.6487 89.8681 36.5593 89.616 36.4684C89.3429 36.3714 89.0951 36.2638 88.8736 36.1456C88.6516 36.0243 88.4618 35.8864 88.3042 35.7318C88.1492 35.5773 88.0295 35.3999 87.9446 35.1999C87.8592 34.9998 87.817 34.771 87.817 34.5134C87.817 34.2557 87.8607 34.0178 87.9488 33.7995C88.04 33.5813 88.1676 33.3918 88.3316 33.2312C88.4987 33.0675 88.6991 32.9402 88.9327 32.8493C89.1668 32.7584 89.4278 32.7129 89.7162 32.7129C90.1475 32.7129 90.5103 32.8084 90.805 32.9993C91.1024 33.1873 91.327 33.4343 91.4789 33.7404C91.6307 34.0435 91.7067 34.3678 91.7067 34.7134H90.8683C90.8683 34.4648 90.8277 34.2451 90.7454 34.0542C90.6664 33.8602 90.5419 33.7086 90.3721 33.5995C90.205 33.4873 89.9862 33.4313 89.7162 33.4313C89.4731 33.4313 89.2728 33.4783 89.1151 33.5722C88.9601 33.6662 88.8446 33.7935 88.7687 33.9541C88.6959 34.1147 88.6595 34.2982 88.6595 34.5043C88.6595 34.6437 88.6838 34.771 88.7323 34.8862C88.7808 34.9983 88.8552 35.1029 88.9554 35.1999C89.0587 35.2969 89.1863 35.3863 89.3382 35.4682C89.4932 35.55 89.6751 35.6288 89.8849 35.7046C90.2097 35.8106 90.4876 35.9288 90.718 36.0592C90.949 36.1895 91.1372 36.3365 91.2833 36.5002C91.4288 36.6608 91.5353 36.8443 91.6017 37.0504C91.6719 37.2534 91.7067 37.4838 91.7067 37.7414C91.7067 38.0112 91.6613 38.2552 91.5701 38.4734C91.482 38.6917 91.3529 38.8781 91.1831 39.0327C91.0128 39.1873 90.8077 39.307 90.5677 39.3918C90.3278 39.4737 90.0579 39.5146 89.7573 39.5146C89.4958 39.5146 89.2396 39.4722 88.9875 39.3873C88.7381 39.3024 88.5119 39.1752 88.3089 39.0054C88.1054 38.8356 87.943 38.6265 87.8212 38.3779C87.6999 38.1264 87.6393 37.8354 87.6393 37.505H88.4771C88.4771 37.7324 88.5109 37.9278 88.5773 38.0915C88.6443 38.2522 88.7371 38.3855 88.8552 38.4916C88.9738 38.5977 89.1088 38.6765 89.2606 38.728C89.4157 38.7765 89.5812 38.8008 89.7573 38.8008C89.9999 38.8008 90.2034 38.7584 90.3674 38.6735C90.5345 38.5886 90.659 38.4674 90.7412 38.3098C90.8261 38.1522 90.8683 37.9657 90.8683 37.7505ZM97.0585 36.8276H95.6101V36.1137H97.0585C97.3321 36.1137 97.552 36.0592 97.7192 35.95C97.8889 35.8409 98.0123 35.6894 98.0882 35.4954C98.1668 35.3014 98.2064 35.0802 98.2064 34.8316C98.2064 34.6043 98.1668 34.3906 98.0882 34.1905C98.0123 33.9905 97.8889 33.8298 97.7192 33.7086C97.552 33.5843 97.3321 33.5222 97.0585 33.5222H95.783V39.4237H94.9452V32.8038H97.0585C97.4866 32.8038 97.8483 32.8902 98.1425 33.063C98.4373 33.2357 98.6603 33.4752 98.8122 33.7814C98.9672 34.0845 99.0447 34.4315 99.0447 34.8225C99.0447 35.2468 98.9672 35.6091 98.8122 35.9092C98.6603 36.2092 98.4373 36.4381 98.1425 36.5957C97.8483 36.7503 97.4866 36.8276 97.0585 36.8276ZM101.942 38.4189L103.536 32.8038H104.447L102.388 39.4237H101.745L101.942 38.4189ZM100.511 32.8038L102.092 38.4189L102.301 39.4237H101.659L99.6005 32.8038H100.511ZM107.48 32.8038V39.4237H106.651V32.8038H107.48ZM109.225 32.8038V33.5222H104.911V32.8038H109.225ZM109.152 38.9781C109.152 38.8356 109.196 38.7159 109.284 38.6189C109.375 38.5189 109.506 38.4689 109.676 38.4689C109.846 38.4689 109.975 38.5189 110.063 38.6189C110.154 38.7159 110.199 38.8356 110.199 38.9781C110.199 39.1175 110.154 39.2357 110.063 39.3327C109.975 39.4297 109.846 39.4783 109.676 39.4783C109.506 39.4783 109.375 39.4297 109.284 39.3327C109.196 39.2357 109.152 39.1175 109.152 38.9781ZM117.25 38.7098V39.4237H114.499V38.7098H117.25ZM114.649 32.8038V39.4237H113.812V32.8038H114.649ZM119.122 32.8038V39.4237H118.293V32.8038H119.122ZM120.867 32.8038V33.5222H116.553V32.8038H120.867ZM123.349 39.4237H122.22L122.229 38.7098H123.349C123.747 38.7098 124.071 38.6341 124.32 38.4825C124.568 38.3279 124.752 38.1006 124.871 37.8005C124.989 37.4974 125.048 37.1231 125.048 36.6775V35.5454C125.048 35.1938 125.015 34.8907 124.948 34.6361C124.881 34.3815 124.781 34.1724 124.647 34.0087C124.514 33.845 124.345 33.7237 124.142 33.6449C123.938 33.5631 123.7 33.5222 123.427 33.5222H122.197V32.8038H123.427C123.8 32.8038 124.137 32.8629 124.438 32.9812C124.739 33.0963 124.997 33.2706 125.212 33.504C125.428 33.7344 125.592 34.0208 125.704 34.3633C125.82 34.7058 125.877 35.1029 125.877 35.5545V36.6775C125.877 37.1292 125.82 37.5262 125.704 37.8687C125.592 38.2113 125.426 38.4977 125.207 38.728C124.989 38.9584 124.723 39.1327 124.411 39.2509C124.101 39.3661 123.747 39.4237 123.349 39.4237ZM122.684 32.8038V39.4237H121.846V32.8038H122.684ZM126.652 38.9781C126.652 38.8356 126.695 38.7159 126.783 38.6189C126.875 38.5189 127.005 38.4689 127.175 38.4689C127.346 38.4689 127.475 38.5189 127.563 38.6189C127.653 38.7159 127.699 38.8356 127.699 38.9781C127.699 39.1175 127.653 39.2357 127.563 39.3327C127.475 39.4297 127.346 39.4783 127.175 39.4783C127.005 39.4783 126.875 39.4297 126.783 39.3327C126.695 39.2357 126.652 39.1175 126.652 38.9781Z" fill="url(#paint11_linear_434_538)"/>
</g>
<defs>
<linearGradient id="paint0_linear_434_538" x1="71.1393" y1="15.206" x2="58.8201" y2="31.8341" gradientUnits="userSpaceOnUse">
<stop stop-color="#0060AA"/>
<stop offset="1" stop-color="#0E94FB"/>
</linearGradient>
<linearGradient id="paint1_linear_434_538" x1="69.0564" y1="4.43786" x2="48.0642" y2="30.6667" gradientUnits="userSpaceOnUse">
<stop stop-color="#0060AA"/>
<stop offset="1" stop-color="#0E94FB"/>
</linearGradient>
<linearGradient id="paint2_linear_434_538" x1="58.8914" y1="8.86248" x2="46.6274" y2="25.5711" gradientUnits="userSpaceOnUse">
<stop stop-color="#0060AA"/>
<stop offset="1" stop-color="#0E94FB"/>
</linearGradient>
<linearGradient id="paint3_linear_434_538" x1="61.5348" y1="-0.918345" x2="44.8289" y2="20.3118" gradientUnits="userSpaceOnUse">
<stop stop-color="#0060AA"/>
<stop offset="1" stop-color="#0E94FB"/>
</linearGradient>
<linearGradient id="paint4_linear_434_538" x1="15.5185" y1="-2.74471" x2="-9.875" y2="15.6872" gradientUnits="userSpaceOnUse">
<stop stop-color="#0060AA"/>
<stop offset="1" stop-color="#0E94FB"/>
</linearGradient>
<linearGradient id="paint5_linear_434_538" x1="37.6315" y1="-2.74471" x2="14.1213" y2="11.2908" gradientUnits="userSpaceOnUse">
<stop stop-color="#0060AA"/>
<stop offset="1" stop-color="#0E94FB"/>
</linearGradient>
<linearGradient id="paint6_linear_434_538" x1="91.3384" y1="-2.74471" x2="65.9864" y2="15.5607" gradientUnits="userSpaceOnUse">
<stop stop-color="#0060AA"/>
<stop offset="1" stop-color="#0E94FB"/>
</linearGradient>
<linearGradient id="paint7_linear_434_538" x1="112.877" y1="-2.74471" x2="89.3673" y2="11.2904" gradientUnits="userSpaceOnUse">
<stop stop-color="#0060AA"/>
<stop offset="1" stop-color="#0E94FB"/>
</linearGradient>
<linearGradient id="paint8_linear_434_538" x1="135.869" y1="-2.74471" x2="110.989" y2="14.252" gradientUnits="userSpaceOnUse">
<stop stop-color="#0060AA"/>
<stop offset="1" stop-color="#0E94FB"/>
</linearGradient>
<linearGradient id="paint9_linear_434_538" x1="147.666" y1="-2.74471" x2="140.318" y2="-1.71378" gradientUnits="userSpaceOnUse">
<stop stop-color="#0060AA"/>
<stop offset="1" stop-color="#0E94FB"/>
</linearGradient>
<linearGradient id="paint10_linear_434_538" x1="169.614" y1="-3.1494" x2="143.814" y2="14.9428" gradientUnits="userSpaceOnUse">
<stop stop-color="#0060AA"/>
<stop offset="1" stop-color="#0E94FB"/>
</linearGradient>
<linearGradient id="paint11_linear_434_538" x1="118.773" y1="32.3452" x2="117.887" y2="45.9628" gradientUnits="userSpaceOnUse">
<stop stop-color="#0060AA"/>
<stop offset="1" stop-color="#0E94FB"/>
</linearGradient>
</defs>
</svg>
