<svg width="174" height="43" viewBox="0 0 174 43" fill="none" xmlns="http://www.w3.org/2000/svg">
<g clip-path="url(#clip0_105_2189)">
<mask id="mask0_105_2189" style="mask-type:luminance" maskUnits="userSpaceOnUse" x="0" y="-1" width="174" height="44">
<path d="M173.886 -0.0500488H0V42.87H173.886V-0.0500488Z" fill="white"/>
</mask>
<g mask="url(#mask0_105_2189)">
<path fill-rule="evenodd" clip-rule="evenodd" d="M67.3542 20.4369L72.077 18.2961L72.6153 23.4748L71.3599 22.5573C69.148 27.7767 64.0661 31.4263 58.148 31.4263C57.7694 31.4263 57.3908 31.4059 57.0117 31.3855C61.8342 29.5301 65.9595 26.4923 69.0879 21.6194L67.3542 20.4369Z" fill="white"/>
<path fill-rule="evenodd" clip-rule="evenodd" d="M63.5476 12.2203L70.3226 7.73486L71.3391 15.5436L69.3461 14.5854C65.6799 21.4563 59.6817 28.6126 54.5007 29.5505C51.7106 30.2233 48.5821 27.9602 47.207 26.2476C52.3882 28.2456 58.0677 27.0427 65.9388 13.1582L63.5476 12.2203Z" fill="white"/>
<path fill-rule="evenodd" clip-rule="evenodd" d="M55.8357 15.9717L53.9222 14.83L59.8008 11.7921L60.3787 18.296L58.7051 17.3989C56.6524 21.5582 53.3644 24.4533 49.5783 24.8611C47.6653 25.065 45.832 24.5145 44.6562 21.8232C47.2468 23.7805 52.5475 22.6796 55.8357 15.9717Z" fill="white"/>
<path fill-rule="evenodd" clip-rule="evenodd" d="M55.0603 3.61643C57.7304 2.65817 60.5002 2.597 63.3896 3.00477C61.7556 2.35234 60.0019 2.00574 58.1491 2.00574C50.2178 2.00574 43.7812 8.59122 43.7812 16.7058C43.8809 18.0514 44.678 19.2543 45.8936 19.499C47.5674 19.764 49.1616 18.3573 50.5765 16.1553L51.6526 16.9097L51.7522 12.7504L48.1055 14.6058L49.2015 15.1767C48.3845 16.3388 47.3483 17.3175 46.591 17.1747C45.6943 16.9913 45.5747 15.564 45.9533 13.4029C46.9895 8.95822 50.9152 5.12517 55.0603 3.61643Z" fill="white"/>
<path d="M17.1648 0.658447V27.8908H13.7828L3.12533 6.88671V27.8908H-0.238281V0.658447H3.12533L13.8377 21.7186V0.658447H17.1648Z" fill="white"/>
<path d="M38.9855 24.9543V27.8908H27.4322V24.9543H38.9855ZM28.0355 0.658447V27.8908H24.6719V0.658447H28.0355ZM37.4317 12.3668V15.3033H27.4322V12.3668H37.4317ZM38.8027 0.658447V3.6136H27.4322V0.658447H38.8027Z" fill="white"/>
<path d="M85.9744 0.658447V27.8908H82.6473V0.658447H85.9744ZM92.976 0.658447V3.6136H75.6641V0.658447H92.976Z" fill="white"/>
<path d="M114.231 24.9543V27.8908H102.678V24.9543H114.231ZM103.281 0.658447V27.8908H99.918V0.658447H103.281ZM112.678 12.3668V15.3033H102.678V12.3668H112.678ZM114.049 0.658447V3.6136H102.678V0.658447H114.049Z" fill="white"/>
<path d="M121.039 0.658447H128.479C130.21 0.658447 131.66 0.970171 132.83 1.59362C134.012 2.21707 134.902 3.13978 135.499 4.36174C136.108 5.57123 136.413 7.06128 136.413 8.83186C136.413 10.0788 136.212 11.2197 135.81 12.2546C135.407 13.2771 134.822 14.1499 134.055 14.8731C133.287 15.5839 132.354 16.1138 131.258 16.4629L130.344 16.8557H123.708L123.671 13.9192H128.442C129.466 13.9192 130.32 13.6948 131.002 13.2459C131.684 12.7845 132.196 12.1673 132.537 11.3943C132.878 10.6212 133.049 9.76704 133.049 8.83186C133.049 7.78447 132.897 6.86801 132.592 6.08246C132.287 5.29691 131.8 4.69217 131.13 4.26822C130.471 3.8318 129.588 3.6136 128.479 3.6136H124.403V27.8908H121.039V0.658447ZM133.817 27.8908L128.516 15.5464L132.007 15.5278L137.418 27.6663V27.8908H133.817Z" fill="white"/>
<path d="M147.985 0.658447V27.8908H144.621V0.658447H147.985Z" fill="white"/>
<path d="M167.884 19.2311H171.248C171.162 21.1014 170.791 22.7162 170.133 24.0753C169.487 25.4219 168.542 26.4568 167.299 27.1801C166.068 27.9033 164.527 28.2649 162.674 28.2649C161.346 28.2649 160.145 27.9968 159.073 27.4606C158 26.9245 157.08 26.1576 156.312 25.1601C155.557 24.1501 154.978 22.9406 154.576 21.5316C154.174 20.1226 153.973 18.539 153.973 16.7809V11.7497C153.973 10.004 154.174 8.42666 154.576 7.01768C154.99 5.60868 155.581 4.40543 156.349 3.40791C157.129 2.39792 158.073 1.62484 159.183 1.08867C160.304 0.552504 161.571 0.284424 162.985 0.284424C164.715 0.284424 166.178 0.639791 167.372 1.35052C168.579 2.04879 169.505 3.07748 170.15 4.4366C170.809 5.78325 171.174 7.43538 171.248 9.39302H167.884C167.799 7.9591 167.579 6.79324 167.226 5.89547C166.872 4.98524 166.348 4.31814 165.654 3.8942C164.971 3.45779 164.082 3.23957 162.985 3.23957C162.01 3.23957 161.163 3.43908 160.444 3.83809C159.737 4.23709 159.152 4.81067 158.689 5.55881C158.238 6.29448 157.897 7.18601 157.665 8.23342C157.446 9.26835 157.336 10.4279 157.336 11.7123V16.7809C157.336 17.9779 157.427 19.0939 157.61 20.1288C157.805 21.1637 158.11 22.074 158.524 22.8596C158.951 23.6326 159.505 24.2374 160.188 24.6738C160.87 25.1102 161.699 25.3284 162.674 25.3284C163.905 25.3284 164.88 25.1227 165.599 24.7112C166.318 24.2997 166.848 23.6451 167.189 22.7473C167.543 21.8496 167.774 20.6775 167.884 19.2311Z" fill="white"/>
<path d="M35.9049 35.6241V42.4094H35.0759V35.6241H35.9049ZM37.6494 35.6241V36.3604H33.3359V35.6241H37.6494ZM42.1952 41.6778V42.4094H39.3165V41.6778H42.1952ZM39.4668 35.6241V42.4094H38.6287V35.6241H39.4668ZM41.808 38.5414V39.2731H39.3165V38.5414H41.808ZM42.1496 35.6241V36.3604H39.3165V35.6241H42.1496ZM46.5861 40.2517H47.4242C47.4029 40.7178 47.3103 41.1201 47.1463 41.4587C46.9854 41.7943 46.7501 42.0522 46.4403 42.2323C46.1336 42.4126 45.7495 42.5027 45.2879 42.5027C44.9569 42.5027 44.6579 42.4358 44.3906 42.3023C44.1234 42.1687 43.8942 41.9776 43.7029 41.7291C43.5146 41.4774 43.3704 41.176 43.2701 40.825C43.1699 40.4739 43.1198 40.0793 43.1198 39.6412V38.3876C43.1198 37.9527 43.1699 37.5596 43.2701 37.2086C43.3734 36.8575 43.5206 36.5577 43.7119 36.3091C43.9063 36.0575 44.1416 35.8649 44.4179 35.7313C44.6973 35.5977 45.0131 35.5309 45.3653 35.5309C45.7966 35.5309 46.161 35.6194 46.4585 35.7965C46.7591 35.9705 46.9899 36.2268 47.1509 36.5655C47.3148 36.901 47.4059 37.3127 47.4242 37.8004H46.5861C46.5648 37.4432 46.5102 37.1526 46.4221 36.929C46.3341 36.7022 46.2034 36.5359 46.0304 36.4303C45.8604 36.3216 45.6387 36.2672 45.3653 36.2672C45.1224 36.2672 44.9114 36.3169 44.7323 36.4163C44.5561 36.5157 44.4104 36.6587 44.295 36.8451C44.1826 37.0284 44.0976 37.2505 44.0399 37.5115C43.9853 37.7694 43.9579 38.0583 43.9579 38.3783V39.6412C43.9579 39.9395 43.9807 40.2176 44.0262 40.4754C44.0748 40.7333 44.1507 40.9601 44.254 41.1558C44.3603 41.3485 44.4984 41.4991 44.6685 41.6079C44.8385 41.7166 45.045 41.771 45.2879 41.771C45.5946 41.771 45.8376 41.7197 46.0167 41.6172C46.1959 41.5147 46.328 41.3515 46.413 41.1279C46.501 40.9041 46.5587 40.6121 46.5861 40.2517ZM52.1567 38.5414V39.2731H49.2826V38.5414H52.1567ZM49.3965 35.6241V42.4094H48.5584V35.6241H49.3965ZM52.8989 35.6241V42.4094H52.061V35.6241H52.8989ZM58.6794 35.6241V42.4094H57.8368L55.1809 37.176V42.4094H54.3431V35.6241H55.1809L57.8505 40.8716V35.6241H58.6794ZM64.4414 38.4296V39.6086C64.4414 40.0871 64.3897 40.5081 64.2864 40.8716C64.1862 41.2319 64.0391 41.5333 63.8445 41.7757C63.65 42.018 63.4164 42.1998 63.1432 42.3209C62.8696 42.4421 62.5617 42.5027 62.2184 42.5027C61.8873 42.5027 61.5852 42.4421 61.312 42.3209C61.0389 42.1998 60.8032 42.018 60.606 41.7757C60.4088 41.5333 60.2554 41.2319 60.1457 40.8716C60.0397 40.5081 59.9865 40.0871 59.9865 39.6086V38.4296C59.9865 37.9511 60.0397 37.5317 60.1457 37.1713C60.2522 36.8078 60.4041 36.5049 60.6013 36.2625C60.799 36.0202 61.0342 35.8384 61.3073 35.7173C61.5809 35.593 61.8831 35.5309 62.2137 35.5309C62.5569 35.5309 62.8654 35.593 63.1385 35.7173C63.4148 35.8384 63.6484 36.0202 63.8398 36.2625C64.0343 36.5049 64.183 36.8078 64.2864 37.1713C64.3897 37.5317 64.4414 37.9511 64.4414 38.4296ZM63.612 39.6086V38.4203C63.612 38.0474 63.5819 37.7274 63.5213 37.4603C63.4601 37.1899 63.371 36.9693 63.2524 36.7985C63.1338 36.6276 62.9882 36.5018 62.8153 36.421C62.6418 36.3371 62.4414 36.2952 62.2137 36.2952C61.998 36.2952 61.804 36.3371 61.631 36.421C61.4607 36.5018 61.3152 36.6276 61.1934 36.7985C61.0721 36.9693 60.9777 37.1899 60.9113 37.4603C60.8475 37.7274 60.8153 38.0474 60.8153 38.4203V39.6086C60.8153 39.9846 60.8475 40.3077 60.9113 40.5779C60.9777 40.8451 61.0721 41.0657 61.1934 41.2397C61.3178 41.4106 61.467 41.538 61.64 41.6219C61.8129 41.7026 62.0059 41.743 62.2184 41.743C62.4462 41.743 62.6466 41.7026 62.8195 41.6219C62.9956 41.538 63.1417 41.4106 63.2571 41.2397C63.3752 41.0657 63.4633 40.8451 63.5213 40.5779C63.5819 40.3077 63.612 39.9846 63.612 39.6086ZM69.1784 41.6778V42.4094H66.4271V41.6778H69.1784ZM66.5774 35.6241V42.4094H65.7395V35.6241H66.5774ZM74.1886 38.4296V39.6086C74.1886 40.0871 74.1369 40.5081 74.0335 40.8716C73.9334 41.2319 73.7862 41.5333 73.5917 41.7757C73.3976 42.018 73.1635 42.1998 72.8904 42.3209C72.6173 42.4421 72.3088 42.5027 71.9656 42.5027C71.635 42.5027 71.3328 42.4421 71.0592 42.3209C70.7861 42.1998 70.5509 42.018 70.3532 41.7757C70.156 41.5333 70.0025 41.2319 69.8934 40.8716C69.7869 40.5081 69.7342 40.0871 69.7342 39.6086V38.4296C69.7342 37.9511 69.7869 37.5317 69.8934 37.1713C69.9994 36.8078 70.1512 36.5049 70.349 36.2625C70.5462 36.0202 70.7813 35.8384 71.055 35.7173C71.3281 35.593 71.6302 35.5309 71.9614 35.5309C72.3046 35.5309 72.6125 35.593 72.8857 35.7173C73.1625 35.8384 73.3961 36.0202 73.5875 36.2625C73.7815 36.5049 73.9307 36.8078 74.0335 37.1713C74.1369 37.5317 74.1886 37.9511 74.1886 38.4296ZM73.3597 39.6086V38.4203C73.3597 38.0474 73.3291 37.7274 73.2685 37.4603C73.2078 37.1899 73.1182 36.9693 72.9996 36.7985C72.8814 36.6276 72.7354 36.5018 72.5624 36.421C72.3895 36.3371 72.1891 36.2952 71.9614 36.2952C71.7457 36.2952 71.5511 36.3371 71.3782 36.421C71.2084 36.5018 71.0624 36.6276 70.9411 36.7985C70.8193 36.9693 70.7254 37.1899 70.6585 37.4603C70.5947 37.7274 70.563 38.0474 70.563 38.4203V39.6086C70.563 39.9846 70.5947 40.3077 70.6585 40.5779C70.7254 40.8451 70.8193 41.0657 70.9411 41.2397C71.0655 41.4106 71.2142 41.538 71.3872 41.6219C71.5606 41.7026 71.7531 41.743 71.9656 41.743C72.1934 41.743 72.3937 41.7026 72.5672 41.6219C72.7433 41.538 72.8888 41.4106 73.0043 41.2397C73.1229 41.0657 73.211 40.8451 73.2685 40.5779C73.3291 40.3077 73.3597 39.9846 73.3597 39.6086ZM79.6406 39.0307V41.5613C79.5678 41.6607 79.4571 41.7849 79.3084 41.9341C79.1623 42.0832 78.9577 42.2153 78.6936 42.3302C78.4294 42.4452 78.083 42.5027 77.6548 42.5027C77.3116 42.5027 76.9973 42.4436 76.7121 42.3256C76.4295 42.2075 76.1853 42.0304 75.9786 41.7943C75.7751 41.5551 75.6175 41.2584 75.5052 40.9041C75.3928 40.5469 75.3364 40.129 75.3364 39.6506V38.3783C75.3364 37.9029 75.3833 37.4866 75.4777 37.1293C75.5716 36.772 75.7113 36.4753 75.8969 36.2393C76.0852 36.0031 76.3172 35.826 76.5934 35.708C76.8729 35.5899 77.1977 35.5309 77.5684 35.5309C77.9965 35.5309 78.3609 35.6132 78.6614 35.7779C78.962 35.9426 79.1945 36.1802 79.3585 36.4909C79.5256 36.8016 79.6195 37.1744 79.6406 37.6094H78.8027C78.7816 37.3298 78.7236 37.0905 78.6298 36.8917C78.5354 36.6897 78.402 36.5359 78.2285 36.4303C78.0556 36.3216 77.8357 36.2672 77.5684 36.2672C77.3132 36.2672 77.0975 36.3107 76.9214 36.3977C76.7453 36.4847 76.6013 36.6152 76.489 36.7892C76.3794 36.9631 76.2992 37.1822 76.2476 37.4462C76.199 37.7104 76.1743 38.0179 76.1743 38.369V39.6506C76.1743 40.0109 76.2096 40.3248 76.2792 40.592C76.3493 40.8591 76.4479 41.0797 76.5755 41.2537C76.7057 41.4277 76.8624 41.5582 77.0443 41.6452C77.2267 41.7291 77.4318 41.771 77.6596 41.771C77.9174 41.771 78.121 41.743 78.2696 41.6871C78.4183 41.6312 78.5322 41.5675 78.6113 41.496C78.6936 41.4246 78.7584 41.3671 78.8075 41.3236V39.7578H77.591V39.0307H79.6406ZM81.8725 35.6241V42.4094H81.0347V35.6241H81.8725ZM86.8969 41.6778V42.4094H84.018V41.6778H86.8969ZM84.1682 35.6241V42.4094H83.3304V35.6241H84.1682ZM86.5093 38.5414V39.2731H84.018V38.5414H86.5093ZM86.851 35.6241V36.3604H84.018V35.6241H86.851ZM90.8683 40.6945C90.8683 40.536 90.8504 40.3962 90.814 40.275C90.7776 40.1508 90.7138 40.0389 90.6226 39.9395C90.5314 39.8401 90.4038 39.7453 90.2398 39.6552C90.0758 39.5651 89.8681 39.4735 89.616 39.3802C89.3429 39.2808 89.0951 39.1706 88.8736 39.0494C88.6516 38.9251 88.4618 38.7837 88.3042 38.6253C88.1492 38.4669 88.0295 38.2851 87.9446 38.0801C87.8592 37.875 87.817 37.6404 87.817 37.3764C87.817 37.1122 87.8607 36.8684 87.9488 36.6447C88.04 36.421 88.1676 36.2268 88.3316 36.0622C88.4987 35.8944 88.6991 35.7639 88.9327 35.6707C89.1668 35.5775 89.4278 35.5309 89.7162 35.5309C90.1475 35.5309 90.5103 35.6287 90.805 35.8245C91.1024 36.0171 91.327 36.2703 91.4789 36.5841C91.6307 36.8948 91.7067 37.2272 91.7067 37.5814H90.8683C90.8683 37.3266 90.8277 37.1014 90.7454 36.9057C90.6664 36.7068 90.5419 36.5515 90.3721 36.4396C90.205 36.3247 89.9862 36.2672 89.7162 36.2672C89.4731 36.2672 89.2728 36.3154 89.1151 36.4117C88.9601 36.508 88.8446 36.6385 88.7687 36.8031C88.6959 36.9678 88.6595 37.1558 88.6595 37.367C88.6595 37.5099 88.6838 37.6404 88.7323 37.7585C88.7808 37.8734 88.8552 37.9806 88.9554 38.0801C89.0587 38.1795 89.1863 38.2711 89.3381 38.355C89.4932 38.4389 89.6751 38.5197 89.8849 38.5974C90.2097 38.7061 90.4876 38.8272 90.718 38.9609C90.949 39.0944 91.1372 39.2451 91.2833 39.4129C91.4288 39.5775 91.5353 39.7655 91.6017 39.9768C91.6719 40.1849 91.7067 40.4211 91.7067 40.6851C91.7067 40.9617 91.6613 41.2118 91.5701 41.4354C91.482 41.6591 91.3529 41.8502 91.1831 42.0087C91.0128 42.1671 90.8077 42.2898 90.5678 42.3768C90.3278 42.4607 90.0579 42.5027 89.7573 42.5027C89.4958 42.5027 89.2396 42.4591 88.9875 42.3722C88.7381 42.2852 88.5119 42.1547 88.3089 41.9807C88.1054 41.8067 87.943 41.5924 87.8212 41.3376C87.6999 41.0797 87.6393 40.7815 87.6393 40.4428H88.4771C88.4771 40.6758 88.5109 40.8762 88.5773 41.044C88.6443 41.2086 88.7371 41.3453 88.8552 41.4541C88.9738 41.5628 89.1088 41.6436 89.2606 41.6964C89.4157 41.7461 89.5812 41.771 89.7573 41.771C89.9999 41.771 90.2034 41.7275 90.3674 41.6405C90.5345 41.5535 90.659 41.4292 90.7412 41.2677C90.8261 41.1061 90.8683 40.915 90.8683 40.6945ZM97.0585 39.7484H95.6101V39.0167H97.0585C97.3321 39.0167 97.552 38.9609 97.7192 38.849C97.8889 38.7371 98.0123 38.5818 98.0882 38.383C98.1668 38.1841 98.2063 37.9573 98.2063 37.7026C98.2063 37.4695 98.1668 37.2505 98.0882 37.0455C98.0123 36.8404 97.8889 36.6758 97.7192 36.5515C97.552 36.4241 97.3321 36.3604 97.0585 36.3604H95.783V42.4094H94.9452V35.6241H97.0585C97.4866 35.6241 97.8483 35.7126 98.1425 35.8897C98.4373 36.0668 98.6603 36.3123 98.8122 36.6261C98.9672 36.9368 99.0447 37.2925 99.0447 37.6933C99.0447 38.1282 98.9672 38.4995 98.8122 38.8071C98.6603 39.1146 98.4373 39.3492 98.1425 39.5107C97.8483 39.6692 97.4866 39.7484 97.0585 39.7484ZM101.942 41.3795L103.536 35.6241H104.447L102.388 42.4094H101.745L101.942 41.3795ZM100.511 35.6241L102.092 41.3795L102.301 42.4094H101.659L99.6005 35.6241H100.511ZM107.48 35.6241V42.4094H106.651V35.6241H107.48ZM109.225 35.6241V36.3604H104.911V35.6241H109.225ZM109.152 41.9527C109.152 41.8067 109.196 41.684 109.284 41.5846C109.375 41.482 109.506 41.4308 109.676 41.4308C109.846 41.4308 109.975 41.482 110.063 41.5846C110.154 41.684 110.199 41.8067 110.199 41.9527C110.199 42.0956 110.154 42.2168 110.063 42.3162C109.975 42.4156 109.846 42.4654 109.676 42.4654C109.506 42.4654 109.375 42.4156 109.284 42.3162C109.196 42.2168 109.152 42.0956 109.152 41.9527ZM117.25 41.6778V42.4094H114.499V41.6778H117.25ZM114.649 35.6241V42.4094H113.812V35.6241H114.649ZM119.122 35.6241V42.4094H118.293V35.6241H119.122ZM120.867 35.6241V36.3604H116.553V35.6241H120.867ZM123.349 42.4094H122.22L122.229 41.6778H123.349C123.747 41.6778 124.071 41.6001 124.32 41.4448C124.568 41.2863 124.752 41.0533 124.871 40.7457C124.989 40.435 125.048 40.0513 125.048 39.5946V38.4342C125.048 38.0739 125.015 37.7632 124.948 37.5022C124.881 37.2412 124.781 37.0268 124.647 36.8591C124.514 36.6913 124.345 36.567 124.142 36.4862C123.938 36.4023 123.7 36.3604 123.427 36.3604H122.197V35.6241H123.427C123.8 35.6241 124.137 35.6847 124.438 35.8059C124.739 35.9239 124.997 36.1026 125.212 36.3418C125.428 36.5779 125.592 36.8715 125.704 37.2226C125.82 37.5737 125.877 37.9806 125.877 38.4436V39.5946C125.877 40.0576 125.82 40.4645 125.704 40.8156C125.592 41.1667 125.426 41.4603 125.207 41.6964C124.989 41.9325 124.723 42.1112 124.411 42.2323C124.101 42.3504 123.747 42.4094 123.349 42.4094ZM122.684 35.6241V42.4094H121.846V35.6241H122.684ZM126.652 41.9527C126.652 41.8067 126.695 41.684 126.783 41.5846C126.875 41.482 127.005 41.4308 127.175 41.4308C127.346 41.4308 127.475 41.482 127.563 41.5846C127.653 41.684 127.699 41.8067 127.699 41.9527C127.699 42.0956 127.653 42.2168 127.563 42.3162C127.475 42.4156 127.346 42.4654 127.175 42.4654C127.005 42.4654 126.875 42.4156 126.783 42.3162C126.695 42.2168 126.652 42.0956 126.652 41.9527Z" fill="white"/>
</g>
</g>
<defs>
<clipPath id="clip0_105_2189">
<rect width="174" height="43" fill="white"/>
</clipPath>
</defs>
</svg>
