<svg width="654" height="710" viewBox="0 0 654 710" fill="none" xmlns="http://www.w3.org/2000/svg">
<g filter="url(#filter0_biif_75_666)">
<path fill-rule="evenodd" clip-rule="evenodd" d="M714.568 565.55C781.081 565.55 835 511.631 835 445.118L835 352.728C835 268.379 766.621 200 682.272 200L644.958 200C581.217 200 529.544 251.672 529.544 315.413C529.544 379.154 477.872 430.827 414.131 430.827L364.772 430.827C273.771 430.827 200 504.598 200 595.599L200 656.674C200 761.608 285.066 846.674 390 846.674L453.575 846.674C531.205 846.674 594.136 783.742 594.136 706.112L594.136 685.982C594.137 619.469 648.056 565.55 714.568 565.55Z" fill="url(#paint0_linear_75_666)"/>
</g>
<defs>
<filter id="filter0_biif_75_666" x="0" y="0" width="1035" height="1046.67" filterUnits="userSpaceOnUse" color-interpolation-filters="sRGB">
<feFlood flood-opacity="0" result="BackgroundImageFix"/>
<feGaussianBlur in="BackgroundImageFix" stdDeviation="4.5"/>
<feComposite in2="SourceAlpha" operator="in" result="effect1_backgroundBlur_75_666"/>
<feBlend mode="normal" in="SourceGraphic" in2="effect1_backgroundBlur_75_666" result="shape"/>
<feColorMatrix in="SourceAlpha" type="matrix" values="0 0 0 0 0 0 0 0 0 0 0 0 0 0 0 0 0 0 127 0" result="hardAlpha"/>
<feOffset/>
<feGaussianBlur stdDeviation="50"/>
<feComposite in2="hardAlpha" operator="arithmetic" k2="-1" k3="1"/>
<feColorMatrix type="matrix" values="0 0 0 0 0.054902 0 0 0 0 0.580392 0 0 0 0 0.984314 0 0 0 1 0"/>
<feBlend mode="normal" in2="shape" result="effect2_innerShadow_75_666"/>
<feColorMatrix in="SourceAlpha" type="matrix" values="0 0 0 0 0 0 0 0 0 0 0 0 0 0 0 0 0 0 127 0" result="hardAlpha"/>
<feOffset dy="4"/>
<feGaussianBlur stdDeviation="65"/>
<feComposite in2="hardAlpha" operator="arithmetic" k2="-1" k3="1"/>
<feColorMatrix type="matrix" values="0 0 0 0 0.054902 0 0 0 0 0.580392 0 0 0 0 0.984314 0 0 0 1 0"/>
<feBlend mode="normal" in2="effect2_innerShadow_75_666" result="effect3_innerShadow_75_666"/>
<feGaussianBlur stdDeviation="100" result="effect4_foregroundBlur_75_666"/>
</filter>
<linearGradient id="paint0_linear_75_666" x1="869.324" y1="785.502" x2="154.191" y2="151.788" gradientUnits="userSpaceOnUse">
<stop stop-color="#0060AA"/>
<stop offset="1" stop-color="#0E94FB"/>
</linearGradient>
</defs>
</svg>
