<svg width="57" height="56" viewBox="0 0 57 56" fill="none" xmlns="http://www.w3.org/2000/svg">
<path d="M15.5437 1.89234C15.0078 2.06734 14.0891 3.00797 13.925 3.56578C13.6187 4.5939 13.8375 5.41422 14.6141 6.17984C15.3687 6.94547 16.2875 7.18609 17.1844 6.87984L17.5344 6.74859L19.1641 8.37828L20.7937 10.008V12.8627V15.7283L20.1922 15.8048C19.3719 15.9033 18.1906 16.5158 17.6328 17.1283C17.0531 17.7408 16.5609 18.7689 16.4625 19.5345L16.3969 20.1252H14.8437H13.3016L12.1094 18.933C10.9172 17.7408 10.9172 17.7408 11.0484 17.3908C11.3547 16.4939 11.1141 15.5752 10.3484 14.8205C9.24375 13.7048 7.84375 13.7048 6.73906 14.8205C5.62344 15.9252 5.62344 17.3252 6.73906 18.4298C7.49375 19.1955 8.4125 19.4361 9.30937 19.1298L9.65937 18.9986L11.1031 20.4423L12.5359 21.8752H14.4828H16.4187V22.7502V23.6252H13.6406H10.8625L8.56562 25.5283L6.26875 27.4314L5.84219 27.2892C4.89062 26.9392 4.01562 27.158 3.23906 27.9455C2.12344 29.0502 2.12344 30.4502 3.23906 31.5548C4.00469 32.3314 4.825 32.5502 5.85312 32.2439C6.49844 32.047 7.3625 31.1611 7.54844 30.483C7.69062 30.0127 7.66875 29.2689 7.52656 28.8752C7.48281 28.7658 8.07344 28.208 9.4625 27.0377L11.475 25.3752H13.9469H16.4187V26.2502V27.1252H15.1062H13.7937V28.0002V28.8752H15.1062H16.4187V29.7502V30.6252H12.4812H8.54375V31.5002V32.3752H12.4812H16.4187V33.2502V34.1252H13.9906H11.5516L9.82344 36.7392L8.09531 39.3423L7.42812 39.408C6.575 39.4845 5.875 39.9111 5.42656 40.622C5.13125 41.1142 5.09844 41.2564 5.09844 42.0658C5.09844 42.8861 5.13125 43.0064 5.42656 43.433C5.6125 43.6955 5.97344 44.0564 6.23594 44.2423C6.6625 44.5377 6.78281 44.5705 7.60312 44.5705C8.4125 44.5705 8.55469 44.5377 9.04687 44.2423C9.77969 43.783 10.1953 43.0939 10.2609 42.197C10.3047 41.5845 10.2719 41.4314 9.97656 40.8517L9.6375 40.1955L11.0812 38.0298L12.5141 35.8752H14.45H16.3969L16.4625 36.4658C16.5609 37.2314 17.0531 38.2595 17.6328 38.872C18.1906 39.4845 19.3719 40.097 20.1922 40.1955L20.7937 40.272V43.1377V45.9923L19.1641 47.622L17.5344 49.2517L17.1844 49.1205C16.2875 48.8142 15.3687 49.0548 14.6141 49.8205C13.4984 50.9252 13.4984 52.3252 14.6141 53.4298C15.7187 54.5455 17.1187 54.5455 18.2234 53.4298C18.9891 52.6752 19.2297 51.7564 18.9234 50.8595L18.7922 50.5095L20.6734 48.6283L22.5437 46.758V43.4986V40.2502H23.4187H24.2937V42.8752V45.5002H25.1687H26.0437V42.8752V40.2502H26.9187H27.7937V43.9908V47.7423L30.4078 49.372L33.0219 51.0127L33.0656 51.7455C33.1531 52.9814 33.8422 53.8673 34.9797 54.2064C36.8391 54.7752 38.6875 53.058 38.2937 51.122C38.0531 49.9627 37.1125 49.1423 35.8984 49.033C35.3625 48.9783 35.1547 49.022 34.6297 49.2627L33.9953 49.547L31.775 48.158L29.5437 46.7689V43.5095V40.2502H30.4187H31.2937V41.5627V42.8752H32.1687H33.0437V41.5627V40.2502H33.9187H34.7937V43.7502V47.2502H37.9547H41.1156L41.2469 47.5783C41.4328 48.0377 42.2312 48.7158 42.7562 48.8689C43.9812 49.2408 45.3047 48.683 45.9281 47.5236C46.1797 47.0752 46.1797 45.6752 45.9281 45.2158C45.4687 44.3845 44.4625 43.7502 43.5656 43.7502C42.6578 43.7502 41.5531 44.4283 41.2469 45.172L41.1156 45.5002H38.8297H36.5437V42.8861V40.272L37.1453 40.1955C37.9656 40.097 39.1469 39.4845 39.7047 38.872C40.2844 38.2595 40.7766 37.2314 40.875 36.4658L40.9406 35.8752H44.6812H48.4219L49.1656 36.6298C49.8984 37.3736 49.9094 37.3955 49.7891 37.7455C49.2531 39.2877 50.6094 41.1252 52.2937 41.1252C53.65 41.1252 54.9187 39.8564 54.9187 38.5002C54.9187 37.8111 54.6672 37.2533 54.0984 36.6955C53.3437 35.9298 52.425 35.6892 51.5391 35.9955C51.1781 36.1267 51.1672 36.1158 50.1719 35.1205L49.1766 34.1252H45.0422H40.9187V33.2502V32.3752H43.1062H45.2937V31.5002V30.6252H43.1062H40.9187V29.7502V28.8752H43.2156H45.5125L48.0062 27.6392L50.4891 26.3923L50.8609 26.6548C52.1625 27.5408 53.8906 27.0595 54.6562 25.5939C54.9516 25.0361 54.9297 23.9314 54.6125 23.3408C54.1641 22.4658 53.2125 21.8752 52.2719 21.8752C50.9266 21.8752 49.6687 23.133 49.6687 24.4892C49.6687 24.8173 49.625 24.8502 47.3719 25.9767L45.075 27.1252H42.9969H40.9187V26.2502V25.3752H42.2312H43.5437V24.5002V23.6252H42.2312H40.9187V22.7502V21.8752H42.8547H44.8016L46.2344 20.4423L47.6781 18.9986L48.0281 19.1298C49.5812 19.6658 51.4187 18.3095 51.4187 16.6252C51.4187 15.2689 50.15 14.0002 48.7937 14.0002C48.1047 14.0002 47.5469 14.2517 46.9891 14.8205C46.2234 15.5752 45.9828 16.4939 46.2891 17.3908C46.4203 17.7408 46.4203 17.7408 45.2281 18.933L44.0359 20.1252H42.4937H40.9406L40.875 19.5345C40.7766 18.7689 40.2844 17.7408 39.7047 17.1283C39.1469 16.5158 37.9656 15.9033 37.1453 15.8048L36.5437 15.7283V14.6127V13.508L39.0484 11.0033L41.5531 8.49859L41.9031 8.62984C43.4562 9.16578 45.2937 7.80953 45.2937 6.12515C45.2937 4.7689 44.025 3.50015 42.6687 3.50015C41.9797 3.50015 41.4219 3.75172 40.8641 4.32047C40.0984 5.07515 39.8578 5.9939 40.1641 6.89078L40.2953 7.24078L37.5391 9.99703L34.7937 12.7423V14.2517V15.7502H33.9187H33.0437V14.4377V13.1252H32.1687H31.2937V14.4377V15.7502H30.4187H29.5437V12.5892V9.42828L29.8719 9.29703C30.6156 8.99078 31.2937 7.88609 31.2937 6.97828C31.2937 6.0814 30.6594 5.07515 29.8281 4.61578C29.3578 4.36422 27.9687 4.36422 27.4984 4.62672C26.3609 5.23922 25.8031 6.56265 26.175 7.78765C26.3281 8.31265 27.0062 9.11109 27.4656 9.29703L27.7937 9.42828V12.5892V15.7502H26.9187H26.0437V14.4377V13.1252H25.1687H24.2937V14.4377V15.7502H23.4187H22.5437V12.5017V9.24234L20.6734 7.37203L18.7922 5.49078L18.9234 5.14078C19.2297 4.2439 18.9891 3.32515 18.2234 2.57047C17.4578 1.7939 16.5609 1.57515 15.5437 1.89234ZM17.0203 3.77359C17.5672 4.30953 17.1844 5.25015 16.4187 5.25015C15.9703 5.25015 15.5437 4.82359 15.5437 4.37515C15.5437 3.92672 15.9703 3.50015 16.4187 3.50015C16.6266 3.50015 16.8562 3.59859 17.0203 3.77359ZM43.2703 5.52359C43.4453 5.68765 43.5437 5.91734 43.5437 6.12515C43.5437 6.33297 43.4453 6.56265 43.2703 6.72672C43.1062 6.90172 42.8766 7.00015 42.6687 7.00015C42.4609 7.00015 42.2312 6.90172 42.0672 6.72672C41.8922 6.56265 41.7937 6.33297 41.7937 6.12515C41.7937 5.91734 41.8922 5.68765 42.0672 5.52359C42.2312 5.34859 42.4609 5.25015 42.6687 5.25015C42.8766 5.25015 43.1062 5.34859 43.2703 5.52359ZM29.2703 6.39859C29.4453 6.56265 29.5437 6.79234 29.5437 7.00015C29.5437 7.20797 29.4453 7.43765 29.2703 7.60172C28.7344 8.14859 27.7937 7.76578 27.7937 7.00015C27.7937 6.55172 28.2203 6.12515 28.6687 6.12515C28.8766 6.12515 29.1062 6.22359 29.2703 6.39859ZM9.14531 16.0236C9.69219 16.5595 9.30937 17.5002 8.54375 17.5002C8.09531 17.5002 7.66875 17.0736 7.66875 16.6252C7.66875 16.1767 8.09531 15.7502 8.54375 15.7502C8.75156 15.7502 8.98125 15.8486 9.14531 16.0236ZM49.3953 16.0236C49.5703 16.1877 49.6687 16.4173 49.6687 16.6252C49.6687 16.833 49.5703 17.0627 49.3953 17.2267C49.2312 17.4017 49.0016 17.5002 48.7937 17.5002C48.5859 17.5002 48.3562 17.4017 48.1922 17.2267C48.0172 17.0627 47.9187 16.833 47.9187 16.6252C47.9187 16.4173 48.0172 16.1877 48.1922 16.0236C48.3562 15.8486 48.5859 15.7502 48.7937 15.7502C49.0016 15.7502 49.2312 15.8486 49.3953 16.0236ZM37.3531 17.6314C37.9547 17.8064 38.8625 18.7142 39.0375 19.3158C39.2234 19.9611 39.2234 36.0392 39.0375 36.6845C38.8625 37.2861 37.9547 38.1939 37.3531 38.3689C36.7078 38.5548 20.6297 38.5548 19.9844 38.3689C19.3828 38.1939 18.475 37.2861 18.3 36.6845C18.1141 36.0392 18.1141 19.9611 18.3 19.3158C18.4641 18.758 19.3828 17.8173 19.9187 17.6423C20.4875 17.4673 36.7406 17.4564 37.3531 17.6314ZM52.8953 23.8986C53.0703 24.0627 53.1687 24.2923 53.1687 24.5002C53.1687 24.708 53.0703 24.9377 52.8953 25.1017C52.7312 25.2767 52.5016 25.3752 52.2937 25.3752C52.0859 25.3752 51.8562 25.2767 51.6922 25.1017C51.5172 24.9377 51.4187 24.708 51.4187 24.5002C51.4187 24.2923 51.5172 24.0627 51.6922 23.8986C51.8562 23.7236 52.0859 23.6252 52.2937 23.6252C52.5016 23.6252 52.7312 23.7236 52.8953 23.8986ZM5.64531 29.1486C6.19219 29.6845 5.80937 30.6252 5.04375 30.6252C4.59531 30.6252 4.16875 30.1986 4.16875 29.7502C4.16875 29.3017 4.59531 28.8752 5.04375 28.8752C5.25156 28.8752 5.48125 28.9736 5.64531 29.1486ZM52.8953 37.8986C53.4422 38.4345 53.0594 39.3752 52.2937 39.3752C51.8453 39.3752 51.4187 38.9486 51.4187 38.5002C51.4187 38.0517 51.8453 37.6252 52.2937 37.6252C52.5016 37.6252 52.7312 37.7236 52.8953 37.8986ZM8.27031 41.3986C8.44531 41.5627 8.54375 41.7923 8.54375 42.0002C8.54375 42.208 8.44531 42.4377 8.27031 42.6017C7.73437 43.1486 6.79375 42.7658 6.79375 42.0002C6.79375 41.5517 7.22031 41.1252 7.66875 41.1252C7.87656 41.1252 8.10625 41.2236 8.27031 41.3986ZM44.1453 45.7736C44.6922 46.3095 44.3094 47.2502 43.5437 47.2502C43.0953 47.2502 42.6687 46.8236 42.6687 46.3752C42.6687 45.9267 43.0953 45.5002 43.5437 45.5002C43.7516 45.5002 43.9812 45.5986 44.1453 45.7736ZM17.0203 51.0236C17.5672 51.5595 17.1844 52.5002 16.4187 52.5002C15.9703 52.5002 15.5437 52.0736 15.5437 51.6252C15.5437 51.1767 15.9703 50.7502 16.4187 50.7502C16.6266 50.7502 16.8562 50.8486 17.0203 51.0236ZM36.2703 51.0236C36.8172 51.5595 36.4344 52.5002 35.6687 52.5002C35.2203 52.5002 34.7937 52.0736 34.7937 51.6252C34.7937 51.1767 35.2203 50.7502 35.6687 50.7502C35.8766 50.7502 36.1062 50.8486 36.2703 51.0236Z" fill="url(#paint0_linear_126_3209)"/>
<path d="M27.6402 19.3594C26.9512 19.5344 25.9668 20.125 25.4855 20.6391C25.2449 20.9016 24.884 21.4484 24.709 21.8422C24.4246 22.4438 24.359 22.7281 24.3152 23.6359C24.2605 24.6969 24.2605 24.7078 23.9434 24.8391C23.5059 25.0141 22.8277 25.8234 22.6746 26.3375C22.4887 26.95 22.4887 34.3109 22.6746 34.9344C22.8496 35.5359 23.7574 36.4438 24.359 36.6188C24.6762 36.7063 25.9668 36.75 28.6902 36.75C33.1965 36.75 33.284 36.7391 34.0605 35.875C34.323 35.5906 34.5965 35.1531 34.6621 34.9125C34.848 34.3109 34.848 26.9391 34.6621 26.3375C34.509 25.8234 33.8309 25.0141 33.3934 24.8391C33.0762 24.7078 33.0762 24.6969 33.0215 23.6141C32.9777 22.6406 32.923 22.4438 32.573 21.7219C31.8402 20.2563 30.5168 19.3703 28.909 19.2938C28.4496 19.2719 27.8809 19.3047 27.6402 19.3594ZM29.4777 21.1313C30.0793 21.3063 30.9871 22.2141 31.1621 22.8156C31.2387 23.0672 31.2934 23.5484 31.2934 23.8875V24.5H28.6684H26.0434V23.8875C26.0434 22.9359 26.2402 22.4328 26.8637 21.8203C27.6293 21.0438 28.4496 20.8359 29.4777 21.1313ZM32.7699 26.5234L33.0434 26.7859V30.625V34.4641L32.7699 34.7266L32.5074 35H28.6684H24.8293L24.5668 34.7266L24.2934 34.4641V30.625V26.7859L24.5668 26.5234L24.8293 26.25H28.6684H32.5074L32.7699 26.5234Z" fill="url(#paint1_linear_126_3209)"/>
<path d="M27.7827 27.2781C26.4483 27.7484 25.7702 29.1375 26.1639 30.5703C26.2952 31.0406 27.3233 32.1563 27.6296 32.1563C27.7608 32.1563 27.7936 32.3313 27.7936 33.1406V34.125H28.6686H29.5436V33.1516V32.1781L29.8718 32.0469C30.3311 31.8609 31.0093 31.0625 31.1624 30.5375C31.7749 28.4813 29.7843 26.5563 27.7827 27.2781ZM29.2702 29.1484C29.8171 29.6844 29.4343 30.625 28.6686 30.625C28.4608 30.625 28.2311 30.5266 28.0671 30.3516C27.8921 30.1875 27.7936 29.9578 27.7936 29.75C27.7936 29.5422 27.8921 29.3125 28.0671 29.1484C28.2311 28.9734 28.4608 28.875 28.6686 28.875C28.8764 28.875 29.1061 28.9734 29.2702 29.1484Z" fill="url(#paint2_linear_126_3209)"/>
<path d="M24.293 10.5V11.375H25.168H26.043V10.5V9.625H25.168H24.293V10.5Z" fill="url(#paint3_linear_126_3209)"/>
<path d="M31.293 10.5V11.375H32.168H33.043V10.5V9.625H32.168H31.293V10.5Z" fill="url(#paint4_linear_126_3209)"/>
<path d="M14.668 15.75V16.625H15.543H16.418V15.75V14.875H15.543H14.668V15.75Z" fill="url(#paint5_linear_126_3209)"/>
<path d="M40.918 15.75V16.625H41.793H42.668V15.75V14.875H41.793H40.918V15.75Z" fill="url(#paint6_linear_126_3209)"/>
<path d="M45.293 24.5V25.375H46.168H47.043V24.5V23.625H46.168H45.293V24.5Z" fill="url(#paint7_linear_126_3209)"/>
<path d="M10.293 28V28.875H11.168H12.043V28V27.125H11.168H10.293V28Z" fill="url(#paint8_linear_126_3209)"/>
<path d="M47.043 31.5V32.375H47.918H48.793V31.5V30.625H47.918H47.043V31.5Z" fill="url(#paint9_linear_126_3209)"/>
<path d="M14.668 40.25V41.125H15.543H16.418V40.25V39.375H15.543H14.668V40.25Z" fill="url(#paint10_linear_126_3209)"/>
<path d="M40.918 40.25V41.125H41.793H42.668V40.25V39.375H41.793H40.918V40.25Z" fill="url(#paint11_linear_126_3209)"/>
<path d="M31.293 45.5V46.375H32.168H33.043V45.5V44.625H32.168H31.293V45.5Z" fill="url(#paint12_linear_126_3209)"/>
<path d="M24.293 48.125V49H25.168H26.043V48.125V47.25H25.168H24.293V48.125Z" fill="url(#paint13_linear_126_3209)"/>
<defs>
<linearGradient id="paint0_linear_126_3209" x1="49.951" y1="57.1582" x2="-2.61873" y2="-1.04108" gradientUnits="userSpaceOnUse">
<stop stop-color="#0060AA"/>
<stop offset="1" stop-color="#0E94FB"/>
</linearGradient>
<linearGradient id="paint1_linear_126_3209" x1="33.6412" y1="37.694" x2="16.6231" y2="24.4478" gradientUnits="userSpaceOnUse">
<stop stop-color="#0060AA"/>
<stop offset="1" stop-color="#0E94FB"/>
</linearGradient>
<linearGradient id="paint2_linear_126_3209" x1="30.7811" y1="34.5035" x2="23.8684" y2="28.79" gradientUnits="userSpaceOnUse">
<stop stop-color="#0060AA"/>
<stop offset="1" stop-color="#0E94FB"/>
</linearGradient>
<linearGradient id="paint3_linear_126_3209" x1="25.8774" y1="11.4696" x2="24.1274" y2="9.53041" gradientUnits="userSpaceOnUse">
<stop stop-color="#0060AA"/>
<stop offset="1" stop-color="#0E94FB"/>
</linearGradient>
<linearGradient id="paint4_linear_126_3209" x1="32.8774" y1="11.4696" x2="31.1274" y2="9.53041" gradientUnits="userSpaceOnUse">
<stop stop-color="#0060AA"/>
<stop offset="1" stop-color="#0E94FB"/>
</linearGradient>
<linearGradient id="paint5_linear_126_3209" x1="16.2524" y1="16.7196" x2="14.5024" y2="14.7804" gradientUnits="userSpaceOnUse">
<stop stop-color="#0060AA"/>
<stop offset="1" stop-color="#0E94FB"/>
</linearGradient>
<linearGradient id="paint6_linear_126_3209" x1="42.5024" y1="16.7196" x2="40.7524" y2="14.7804" gradientUnits="userSpaceOnUse">
<stop stop-color="#0060AA"/>
<stop offset="1" stop-color="#0E94FB"/>
</linearGradient>
<linearGradient id="paint7_linear_126_3209" x1="46.8774" y1="25.4696" x2="45.1274" y2="23.5304" gradientUnits="userSpaceOnUse">
<stop stop-color="#0060AA"/>
<stop offset="1" stop-color="#0E94FB"/>
</linearGradient>
<linearGradient id="paint8_linear_126_3209" x1="11.8774" y1="28.9696" x2="10.1274" y2="27.0304" gradientUnits="userSpaceOnUse">
<stop stop-color="#0060AA"/>
<stop offset="1" stop-color="#0E94FB"/>
</linearGradient>
<linearGradient id="paint9_linear_126_3209" x1="48.6274" y1="32.4696" x2="46.8774" y2="30.5304" gradientUnits="userSpaceOnUse">
<stop stop-color="#0060AA"/>
<stop offset="1" stop-color="#0E94FB"/>
</linearGradient>
<linearGradient id="paint10_linear_126_3209" x1="16.2524" y1="41.2196" x2="14.5024" y2="39.2804" gradientUnits="userSpaceOnUse">
<stop stop-color="#0060AA"/>
<stop offset="1" stop-color="#0E94FB"/>
</linearGradient>
<linearGradient id="paint11_linear_126_3209" x1="42.5024" y1="41.2196" x2="40.7524" y2="39.2804" gradientUnits="userSpaceOnUse">
<stop stop-color="#0060AA"/>
<stop offset="1" stop-color="#0E94FB"/>
</linearGradient>
<linearGradient id="paint12_linear_126_3209" x1="32.8774" y1="46.4696" x2="31.1274" y2="44.5304" gradientUnits="userSpaceOnUse">
<stop stop-color="#0060AA"/>
<stop offset="1" stop-color="#0E94FB"/>
</linearGradient>
<linearGradient id="paint13_linear_126_3209" x1="25.8774" y1="49.0946" x2="24.1274" y2="47.1554" gradientUnits="userSpaceOnUse">
<stop stop-color="#0060AA"/>
<stop offset="1" stop-color="#0E94FB"/>
</linearGradient>
</defs>
</svg>
