<svg width="57" height="56" viewBox="0 0 57 56" fill="none" xmlns="http://www.w3.org/2000/svg">
<path d="M48.0762 1.00606C47.7809 1.06075 47.1355 1.30137 46.6434 1.53106C44.8605 2.38419 43.5809 4.14512 43.2965 6.11387L43.1652 6.99981H22.1871H1.20898V24.4998V41.9998L14.3668 42.0217L27.5137 42.0545L27.5902 42.7654C27.7871 44.592 28.4871 46.6701 29.4168 48.2232C32.1293 52.7295 36.9637 55.3436 42.1152 55.0811C45.7246 54.9061 48.7434 53.5607 51.3137 50.9795C53.8949 48.4092 55.2402 45.3904 55.4152 41.7811C55.623 37.7451 54.059 33.8623 51.0949 31.0295L50.209 30.1873V21.6123V13.0483L50.8105 12.917C52.2215 12.5998 53.8293 11.4295 54.5512 10.2045C56.0059 7.72169 55.6449 4.70294 53.6543 2.70137C52.2105 1.23575 50.1543 0.61231 48.0762 1.00606ZM51.1277 3.04044C52.123 3.49981 52.7574 4.13419 53.2496 5.11856C53.6324 5.90606 53.6543 6.0045 53.6543 6.99981C53.6543 7.99512 53.6324 8.09356 53.2496 8.88106C52.7574 9.87637 52.123 10.4889 51.1059 10.9701C50.4387 11.2873 50.2746 11.3201 49.334 11.3201C48.3934 11.3201 48.2293 11.2873 47.584 10.9811C46.5449 10.4779 45.9105 9.87637 45.4293 8.88106C45.0355 8.09356 45.0137 7.99512 45.0137 7.01075C45.0137 6.05919 45.0465 5.89512 45.3637 5.22794C45.8012 4.29825 46.4246 3.62012 47.2449 3.19356C48.098 2.73419 48.5793 2.62481 49.5746 2.66856C50.2418 2.70137 50.5809 2.78887 51.1277 3.04044ZM43.5918 9.067C43.6246 9.242 43.8324 9.66856 44.0402 10.0186L44.423 10.6529L41.7652 13.3108C39.6215 15.4654 39.0637 15.9686 38.8887 15.9139C38.3855 15.7608 37.6309 15.7279 37.248 15.8592L36.8434 15.9904L35.9574 15.1154C35.0934 14.2514 35.0824 14.2404 35.2137 13.8904C35.7496 12.3373 34.3934 10.4998 32.709 10.4998C32.0199 10.4998 31.4621 10.7514 30.9043 11.3201C30.1387 12.0748 29.898 12.9936 30.2043 13.8904L30.3355 14.2404L28.159 16.417C26.409 18.167 25.9387 18.5936 25.7637 18.5389C24.6699 18.2108 23.7949 18.4186 23.0293 19.1842C21.9246 20.2998 21.9246 21.6998 23.0293 22.8045C24.134 23.9092 25.534 23.9092 26.6496 22.8045C27.4152 22.0389 27.623 21.1639 27.2949 20.0701C27.2402 19.8951 27.6668 19.4248 29.4168 17.6748L31.5934 15.4983L31.9434 15.6295C32.4027 15.7826 33.0152 15.7826 33.4746 15.6295C33.8246 15.4983 33.8355 15.5092 34.6996 16.3842C35.5746 17.2483 35.5855 17.2592 35.4543 17.6092C34.9184 19.1623 36.2746 20.9998 37.959 20.9998C38.648 20.9998 39.2059 20.7483 39.7746 20.1795C40.5402 19.4139 40.748 18.5389 40.4199 17.4451C40.3652 17.2701 40.8793 16.7123 43.023 14.5686L45.6809 11.9108L46.3152 12.2936C46.6652 12.5014 47.2887 12.7639 47.7043 12.8733L48.459 13.0592V21.0326C48.459 25.4186 48.4262 28.9842 48.3824 28.9623C46.5012 27.9998 45.1668 27.5514 43.4277 27.2889C39.2824 26.6545 35.0059 28.0217 31.8887 30.9748L30.959 31.8498V29.9248V27.9998H28.334H25.709V33.2498V38.4998H26.6934H27.6887L27.6121 39.2326C27.5793 39.6482 27.5355 40.042 27.5027 40.1076C27.4699 40.217 24.9215 40.2498 15.209 40.2498H2.95898V24.4998V8.74981H23.2371H43.5152L43.5918 9.067ZM33.3105 12.5233C33.4855 12.6873 33.584 12.917 33.584 13.1248C33.584 13.3326 33.4855 13.5623 33.3105 13.7264C33.1465 13.9014 32.9168 13.9998 32.709 13.9998C32.5012 13.9998 32.2715 13.9014 32.1074 13.7264C31.9324 13.5623 31.834 13.3326 31.834 13.1248C31.834 12.917 31.9324 12.6873 32.1074 12.5233C32.2715 12.3483 32.5012 12.2498 32.709 12.2498C32.9168 12.2498 33.1465 12.3483 33.3105 12.5233ZM38.5605 17.7733C38.7355 17.9373 38.834 18.167 38.834 18.3748C38.834 18.5826 38.7355 18.8123 38.5605 18.9764C38.3965 19.1514 38.1668 19.2498 37.959 19.2498C37.7512 19.2498 37.5215 19.1514 37.3574 18.9764C37.1824 18.8123 37.084 18.5826 37.084 18.3748C37.084 18.167 37.1824 17.9373 37.3574 17.7733C37.5215 17.5983 37.7512 17.4998 37.959 17.4998C38.1668 17.4998 38.3965 17.5983 38.5605 17.7733ZM25.4355 20.3983C25.9824 20.9342 25.5996 21.8748 24.834 21.8748C24.3855 21.8748 23.959 21.4483 23.959 20.9998C23.959 20.5514 24.3855 20.1248 24.834 20.1248C25.0418 20.1248 25.2715 20.2233 25.4355 20.3983ZM40.5402 32.3311C40.5184 32.3967 40.2449 32.4842 39.9277 32.5279C39.0527 32.6482 37.598 33.217 36.7121 33.7967C33.3434 35.9951 31.8668 40.2717 33.2121 43.9686C33.3543 44.3623 33.4309 44.7123 33.3871 44.7561C33.3434 44.7889 32.6762 45.1936 31.8887 45.642L30.4668 46.4623L30.2152 45.9154C28.8262 42.8529 28.9027 39.0029 30.4121 35.8857C32.1949 32.2107 35.6621 29.6186 39.5777 29.0498L40.5293 28.9186L40.5621 30.5592C40.573 31.467 40.573 32.2545 40.5402 32.3311ZM44.7949 29.3779C50.5809 30.9857 54.4199 36.7936 53.5887 42.7217C53.4574 43.7061 53.0637 45.1279 52.7027 45.9154L52.4512 46.4623L51.0074 45.6311C50.2199 45.1607 49.5418 44.7561 49.509 44.7232C49.4762 44.6904 49.5527 44.3951 49.673 44.067C50.7559 41.2451 50.1434 37.8654 48.1309 35.492C46.8074 33.9389 45.0574 32.9217 43.0996 32.5498L42.3887 32.4186L42.3559 30.6686L42.334 28.9076L43.0668 29.0061C43.4824 29.0607 44.259 29.2248 44.7949 29.3779ZM29.209 32.0357V34.3107L28.7824 35.2295C28.5418 35.7326 28.3121 36.2795 28.2793 36.4436C28.2137 36.7061 28.148 36.7498 27.8309 36.7498H27.459V33.2498V29.7498H28.334H29.209V32.0357ZM42.9355 34.2889C45.298 34.7811 47.409 36.7279 48.1637 39.1014C48.3605 39.7248 48.4043 40.1186 48.4043 41.1795C48.3934 42.317 48.3496 42.6014 48.109 43.2904C47.7043 44.4279 47.2012 45.2154 46.3809 46.0467C45.5496 46.8779 44.5543 47.4904 43.4824 47.8295C42.859 48.0264 42.4652 48.0701 41.4043 48.0701C40.2668 48.0592 39.9824 48.0154 39.2934 47.7748C38.1449 47.3592 37.3684 46.867 36.4824 45.992C34.3715 43.892 33.8684 40.6982 35.2246 37.9967C36.6684 35.142 39.7965 33.6326 42.9355 34.2889ZM35.1262 47.0857C37.2262 49.2951 40.1465 50.2686 43.0121 49.7217C44.9043 49.3607 46.4684 48.4857 47.8355 47.042L48.5793 46.2545L50.0449 47.0967C50.8543 47.5561 51.5215 47.9607 51.5215 48.0045C51.5215 48.3436 49.9574 50.0279 48.9074 50.8045C47.3652 51.9748 45.6152 52.7732 43.7012 53.1779C42.859 53.3529 40.059 53.3529 39.2168 53.1779C36.6902 52.642 34.4699 51.4389 32.7309 49.6779C31.8996 48.8467 31.3199 48.0592 31.4293 47.9389C31.4949 47.8842 34.2621 46.2764 34.3277 46.2654C34.3387 46.2654 34.6996 46.6373 35.1262 47.0857Z" fill="url(#paint0_linear_126_3181)"/>
<path d="M4.70898 11.375V12.25H5.58398H6.45898V11.375V10.5H5.58398H4.70898V11.375Z" fill="url(#paint1_linear_126_3181)"/>
<path d="M8.20898 11.375V12.25H14.334H20.459V11.375V10.5H14.334H8.20898V11.375Z" fill="url(#paint2_linear_126_3181)"/>
<path d="M4.70898 14.875V15.75H5.58398H6.45898V14.875V14H5.58398H4.70898V14.875Z" fill="url(#paint3_linear_126_3181)"/>
<path d="M8.20898 14.875V15.75H14.334H20.459V14.875V14H14.334H8.20898V14.875Z" fill="url(#paint4_linear_126_3181)"/>
<path d="M4.70898 18.375V19.25H5.58398H6.45898V18.375V17.5H5.58398H4.70898V18.375Z" fill="url(#paint5_linear_126_3181)"/>
<path d="M8.20898 18.375V19.25H14.334H20.459V18.375V17.5H14.334H8.20898V18.375Z" fill="url(#paint6_linear_126_3181)"/>
<path d="M4.70898 21.875V22.75H5.58398H6.45898V21.875V21H5.58398H4.70898V21.875Z" fill="url(#paint7_linear_126_3181)"/>
<path d="M8.20898 21.875V22.75H14.334H20.459V21.875V21H14.334H8.20898V21.875Z" fill="url(#paint8_linear_126_3181)"/>
<path d="M18.709 31.5V38.5H21.334H23.959V31.5V24.5H21.334H18.709V31.5ZM22.209 31.5V36.75H21.334H20.459V31.5V26.25H21.334H22.209V31.5Z" fill="url(#paint9_linear_126_3181)"/>
<path d="M4.70898 34.125V38.5H7.33398H9.95898V34.125V29.75H7.33398H4.70898V34.125ZM8.20898 34.125V36.75H7.33398H6.45898V34.125V31.5H7.33398H8.20898V34.125Z" fill="url(#paint10_linear_126_3181)"/>
<path d="M11.709 35V38.5H14.334H16.959V35V31.5H14.334H11.709V35ZM15.209 35V36.75H14.334H13.459V35V33.25H14.334H15.209V35Z" fill="url(#paint11_linear_126_3181)"/>
<path d="M40.1576 36.0499C37.3904 36.7937 35.6733 39.6702 36.3733 42.3827C37.1061 45.1827 39.9717 46.9218 42.717 46.2109C45.517 45.4781 47.2561 42.6124 46.5451 39.889C45.8123 37.0562 42.9029 35.3062 40.1576 36.0499ZM43.1108 38.0734C43.8436 38.4671 44.1826 38.8171 44.6092 39.6374C44.8498 40.1077 44.8936 40.3374 44.8936 41.1249C44.9045 41.9781 44.8717 42.1093 44.5326 42.7437C44.117 43.5093 43.767 43.8374 42.9467 44.2749C42.4764 44.5156 42.2467 44.5593 41.4592 44.5593C40.6717 44.5593 40.442 44.5156 39.9717 44.2749C39.1514 43.8374 38.8014 43.5093 38.3858 42.7437C38.0467 42.1093 38.0139 41.9781 38.0248 41.1249C38.0248 40.0312 38.2873 39.3749 38.9983 38.664C40.092 37.5702 41.7217 37.3406 43.1108 38.0734Z" fill="url(#paint12_linear_126_3181)"/>
<defs>
<linearGradient id="paint0_linear_126_3181" x1="50.3079" y1="58.0293" x2="-3.89873" y2="-2.05962" gradientUnits="userSpaceOnUse">
<stop stop-color="#0060AA"/>
<stop offset="1" stop-color="#0E94FB"/>
</linearGradient>
<linearGradient id="paint1_linear_126_3181" x1="6.29344" y1="12.3446" x2="4.54344" y2="10.4054" gradientUnits="userSpaceOnUse">
<stop stop-color="#0060AA"/>
<stop offset="1" stop-color="#0E94FB"/>
</linearGradient>
<linearGradient id="paint2_linear_126_3181" x1="19.3002" y1="12.3446" x2="18.854" y2="8.88366" gradientUnits="userSpaceOnUse">
<stop stop-color="#0060AA"/>
<stop offset="1" stop-color="#0E94FB"/>
</linearGradient>
<linearGradient id="paint3_linear_126_3181" x1="6.29344" y1="15.8446" x2="4.54344" y2="13.9054" gradientUnits="userSpaceOnUse">
<stop stop-color="#0060AA"/>
<stop offset="1" stop-color="#0E94FB"/>
</linearGradient>
<linearGradient id="paint4_linear_126_3181" x1="19.3002" y1="15.8446" x2="18.854" y2="12.3837" gradientUnits="userSpaceOnUse">
<stop stop-color="#0060AA"/>
<stop offset="1" stop-color="#0E94FB"/>
</linearGradient>
<linearGradient id="paint5_linear_126_3181" x1="6.29344" y1="19.3446" x2="4.54344" y2="17.4054" gradientUnits="userSpaceOnUse">
<stop stop-color="#0060AA"/>
<stop offset="1" stop-color="#0E94FB"/>
</linearGradient>
<linearGradient id="paint6_linear_126_3181" x1="19.3002" y1="19.3446" x2="18.854" y2="15.8837" gradientUnits="userSpaceOnUse">
<stop stop-color="#0060AA"/>
<stop offset="1" stop-color="#0E94FB"/>
</linearGradient>
<linearGradient id="paint7_linear_126_3181" x1="6.29344" y1="22.8446" x2="4.54344" y2="20.9054" gradientUnits="userSpaceOnUse">
<stop stop-color="#0060AA"/>
<stop offset="1" stop-color="#0E94FB"/>
</linearGradient>
<linearGradient id="paint8_linear_126_3181" x1="19.3002" y1="22.8446" x2="18.854" y2="19.3837" gradientUnits="userSpaceOnUse">
<stop stop-color="#0060AA"/>
<stop offset="1" stop-color="#0E94FB"/>
</linearGradient>
<linearGradient id="paint9_linear_126_3181" x1="23.4624" y1="39.2568" x2="13.4882" y2="35.1121" gradientUnits="userSpaceOnUse">
<stop stop-color="#0060AA"/>
<stop offset="1" stop-color="#0E94FB"/>
</linearGradient>
<linearGradient id="paint10_linear_126_3181" x1="9.46236" y1="38.973" x2="1.35132" y2="33.5802" gradientUnits="userSpaceOnUse">
<stop stop-color="#0060AA"/>
<stop offset="1" stop-color="#0E94FB"/>
</linearGradient>
<linearGradient id="paint11_linear_126_3181" x1="16.4624" y1="38.8784" x2="9.54421" y2="33.1288" gradientUnits="userSpaceOnUse">
<stop stop-color="#0060AA"/>
<stop offset="1" stop-color="#0E94FB"/>
</linearGradient>
<linearGradient id="paint12_linear_126_3181" x1="45.7123" y1="46.9372" x2="35.2204" y2="35.3154" gradientUnits="userSpaceOnUse">
<stop stop-color="#0060AA"/>
<stop offset="1" stop-color="#0E94FB"/>
</linearGradient>
</defs>
</svg>
