<svg width="56" height="56" viewBox="0 0 56 56" fill="none" xmlns="http://www.w3.org/2000/svg">
<path d="M36.4109 1.81563C35.9406 1.90313 35.7109 2.275 35.2844 3.63125C34.7703 5.29375 34.7812 5.29375 33.0312 4.42969C32.0031 3.91563 31.6859 3.80625 31.4344 3.87188C31.0297 3.98125 29.3562 5.65469 29.2469 6.05938C29.1812 6.31094 29.2906 6.62813 29.8047 7.65625C30.6687 9.40625 30.6687 9.39531 29.0062 9.90938C28.2078 10.1609 27.6281 10.4016 27.4531 10.5656C27.1906 10.8281 27.1797 10.8828 27.1797 12.25C27.1797 13.6172 27.1906 13.6719 27.4531 13.9344C27.6281 14.0984 28.2078 14.3391 29.0062 14.5906C30.6687 15.1047 30.6687 15.0938 29.8047 16.8438C29.2906 17.8719 29.1812 18.1891 29.2469 18.4406C29.3562 18.8453 31.0297 20.5188 31.4344 20.6281C31.6859 20.6938 32.0031 20.5844 33.0312 20.0703C34.7812 19.2063 34.7703 19.2063 35.2844 20.8688C35.5359 21.6672 35.7766 22.2469 35.9406 22.4219C36.2031 22.6844 36.2578 22.6953 37.625 22.6953C38.9922 22.6953 39.0469 22.6844 39.3094 22.4219C39.4734 22.2469 39.7141 21.6672 39.9656 20.8688C40.4797 19.2172 40.4906 19.2063 42.2406 20.0813C43.2578 20.5844 43.5531 20.6938 43.8047 20.6281C44.2203 20.5188 45.8937 18.8453 46.0031 18.4406C46.0687 18.1891 45.9594 17.8719 45.4453 16.8438C44.5812 15.0938 44.5812 15.1047 46.2437 14.5906C47.0531 14.3391 47.6219 14.0984 47.7969 13.9344C48.0594 13.6719 48.0703 13.6172 48.0703 12.25C48.0703 10.8828 48.0594 10.8281 47.7969 10.5656C47.6219 10.4016 47.0531 10.1609 46.2437 9.90938C44.5812 9.39531 44.5812 9.40625 45.4453 7.65625C45.9594 6.62813 46.0687 6.31094 46.0031 6.05938C45.8937 5.65469 44.2203 3.98125 43.8047 3.87188C43.5531 3.80625 43.2578 3.91563 42.2406 4.41875C40.4906 5.29375 40.4797 5.28281 39.9656 3.63125C39.4187 1.87031 39.375 1.82656 37.8766 1.79375C37.2312 1.78281 36.5641 1.79375 36.4109 1.81563ZM38.4781 4.75781C38.675 5.41406 38.9266 6.0375 39.025 6.14688C39.1234 6.24531 39.6047 6.475 40.0859 6.67188L40.95 7.01094L42.1859 6.40938C43.2141 5.90625 43.4656 5.81875 43.6297 5.92813C44.1219 6.23438 44.1109 6.37656 43.4656 7.68906L42.8641 8.925L43.2031 9.78906C43.4 10.2703 43.6297 10.7516 43.7281 10.85C43.8375 10.9484 44.4609 11.2 45.1172 11.3969L46.3203 11.7688V12.25V12.7313L45.1172 13.1031C44.4609 13.3 43.8375 13.5516 43.7281 13.65C43.6297 13.7484 43.4 14.2297 43.2031 14.7109L42.8641 15.575L43.4656 16.8109C43.9687 17.8391 44.0562 18.0906 43.9469 18.2547C43.6406 18.7469 43.4984 18.7359 42.1859 18.0906L40.95 17.4891L40.0859 17.8281C39.6047 18.025 39.1234 18.2547 39.025 18.3531C38.9266 18.4625 38.675 19.075 38.4781 19.7422L38.1062 20.9453H37.625H37.1437L36.7719 19.7422C36.575 19.075 36.3234 18.4625 36.225 18.3531C36.1266 18.2547 35.6453 18.025 35.1641 17.8281L34.3 17.4891L33.0641 18.0906C31.7516 18.7359 31.6094 18.7469 31.3031 18.2547C31.1937 18.0906 31.2812 17.8391 31.7844 16.8109L32.3859 15.575L32.0469 14.7109C31.85 14.2297 31.6203 13.7484 31.5219 13.65C31.4125 13.5516 30.8 13.3 30.1328 13.0922L28.9297 12.7203V12.25V11.7797L30.1328 11.4078C30.8 11.2 31.4125 10.9484 31.5219 10.85C31.6203 10.7516 31.85 10.2703 32.0469 9.78906L32.3859 8.925L31.7844 7.68906C31.1391 6.37656 31.1281 6.23438 31.6203 5.92813C31.7844 5.81875 32.0359 5.90625 33.0641 6.40938L34.3 7.01094L35.1641 6.67188C35.6453 6.475 36.1266 6.24531 36.225 6.14688C36.3234 6.0375 36.5641 5.44688 36.7609 4.8125C36.9469 4.17813 37.1328 3.62031 37.1547 3.57656C37.1875 3.53281 37.4062 3.5 37.6578 3.52188L38.1062 3.55469L38.4781 4.75781Z" fill="url(#paint0_linear_126_3150)"/>
<path d="M36.5969 7.98438C35.9078 8.15938 34.9234 8.75 34.4422 9.26406C34.2016 9.52656 33.8406 10.0734 33.6547 10.4781C33.3375 11.1453 33.3047 11.3094 33.3047 12.2609C33.3047 13.2453 33.3266 13.3438 33.7094 14.1313C34.2016 15.1266 34.8359 15.7391 35.8531 16.2203C36.5203 16.5375 36.6844 16.5703 37.625 16.5703C38.5656 16.5703 38.7297 16.5375 39.3969 16.2203C40.4141 15.7391 41.0484 15.1266 41.5406 14.1313C41.9234 13.3438 41.9453 13.2453 41.9453 12.25C41.9453 11.2547 41.9234 11.1563 41.5406 10.3688C40.7969 8.88125 39.4844 7.99531 37.8656 7.91875C37.4062 7.89688 36.8375 7.92969 36.5969 7.98438ZM38.4344 9.75625C39.375 10.0406 40.25 11.2438 40.25 12.25C40.25 13.6063 38.9812 14.875 37.625 14.875C36.9359 14.875 36.3781 14.6234 35.8203 14.0547C34.7047 12.95 34.7047 11.55 35.8203 10.4453C36.5859 9.66875 37.4062 9.46094 38.4344 9.75625Z" fill="url(#paint1_linear_126_3150)"/>
<path d="M48.4524 3.69688C48.2555 3.86094 48.1352 4.27656 47.7415 6.2125C47.4899 7.49219 47.3149 8.55313 47.3477 8.58594C47.4899 8.6625 48.8899 8.89219 48.9446 8.84844C48.9774 8.81563 49.0868 8.33438 49.2071 7.77656C49.3165 7.22969 49.4368 6.74844 49.4696 6.71563C49.5024 6.68281 49.6665 7.04375 49.8524 7.51406C51.4165 11.6156 50.9024 16.0234 48.4305 19.6656C48.1352 20.1141 47.9055 20.4859 47.9274 20.4969C47.9493 20.5078 48.2446 20.7594 48.6055 21.0328L49.2399 21.5469L49.4368 21.3063C50.6946 19.6875 51.7774 17.2813 52.2368 15.0391C52.4774 13.8469 52.5211 10.9594 52.3024 9.78906C52.1274 8.85938 51.5915 7.07656 51.2415 6.27813C51.0665 5.89531 51.0227 5.6875 51.1102 5.6875C51.1868 5.69844 51.668 5.78594 52.204 5.89531C52.729 6.00469 53.1774 6.07031 53.1993 6.02656C53.2868 5.87344 53.5055 4.47344 53.4508 4.41875C53.3852 4.34219 49.1524 3.5 48.879 3.5C48.7805 3.5 48.5836 3.5875 48.4524 3.69688Z" fill="url(#paint2_linear_126_3150)"/>
<path d="M20.0922 12.2281C19.8078 12.5125 19.5781 12.7969 19.5781 12.8516C19.5781 12.9062 19.8078 13.1906 20.0922 13.475L20.6062 14H19.3922C14.1422 14 9.07812 15.7719 4.9875 19.0312C3.98125 19.8297 1.85938 21.9406 1.85938 22.1375C1.85938 22.2141 2.14375 22.4984 2.48281 22.7828L3.11719 23.2969L3.90469 22.4437C4.33125 21.9734 5.09687 21.2406 5.6 20.8141C9.45 17.5547 14.35 15.75 19.3703 15.75C19.9609 15.75 20.4531 15.7937 20.4531 15.8375C20.4531 15.8812 20.2562 16.1219 20.0156 16.3516C19.775 16.5812 19.5781 16.8219 19.5781 16.8766C19.5781 16.9969 20.6281 18.0469 20.7594 18.0469C20.8031 18.0469 21.4703 17.4125 22.2359 16.6469C23.4609 15.4109 23.625 15.1922 23.625 14.875C23.625 14.5578 23.4609 14.3391 22.2359 13.1031C21.4703 12.3375 20.7922 11.7031 20.7266 11.7031C20.6609 11.7031 20.3766 11.9437 20.0922 12.2281Z" fill="url(#paint3_linear_126_3150)"/>
<path d="M17.8172 19.3156C17.3469 19.4031 17.1062 19.7859 16.8984 20.7266C16.8 21.2078 16.6469 21.9297 16.5594 22.3344L16.3953 23.0563L15.6187 23.2531L14.8422 23.4391L14.4594 23.0125C12.8406 21.2188 12.5016 20.8906 12.2062 20.8906C11.7687 20.8906 9.87656 21.8859 9.22031 22.4656C8.85937 22.7719 8.90312 23.1328 9.46094 24.8281L9.94219 26.3047L9.38437 26.8734L8.82656 27.4313L8.32344 27.2781C8.05 27.2016 7.38281 26.9828 6.84687 26.7969C5.53437 26.3594 5.23906 26.3594 4.83437 26.8625C4.36406 27.4313 3.39062 29.3453 3.39062 29.6953C3.39062 30.0016 3.69687 30.3188 5.5125 31.9594L5.93906 32.3422L5.75312 33.1188L5.55625 33.8953L4.83437 34.0594C4.42969 34.1469 3.69687 34.3 3.20469 34.4094C1.82656 34.6938 1.80469 34.7484 1.80469 36.75C1.80469 38.7516 1.82656 38.8063 3.20469 39.0906C3.69687 39.2 4.42969 39.3531 4.83437 39.4406L5.55625 39.6047L5.75312 40.3813L5.93906 41.1578L5.5125 41.5406C3.71875 43.1594 3.39062 43.4984 3.39062 43.7938C3.39062 44.3188 4.71406 46.6922 5.12969 46.9219C5.46875 47.0969 5.79687 47.0531 6.84687 46.7031C7.38281 46.5172 8.05 46.2984 8.32344 46.2219L8.82656 46.0688L9.38437 46.6266L9.94219 47.1953L9.46094 48.6719C8.96875 50.1484 8.90312 50.4656 9.03437 50.8047C9.19844 51.2094 11.6484 52.6094 12.2062 52.6094C12.5016 52.6094 12.8406 52.2813 14.4594 50.4875L14.8422 50.0609L15.6187 50.2469L16.3953 50.4438L16.5594 51.1656C16.6469 51.5703 16.8 52.3031 16.9094 52.7953C17.1937 54.1734 17.2484 54.1953 19.25 54.1953C21.2516 54.1953 21.3062 54.1734 21.5906 52.7953C21.7 52.3031 21.8531 51.5703 21.9406 51.1656L22.1047 50.4438L22.8812 50.2469L23.6578 50.0609L24.0406 50.4875C25.6812 52.3031 25.9984 52.6094 26.3047 52.6094C26.6875 52.6094 28.6891 51.5703 29.1703 51.1219C29.6406 50.6734 29.6406 50.4766 29.0391 48.6719L28.5578 47.1953L29.1156 46.6266L29.6734 46.0688L30.1766 46.2219C30.45 46.2984 31.1172 46.5172 31.6531 46.7031C32.9328 47.1297 33.1844 47.1297 33.6219 46.6703C34.0703 46.1891 35.1094 44.1875 35.1094 43.8047C35.1094 43.4766 34.9234 43.2688 33.425 41.9344L32.5609 41.1578L32.7578 40.3813C32.8562 39.9438 32.9656 39.5938 32.9875 39.5938C33.0094 39.5938 33.7203 39.4406 34.5844 39.2547C36.7609 38.7844 36.6953 38.8609 36.6953 36.75C36.6953 34.6391 36.7609 34.7156 34.5844 34.2453C33.7203 34.0594 33.0094 33.9063 32.9875 33.9063C32.9656 33.9063 32.8562 33.5563 32.7578 33.1188L32.5609 32.3422L33.425 31.5656C34.9016 30.2422 35.1094 30.0125 35.1094 29.7063C35.1094 29.2688 34.1141 27.3766 33.5344 26.7094C33.2281 26.3594 32.8672 26.4031 31.1719 26.9609L29.6953 27.4422L29.1156 26.8734L28.5469 26.3047L29.0391 24.8281C29.6406 23.0453 29.6516 22.8266 29.1703 22.3781C28.6891 21.9297 26.6875 20.8906 26.3047 20.8906C25.9984 20.8906 25.6812 21.1969 24.0406 23.0125L23.6578 23.4391L22.8812 23.2531L22.1047 23.0563L21.9406 22.3344C21.8531 21.9297 21.7 21.1969 21.5906 20.7047C21.3062 19.3703 21.2297 19.3156 19.4906 19.2938C18.725 19.2828 17.9703 19.2938 17.8172 19.3156ZM20.2125 22.5969C20.4094 23.4938 20.6391 24.2922 20.7375 24.4016C20.8359 24.5109 21.1969 24.6531 21.5359 24.7297C21.875 24.7953 22.5312 24.9703 23.0125 25.1234C23.4828 25.2656 23.975 25.3641 24.1062 25.3313C24.3031 25.2875 24.9703 24.6094 26.4141 22.9906C26.5234 22.8703 26.6437 22.8922 27.1031 23.1219L27.6609 23.4063L27.3984 24.2484C27.2453 24.7188 27.0375 25.3969 26.9062 25.7469C26.7859 26.1078 26.6875 26.5125 26.6875 26.6438C26.6875 26.9938 28.9953 29.3125 29.3453 29.3125C29.4766 29.3125 30.2641 29.0938 31.0844 28.8313L32.5828 28.35L32.8672 28.8531C33.0203 29.1266 33.1297 29.3891 33.1187 29.4328C33.0969 29.4766 32.5609 29.9906 31.9047 30.5703C31.2594 31.1609 30.7016 31.7516 30.6687 31.8828C30.6359 32.025 30.7344 32.5172 30.8766 32.9875C31.0297 33.4688 31.2047 34.125 31.2703 34.4641C31.3469 34.8031 31.4891 35.1641 31.5875 35.2625C31.6969 35.35 32.5062 35.5906 33.3922 35.7875L35 36.1375V36.75V37.3625L33.3922 37.7125C32.5062 37.9094 31.6969 38.15 31.5875 38.2375C31.4891 38.3359 31.3469 38.6969 31.2703 39.0359C31.2047 39.375 31.0297 40.0313 30.8766 40.5125C30.7344 40.9828 30.6359 41.475 30.6687 41.6063C30.7125 41.8031 31.3906 42.4703 33.0094 43.9141C33.1297 44.0234 33.1078 44.1438 32.8781 44.6031L32.6047 45.15L32.1344 45.0078C31.8719 44.9313 31.1937 44.7125 30.6141 44.5266C30.0344 44.3406 29.4547 44.1875 29.3344 44.1875C28.9953 44.1875 26.6875 46.5172 26.6875 46.8563C26.6875 46.9875 26.7859 47.3922 26.9062 47.7531C27.0375 48.1031 27.2453 48.7813 27.3984 49.2516L27.6609 50.0938L27.1031 50.3781C26.6437 50.6078 26.5234 50.6297 26.4141 50.5094C24.9703 48.8906 24.3031 48.2125 24.1062 48.1688C23.975 48.1359 23.4828 48.2344 23.0125 48.3766C22.5312 48.5297 21.875 48.7047 21.5359 48.7703C21.1969 48.8469 20.8359 48.9891 20.7375 49.0875C20.65 49.1969 20.4094 50.0063 20.2125 50.8922L19.8625 52.5H19.25H18.6375L18.2875 50.9031C18.0906 50.0063 17.8609 49.2078 17.7625 49.0984C17.6641 48.9891 17.3031 48.8469 16.9641 48.7703C16.625 48.7047 15.9687 48.5297 15.4875 48.3766C15.0172 48.2344 14.525 48.1359 14.3937 48.1688C14.1969 48.2125 13.5734 48.8469 12.075 50.5203C11.9656 50.6406 11.8562 50.6188 11.3969 50.3672L10.85 50.0719L11.1125 49.2406C11.2547 48.7703 11.4625 48.1031 11.5937 47.7531C11.7141 47.3922 11.8125 46.9875 11.8125 46.8563C11.8125 46.5172 9.50469 44.1875 9.16562 44.1875C8.97969 44.1875 7.83125 44.5266 6.22344 45.0516C5.95 45.15 5.90625 45.1172 5.63281 44.6031C5.38125 44.1438 5.35937 44.0344 5.47969 43.925C7.07656 42.5031 7.77656 41.8141 7.83125 41.6172C7.86406 41.475 7.76562 40.9828 7.62344 40.5125C7.47031 40.0313 7.29531 39.375 7.22969 39.0359C7.15312 38.6969 7.01094 38.3359 6.90156 38.2375C6.78125 38.1281 6.00469 37.8984 5.09687 37.7125L3.5 37.3625V36.75V36.1375L5.09687 35.7875C6.00469 35.6016 6.78125 35.3719 6.90156 35.2625C7.01094 35.1641 7.15312 34.8031 7.22969 34.4641C7.29531 34.125 7.47031 33.4688 7.62344 32.9875C7.76562 32.5172 7.86406 32.0141 7.83125 31.8828C7.79844 31.7406 7.24062 31.15 6.59531 30.5703C5.93906 29.9797 5.40312 29.4656 5.38125 29.4328C5.37031 29.3891 5.47969 29.1266 5.63281 28.8531L5.91719 28.35L6.75937 28.6125C7.21875 28.7547 7.89687 28.9625 8.24687 29.0938C8.60781 29.2141 9.0125 29.3125 9.14375 29.3125C9.50469 29.3125 11.8125 27.0047 11.8125 26.6438C11.8125 26.5125 11.7141 26.1078 11.5937 25.7469C11.4625 25.3969 11.2547 24.7188 11.1125 24.2594L10.85 23.4172L11.3531 23.1328C11.6266 22.9797 11.8891 22.8703 11.9328 22.8813C11.9766 22.9031 12.4906 23.4391 13.0703 24.0953C13.6609 24.7406 14.2516 25.2984 14.3828 25.3313C14.525 25.3641 15.0172 25.2656 15.4875 25.1234C15.9687 24.9703 16.625 24.7953 16.9641 24.7297C17.3031 24.6531 17.6641 24.5109 17.7625 24.4016C17.8609 24.2922 18.0906 23.4938 18.2875 22.5969L18.6375 21H19.25H19.8625L20.2125 22.5969Z" fill="url(#paint4_linear_126_3150)"/>
<path d="M17.4554 27.3001C13.6273 27.9892 10.4663 31.1939 9.78821 35.0548C8.65071 41.6173 14.3491 47.3595 20.8679 46.222C26.107 45.3033 29.6288 40.3158 28.721 35.1205C27.7913 29.8267 22.771 26.3376 17.4554 27.3001ZM21.6007 29.247C22.8366 29.6408 23.7663 30.2205 24.7726 31.2267C25.7679 32.222 26.3476 33.1408 26.7632 34.3986C27.0148 35.1751 27.0476 35.4486 27.0476 36.7501C27.0476 38.0517 27.0148 38.3251 26.7632 39.1017C26.3476 40.3595 25.7679 41.2783 24.7726 42.2736C23.7773 43.2689 22.8585 43.8486 21.6007 44.2642C20.8241 44.5158 20.5507 44.5486 19.2491 44.5486C17.9476 44.5486 17.6741 44.5158 16.8976 44.2642C15.6507 43.8486 14.732 43.2798 13.7257 42.2736C12.7304 41.2783 12.1507 40.3595 11.7351 39.1017C11.4835 38.3251 11.4507 38.0517 11.4507 36.7501C11.4507 35.4486 11.4835 35.1751 11.7351 34.3986C12.1507 33.1408 12.7304 32.222 13.7257 31.2267C14.9507 30.0017 16.296 29.2689 17.871 28.9845C18.8445 28.8095 20.6163 28.9298 21.6007 29.247Z" fill="url(#paint5_linear_126_3150)"/>
<path d="M44.3734 23.7344C43.8812 23.8875 43.7828 24.0297 43.4766 24.9375C43.2141 25.725 43.1594 25.8125 42.8203 25.9219C42.4812 26.0312 42.35 26.0094 41.5625 25.6484C40.4797 25.1562 40.3812 25.1781 39.3422 26.2172C38.3031 27.2562 38.2812 27.3547 38.7734 28.4375C39.1344 29.225 39.1562 29.3562 39.0469 29.6844C38.9375 30.0234 38.85 30.0891 38.0406 30.3625C36.8703 30.7672 36.8047 30.8875 36.8047 32.375C36.8047 33.8625 36.8703 33.9828 38.0406 34.3875C38.85 34.6609 38.9375 34.7266 39.0469 35.0656C39.1562 35.3937 39.1344 35.525 38.7734 36.3125C38.2812 37.3953 38.3031 37.4937 39.3422 38.5328C40.3812 39.5719 40.4797 39.5937 41.5625 39.1016C42.35 38.7406 42.4812 38.7187 42.8094 38.8281C43.1484 38.9375 43.2141 39.025 43.4875 39.8344C43.8922 41.0047 44.0125 41.0703 45.5 41.0703C46.9875 41.0703 47.1078 41.0047 47.5125 39.8344C47.7859 39.025 47.8516 38.9375 48.1906 38.8281C48.5187 38.7187 48.65 38.7406 49.4375 39.1016C50.5203 39.5937 50.6187 39.5719 51.6578 38.5328C52.6969 37.4937 52.7187 37.3953 52.2266 36.3125C51.8656 35.525 51.8437 35.3937 51.9531 35.0656C52.0625 34.7266 52.15 34.6609 52.9594 34.3875C54.1297 33.9828 54.1953 33.8625 54.1953 32.375C54.1953 30.8656 54.1187 30.7453 52.9484 30.3516C52.15 30.0891 52.0625 30.0344 51.9531 29.6953C51.8437 29.3562 51.8656 29.225 52.2266 28.4375C52.7187 27.3547 52.6969 27.2562 51.6578 26.2172C50.6187 25.1781 50.5203 25.1562 49.4375 25.6484C48.65 26.0094 48.5187 26.0312 48.1906 25.9219C47.8516 25.8125 47.7859 25.725 47.5125 24.9156C47.3047 24.325 47.1187 23.9859 46.9328 23.8656C46.6266 23.6578 44.8766 23.5703 44.3734 23.7344ZM46.1016 26.1953C46.2656 26.6437 46.4625 27.0594 46.5281 27.1141C46.7141 27.2672 48.0375 27.8031 48.3875 27.8578C48.6062 27.9016 48.9234 27.8141 49.4484 27.5516L50.2031 27.1906L50.4328 27.4203L50.6625 27.65L50.3125 28.4156C50.0719 28.9406 49.9734 29.2906 50.0172 29.4984C50.0719 29.8375 50.6078 31.1609 50.7609 31.3469C50.8156 31.4125 51.2312 31.6094 51.6797 31.7734C52.4344 32.0469 52.5 32.0906 52.5 32.375C52.5 32.6594 52.4344 32.7031 51.6797 32.9766C51.2312 33.1406 50.8156 33.3375 50.7609 33.4031C50.6078 33.5891 50.0719 34.9125 50.0172 35.2625C49.9734 35.4812 50.0609 35.7984 50.3234 36.3234L50.6844 37.0781L50.4547 37.3078L50.225 37.5375L49.4594 37.1875C48.9344 36.9469 48.5844 36.8484 48.3766 36.8922C48.0375 36.9469 46.7141 37.4828 46.5281 37.6359C46.4625 37.6906 46.2656 38.1062 46.1016 38.5547C45.8281 39.3094 45.7844 39.375 45.5 39.375C45.2156 39.375 45.1719 39.3094 44.8984 38.5547C44.7344 38.1062 44.5375 37.6906 44.4719 37.6359C44.2859 37.4828 42.9625 36.9469 42.6234 36.8922C42.4156 36.8484 42.0656 36.9469 41.5406 37.1875L40.775 37.5375L40.5562 37.3187L40.3375 37.1L40.6875 36.3344C40.9281 35.8094 41.0266 35.4594 40.9828 35.2516C40.9172 34.9016 40.3922 33.5891 40.2281 33.3922C40.1734 33.3266 39.7578 33.1297 39.3094 32.9656C38.5656 32.7031 38.5 32.6484 38.5 32.375C38.5 32.0906 38.5656 32.0469 39.3203 31.7734C39.7687 31.6094 40.1844 31.4125 40.2391 31.3469C40.3922 31.1609 40.9281 29.8375 40.9828 29.4984C41.0266 29.2906 40.9281 28.9406 40.6875 28.4156L40.3375 27.65L40.5562 27.4312L40.775 27.2125L41.5406 27.5625C42.0656 27.8031 42.4156 27.9016 42.6234 27.8578C42.9625 27.8031 44.2859 27.2672 44.4719 27.1141C44.5375 27.0594 44.7344 26.6437 44.8984 26.1953C45.1719 25.4406 45.2156 25.375 45.5 25.375C45.7844 25.375 45.8281 25.4406 46.1016 26.1953Z" fill="url(#paint6_linear_126_3150)"/>
<path d="M44.6802 28.9736C43.674 29.2361 42.788 29.958 42.3287 30.8986C42.1208 31.3471 42.0662 31.6205 42.0662 32.3752C42.0552 33.2283 42.088 33.3596 42.4271 33.9939C42.8427 34.7596 43.1927 35.0877 44.013 35.5252C44.4833 35.7658 44.713 35.8096 45.5005 35.8096C46.288 35.8096 46.5177 35.7658 46.988 35.5252C47.8083 35.0877 48.1583 34.7596 48.574 33.9939C48.913 33.3596 48.9458 33.2283 48.9349 32.3752C48.9349 31.5877 48.8912 31.358 48.6505 30.8877C48.224 30.0674 47.8849 29.7174 47.1521 29.3236C46.4412 28.9518 45.3583 28.7877 44.6802 28.9736ZM46.1896 30.7783C47.3162 31.2486 47.5896 32.7143 46.7146 33.5893C46.0037 34.3002 44.9974 34.3002 44.2865 33.5893C42.9302 32.2439 44.4287 30.0346 46.1896 30.7783Z" fill="url(#paint7_linear_126_3150)"/>
<defs>
<linearGradient id="paint0_linear_126_3150" x1="46.0942" y1="23.8254" x2="25.1868" y2="0.674569" gradientUnits="userSpaceOnUse">
<stop stop-color="#0060AA"/>
<stop offset="1" stop-color="#0E94FB"/>
</linearGradient>
<linearGradient id="paint1_linear_126_3150" x1="41.128" y1="17.0383" x2="32.4677" y2="7.46159" gradientUnits="userSpaceOnUse">
<stop stop-color="#0060AA"/>
<stop offset="1" stop-color="#0E94FB"/>
</linearGradient>
<linearGradient id="paint2_linear_126_3150" x1="52.881" y1="22.5224" x2="40.9396" y2="18.0382" gradientUnits="userSpaceOnUse">
<stop stop-color="#0060AA"/>
<stop offset="1" stop-color="#0E94FB"/>
</linearGradient>
<linearGradient id="paint3_linear_126_3150" x1="21.5661" y1="23.9236" x2="12.4643" y2="4.98898" gradientUnits="userSpaceOnUse">
<stop stop-color="#0060AA"/>
<stop offset="1" stop-color="#0E94FB"/>
</linearGradient>
<linearGradient id="paint4_linear_126_3150" x1="33.395" y1="56.0821" x2="-1.51235" y2="17.4176" gradientUnits="userSpaceOnUse">
<stop stop-color="#0060AA"/>
<stop offset="1" stop-color="#0E94FB"/>
</linearGradient>
<linearGradient id="paint5_linear_126_3150" x1="27.0454" y1="47.406" x2="7.81873" y2="26.1064" gradientUnits="userSpaceOnUse">
<stop stop-color="#0060AA"/>
<stop offset="1" stop-color="#0E94FB"/>
</linearGradient>
<linearGradient id="paint6_linear_126_3150" x1="52.5503" y1="42.012" x2="35.1257" y2="22.7379" gradientUnits="userSpaceOnUse">
<stop stop-color="#0060AA"/>
<stop offset="1" stop-color="#0E94FB"/>
</linearGradient>
<linearGradient id="paint7_linear_126_3150" x1="48.2865" y1="36.1832" x2="41.3696" y2="28.5637" gradientUnits="userSpaceOnUse">
<stop stop-color="#0060AA"/>
<stop offset="1" stop-color="#0E94FB"/>
</linearGradient>
</defs>
</svg>
