<svg width="56" height="56" viewBox="0 0 56 56" fill="none" xmlns="http://www.w3.org/2000/svg">
<g clip-path="url(#clip0_126_3200)">
<path d="M27.0922 0.153126C25.0469 0.918751 24.5656 3.47813 26.1953 4.9C26.3922 5.08594 26.6656 5.26094 26.7859 5.30469C27.0156 5.37031 27.0156 5.43594 27.0156 8.26875V11.1563H25.1562H23.2969V8.20313V5.23906L23.0234 4.97656C22.7281 4.68125 22.1594 4.61563 21.8641 4.84531C21.4703 5.15156 21.4375 5.41406 21.4375 8.30156V11.1563H19.5781H17.7297L17.6969 7.56875L17.6641 3.97031L17.3578 3.57656C16.8766 2.94219 16.5812 2.84375 15.1812 2.84375H13.9344L13.5625 2.275C13.0047 1.44375 12.3266 1.05 11.3312 1.00625C10.0953 0.940626 9.1875 1.4875 8.68437 2.57031C8.18125 3.64219 8.37812 4.76875 9.24219 5.65469C9.95312 6.3875 10.7734 6.66094 11.7031 6.475C12.4578 6.31094 13.0812 5.88438 13.5078 5.22813L13.8359 4.71406H14.8531L15.8594 4.70313V7.91875V11.1234L15.0172 11.1891C14.0109 11.2656 13.4094 11.4625 12.7422 11.9219C11.8125 12.5563 11.2984 13.5844 11.1891 15.0063L11.1234 15.8594H7.91875H4.70312L4.71406 14.8422V13.8359L5.22812 13.5078C5.88437 13.0813 6.31094 12.4578 6.475 11.7031C6.66094 10.7734 6.3875 9.95313 5.65469 9.24219C4.76875 8.37813 3.64219 8.18125 2.57031 8.68438C1.4875 9.1875 0.940625 10.0953 1.00625 11.3313C1.05 12.3266 1.44375 13.0047 2.275 13.5625L2.84375 13.9344V15.1156C2.84375 16.5047 2.975 16.8984 3.56562 17.3469L3.97031 17.6641L7.56875 17.6969L11.1562 17.7297V19.5781V21.4375H8.30156C5.41406 21.4375 5.15156 21.4703 4.84531 21.8641C4.61562 22.1594 4.68125 22.7281 4.97656 23.0234L5.23906 23.2969H8.20312H11.1562V25.1563V27.0156H8.26875H5.38125L5.25 26.6875C5.08594 26.2828 4.36406 25.6266 3.83906 25.3969C3.34687 25.1891 2.25312 25.1891 1.75 25.3969C1.20312 25.6266 0.7 26.0859 0.35 26.6766C0.0984375 27.1031 0.0546875 27.3 0.0546875 28C0.0546875 28.7 0.0984375 28.8969 0.35 29.3234C0.7 29.9141 1.20312 30.3734 1.75 30.6031C2.25312 30.8109 3.34687 30.8109 3.83906 30.6031C4.36406 30.3734 5.08594 29.7172 5.25 29.3125L5.38125 28.9844H8.26875H11.1562V30.8438V32.7031H8.20312H5.23906L4.97656 32.9766C4.68125 33.2719 4.61562 33.8406 4.84531 34.1359C5.15156 34.5297 5.41406 34.5625 8.30156 34.5625H11.1562V36.4219V38.2703L7.56875 38.3031L3.97031 38.3359L3.57656 38.6422C2.975 39.1016 2.89844 39.2984 2.84375 40.7859L2.78906 42.1422L2.40625 42.3609C1.8375 42.6672 1.56406 42.9625 1.25781 43.575C0.765625 44.5484 0.91875 45.7844 1.62969 46.6047C3.05156 48.2781 5.78594 47.6656 6.40937 45.5328C6.74844 44.3625 6.28906 43.1703 5.22812 42.4922L4.71406 42.1641V41.1469L4.70312 40.1406H7.91875H11.1234L11.1891 40.9828C11.2984 42.4156 11.7906 43.3781 12.7531 44.0672C13.3875 44.5266 13.9562 44.7125 14.9953 44.8L15.8594 44.8766V48.0813V51.2969L14.8531 51.2859H13.8359L13.5078 50.7719C13.0812 50.1156 12.4578 49.6891 11.7031 49.525C10.7734 49.3391 9.95312 49.6125 9.24219 50.3453C8.37812 51.2313 8.18125 52.3578 8.68437 53.4406C9.60312 55.4094 12.3484 55.5734 13.5516 53.725L13.9234 53.1563H15.1156C16.5047 53.1563 16.8984 53.0359 17.3469 52.4344L17.6641 52.0297L17.6969 48.4313L17.7297 44.8438H19.5781H21.4375V47.6984C21.4375 50.5859 21.4703 50.8484 21.8641 51.1547C22.1594 51.3844 22.7281 51.3188 23.0234 51.0234L23.2969 50.7609V47.7969V44.8438H25.1562H27.0156V47.7313V50.6188L26.6875 50.75C26.2828 50.9141 25.6266 51.6359 25.3969 52.1609C25.1891 52.6531 25.1891 53.7469 25.3969 54.25C25.6266 54.7969 26.0859 55.3 26.6766 55.65C27.1031 55.9016 27.3 55.9453 28 55.9453C28.7 55.9453 28.8969 55.9016 29.3234 55.65C29.9141 55.3 30.3734 54.7969 30.6031 54.25C30.8109 53.7469 30.8109 52.6531 30.6031 52.1609C30.3734 51.6359 29.7172 50.9141 29.3125 50.75L28.9844 50.6188V47.7313V44.8438H30.8437H32.7031V47.7969V50.7609L32.9766 51.0234C33.2719 51.3188 33.8406 51.3844 34.1359 51.1547C34.5297 50.8484 34.5625 50.5859 34.5625 47.6984V44.8438H36.4219H38.2703L38.3031 48.4313L38.3359 52.0297L38.6422 52.4234C39.1016 53.025 39.2984 53.0906 40.7859 53.1563L42.1422 53.2109L42.3609 53.5938C42.8641 54.5125 43.7281 55.0156 44.7781 55.0156C46.725 55.0047 48.0047 53.2547 47.4469 51.3625C47.3594 51.0891 47.0969 50.6953 46.7578 50.3453C46.0469 49.6125 45.2266 49.3391 44.2969 49.525C43.5422 49.6891 42.9187 50.1156 42.4922 50.7719L42.1641 51.2859H41.1578L40.1406 51.2969V48.0813V44.8766L41.0047 44.8C42.0437 44.7125 42.6125 44.5266 43.2469 44.0672C44.2094 43.3781 44.6797 42.4484 44.8 41.0047L44.8766 40.1406H48.0812H51.2969L51.2859 41.1469V42.1641L50.7719 42.4922C50.1156 42.9188 49.6891 43.5422 49.525 44.2969C49.3391 45.2266 49.6125 46.0469 50.3453 46.7578C50.6953 47.0969 51.0891 47.3594 51.3625 47.4469C53.2547 48.0047 55.0156 46.725 55.0156 44.7781C55.0156 43.7281 54.5125 42.8641 53.5937 42.3609L53.2109 42.1422L53.1562 40.7859C53.0906 39.2984 53.025 39.1016 52.4234 38.6422L52.0297 38.3359L48.4312 38.3031L44.8437 38.2703V36.4219V34.5625H47.6984C50.5859 34.5625 50.8484 34.5297 51.1547 34.1359C51.3844 33.8406 51.3187 33.2719 51.0234 32.9766L50.7609 32.7031H47.7969H44.8437V30.8438V28.9844H47.7312H50.6187L50.75 29.3125C50.9141 29.7172 51.6359 30.3734 52.1609 30.6031C52.6531 30.8109 53.7469 30.8109 54.25 30.6031C54.7969 30.3734 55.3 29.9141 55.65 29.3234C55.9016 28.8969 55.9453 28.7 55.9453 28C55.9453 27.3 55.9016 27.1031 55.65 26.6766C55.3 26.0859 54.7969 25.6266 54.25 25.3969C53.7469 25.1891 52.6531 25.1891 52.1609 25.3969C51.6359 25.6266 50.9141 26.2828 50.75 26.6875L50.6187 27.0156H47.7312H44.8437V25.1563V23.2969H47.7969H50.7609L51.0234 23.0234C51.3187 22.7281 51.3844 22.1594 51.1547 21.8641C50.8484 21.4703 50.5859 21.4375 47.6984 21.4375H44.8437V19.5781V17.7297L48.4312 17.6969L52.0297 17.6641L52.4344 17.3469C53.0359 16.8984 53.1562 16.5047 53.1562 15.1156V13.9234L53.725 13.5516C55.5734 12.3484 55.4094 9.60313 53.4406 8.68438C52.3578 8.18125 51.2312 8.37813 50.3453 9.24219C49.6125 9.95313 49.3391 10.7734 49.525 11.7031C49.6891 12.4578 50.1156 13.0813 50.7719 13.5078L51.2859 13.8359V14.8422L51.2969 15.8594H48.0812H44.8766L44.8 14.9953C44.7125 13.9563 44.5266 13.3875 44.0672 12.7531C43.3781 11.7906 42.4156 11.2984 40.9937 11.1891L40.1406 11.1234V7.91875V4.70313L41.1578 4.71406H42.1641L42.4922 5.22813C43.1703 6.28906 44.3625 6.74844 45.5328 6.40938C47.6656 5.78594 48.2781 3.05156 46.6047 1.62969C45.7844 0.918751 44.5484 0.765626 43.575 1.25781C42.9625 1.56406 42.6672 1.8375 42.3609 2.40625L42.1422 2.78906L40.7859 2.84375C39.2984 2.89844 39.1016 2.975 38.6422 3.57656L38.3359 3.97031L38.3031 7.56875L38.2703 11.1563H36.4219H34.5625V8.30156C34.5625 5.41406 34.5297 5.15156 34.1359 4.84531C33.8406 4.61563 33.2719 4.68125 32.9766 4.97656L32.7031 5.23906V8.20313V11.1563H30.8437H28.9844V8.26875V5.38125L29.3125 5.25C29.7172 5.08594 30.3734 4.36406 30.6031 3.83906C30.8109 3.34688 30.8109 2.25313 30.6031 1.75C30.3734 1.20313 29.9141 0.700001 29.3562 0.371876C28.7547 0.021876 27.7156 -0.0765615 27.0922 0.153126ZM28.6016 2.13281C29.0172 2.5375 29.0062 3.09531 28.5906 3.46719C27.7156 4.26563 26.5562 2.96406 27.3984 2.13281C27.5625 1.95781 27.7922 1.85938 28 1.85938C28.2078 1.85938 28.4375 1.95781 28.6016 2.13281ZM11.8016 3.02969C12.4469 3.55469 12.0422 4.6375 11.2109 4.6375C10.4016 4.6375 9.98594 3.675 10.5547 3.11719C10.8719 2.78906 11.4625 2.75625 11.8016 3.02969ZM45.4453 3.11719C45.7953 3.45625 45.7953 3.9375 45.4562 4.33125C44.8766 5.02031 43.7609 4.50625 43.9031 3.62031C44.0234 2.85469 44.9094 2.57031 45.4453 3.11719ZM4.33125 10.5438C5.02031 11.1234 4.50625 12.2391 3.62031 12.0969C3.12812 12.0203 2.84375 11.6813 2.84375 11.1891C2.84375 10.4016 3.71875 10.0078 4.33125 10.5438ZM52.8828 10.5547C53.4297 11.0906 53.1453 11.9766 52.3797 12.0969C51.4937 12.2391 50.9797 11.1234 51.6687 10.5438C52.0625 10.2047 52.5437 10.2047 52.8828 10.5547ZM41.4312 13.1359C42.1859 13.2891 42.7109 13.8359 42.875 14.5906C42.9516 14.9734 42.9844 19.3156 42.9625 28.3281L42.9297 41.5078L42.6672 41.9563C42.525 42.2188 42.2187 42.525 41.9562 42.6672L41.5078 42.9297L28.3281 42.9625C19.3156 42.9844 14.9734 42.9516 14.5906 42.875C13.8359 42.7109 13.2891 42.1859 13.1359 41.4313C12.9719 40.6875 12.9719 15.3125 13.1359 14.5688C13.2781 13.8797 13.8359 13.2891 14.4812 13.1359C15.1375 12.9938 40.7531 12.9828 41.4312 13.1359ZM3.5 27.4313C4.15625 28.2625 3.15 29.3125 2.25312 28.7219C1.69531 28.3609 1.76094 27.5297 2.37344 27.2234C2.82187 27.0047 3.22656 27.0703 3.5 27.4313ZM53.9766 27.4859C54.6219 28.4047 53.2766 29.4219 52.5328 28.5906C52.2266 28.2516 52.2156 27.7922 52.5 27.4203C52.8609 26.9609 53.6375 26.9938 53.9766 27.4859ZM4.33125 44.1219C4.96562 44.6578 4.55 45.7188 3.70781 45.7188C2.82187 45.7188 2.50469 44.2969 3.31406 43.9688C3.71875 43.8047 4.025 43.8484 4.33125 44.1219ZM52.9703 44.1984C53.2437 44.5375 53.2109 45.1281 52.8828 45.4453C52.5437 45.7953 52.0625 45.7953 51.6687 45.4563C50.9797 44.8766 51.4937 43.7609 52.3797 43.9031C52.5984 43.9359 52.8609 44.0672 52.9703 44.1984ZM11.9109 51.7016C12.4141 52.2703 11.9875 53.1563 11.1891 53.1563C10.4562 53.1563 10.0406 52.3469 10.4562 51.7563C10.8281 51.2313 11.4625 51.2094 11.9109 51.7016ZM45.4781 51.6906C45.9922 52.2703 45.5875 53.1563 44.8219 53.1563C44.3187 53.1563 43.9906 52.8938 43.9031 52.4453C43.7281 51.4938 44.8219 50.9688 45.4781 51.6906ZM28.6016 52.5219C29.1156 52.9703 28.9078 53.9328 28.2734 54.0969C27.6281 54.2609 27.0812 53.8016 27.1031 53.1234C27.1141 52.6859 27.5516 52.2813 28 52.2813C28.175 52.2813 28.4484 52.3906 28.6016 52.5219Z" fill="url(#paint0_linear_126_3200)"/>
<path d="M21.7656 19.775C21.5578 19.8734 21.3062 20.1031 21.1969 20.289C21.0328 20.5734 17.7188 35.164 17.7188 35.5906C17.7188 35.864 18.1891 36.3125 18.55 36.3781C18.8125 36.4328 18.9547 36.3781 19.2062 36.1703C19.5016 35.9187 19.5672 35.7 20.0812 33.3921L20.6281 30.8984L22.3891 30.8656L24.15 30.8437L24.2266 31.1937C24.8281 33.9718 25.2766 35.8203 25.4187 36.0281C25.6375 36.3781 26.1406 36.4875 26.5562 36.2687C26.9172 36.0828 27.0156 35.8968 27.0156 35.4375C27.0156 34.9671 23.7672 20.5078 23.6031 20.2343C23.4281 19.95 22.75 19.5781 22.4 19.5781C22.2578 19.5781 21.9734 19.6656 21.7656 19.775ZM23.0891 26.064C23.4281 27.5843 23.6797 28.8531 23.6578 28.8968C23.6359 28.9515 23.0453 28.9843 22.3562 28.9843C21.6672 28.9843 21.1094 28.9515 21.1094 28.8968C21.0984 28.6671 22.3672 23.1984 22.4219 23.2531C22.4547 23.2859 22.75 24.5546 23.0891 26.064Z" fill="url(#paint1_linear_126_3200)"/>
<path d="M29.4766 19.7094C29.1266 19.8953 28.9844 20.1359 28.9844 20.5734C28.9844 20.8906 29.05 21.0328 29.2687 21.2078C29.5203 21.4047 29.7172 21.4375 30.6359 21.4375H31.7187V28V34.5625H30.6359C29.7172 34.5625 29.5203 34.5953 29.2687 34.7922C29.0609 34.9563 28.9844 35.1203 28.9844 35.3828C28.9844 36.3891 29.1156 36.4219 32.6703 36.4219C35.8422 36.4219 36.0281 36.3891 36.2906 35.8313C36.4766 35.4703 36.3891 35.0766 36.0719 34.7813C35.8641 34.5953 35.6891 34.5625 34.7047 34.5625H33.5781V28V21.4375H34.7047C35.6891 21.4375 35.8641 21.4047 36.0719 21.2188C36.5531 20.7703 36.4547 20.0156 35.875 19.7203C35.5141 19.5344 29.8047 19.5234 29.4766 19.7094Z" fill="url(#paint2_linear_126_3200)"/>
</g>
<defs>
<linearGradient id="paint0_linear_126_3200" x1="50.6584" y1="58.9678" x2="-5.26053" y2="-2.96794" gradientUnits="userSpaceOnUse">
<stop stop-color="#0060AA"/>
<stop offset="1" stop-color="#0E94FB"/>
</linearGradient>
<linearGradient id="paint1_linear_126_3200" x1="26.1362" y1="37.3071" x2="11.0741" y2="28.0818" gradientUnits="userSpaceOnUse">
<stop stop-color="#0060AA"/>
<stop offset="1" stop-color="#0E94FB"/>
</linearGradient>
<linearGradient id="paint2_linear_126_3200" x1="35.687" y1="37.3325" x2="22.3551" y2="30.8408" gradientUnits="userSpaceOnUse">
<stop stop-color="#0060AA"/>
<stop offset="1" stop-color="#0E94FB"/>
</linearGradient>
<clipPath id="clip0_126_3200">
<rect width="56" height="56" fill="white"/>
</clipPath>
</defs>
</svg>
