<svg width="56" height="56" viewBox="0 0 56 56" fill="none" xmlns="http://www.w3.org/2000/svg">
<path d="M26.3596 1.81562C22.3893 2.32969 19.2393 3.78437 16.5596 6.36563C15.3674 7.51406 14.5143 8.55313 13.8033 9.73438L13.3768 10.4453L11.9658 10.5219C11.1455 10.5656 10.2049 10.6859 9.72364 10.8172C4.82364 12.0969 1.53145 16.5266 1.78301 21.4922C2.02364 26.1516 5.12989 29.9469 9.72364 31.1938C10.4236 31.3906 10.9705 31.4344 13.158 31.4781L15.7502 31.5219V32.9984C15.7502 33.8406 15.8049 34.6719 15.8814 34.9344C16.133 35.7875 17.358 36.75 18.2002 36.75C18.3533 36.75 18.3752 36.9578 18.3752 38.5V40.25H13.5299H8.68457L8.42207 39.6813C8.10489 38.9812 7.44864 38.3031 6.72676 37.9531C5.9502 37.5703 4.57207 37.5703 3.77364 37.9531C3.07364 38.2922 2.41739 38.9484 2.07832 39.6484C1.69551 40.4359 1.69551 41.8141 2.07832 42.6016C2.41739 43.3016 3.07364 43.9578 3.77364 44.2969C4.22207 44.5156 4.49551 44.5594 5.2502 44.5594C6.04864 44.5594 6.25645 44.5156 6.7377 44.275C7.57989 43.8375 7.91895 43.4984 8.32364 42.7109L8.69551 42H14.1424H19.5893L19.8518 41.7266C20.1252 41.4641 20.1252 41.4641 20.1252 39.1016V36.75H21.0002H21.8752V40.25V43.75H18.2111H14.5361L14.2736 44.0234C14.0111 44.275 14.0002 44.3406 14.0002 45.7953V47.3047L13.2564 47.6984C10.6971 49.0438 10.7955 52.6422 13.4205 53.9328C13.8471 54.1406 14.1205 54.1953 14.8752 54.1953C15.7283 54.1953 15.8596 54.1625 16.4939 53.8234C17.2596 53.4078 17.5986 53.0578 18.0252 52.2375C18.2658 51.7672 18.3096 51.5375 18.3205 50.75C18.3205 49.8969 18.2877 49.7656 17.9486 49.1312C17.533 48.3547 17.0518 47.9062 16.2752 47.5563L15.7502 47.3156V46.4078V45.5H19.4143H23.0893L23.3518 45.2266L23.6252 44.9641V40.8516V36.75H25.3752H27.1252V41.1469V45.5547L26.3815 45.9484C23.833 47.2938 23.9096 50.8922 26.5236 52.1719C26.9721 52.3906 27.2346 52.4453 28.0002 52.4453C28.8533 52.4453 28.9846 52.4125 29.6189 52.0734C30.3846 51.6578 30.7236 51.3078 31.1502 50.4875C31.3908 50.0172 31.4346 49.7875 31.4455 49C31.4455 48.1469 31.4127 48.0156 31.0736 47.3812C30.658 46.6047 30.1768 46.1562 29.4002 45.8063L28.8752 45.5656V41.1578V36.75H30.6252H32.3752V40.8516V44.9641L32.6486 45.2266L32.9111 45.5H36.5861H40.2502V46.3969V47.3047L39.5065 47.6984C36.9471 49.0438 37.0455 52.6422 39.6705 53.9328C40.0971 54.1406 40.3705 54.1953 41.1252 54.1953C41.9783 54.1953 42.1096 54.1625 42.7439 53.8234C43.5096 53.4078 43.8486 53.0578 44.2752 52.2375C44.5158 51.7672 44.5596 51.5375 44.5705 50.75C44.5705 49.8969 44.5377 49.7656 44.1986 49.1312C43.783 48.3547 43.3018 47.9062 42.5252 47.5563L42.0002 47.3156V45.8063C42.0002 44.3406 41.9893 44.275 41.7268 44.0234L41.4643 43.75H37.7893H34.1252V40.25V36.75H35.0002H35.8752V39.1016C35.8752 41.4641 35.8752 41.4641 36.1486 41.7266L36.4111 42H41.8689H47.3158L47.5783 42.5688C47.8955 43.2688 48.5518 43.9469 49.2736 44.2969C49.7221 44.5156 49.9846 44.5703 50.7502 44.5703C51.5924 44.5594 51.7455 44.5266 52.3689 44.1984C53.1346 43.7828 53.4627 43.4438 53.9002 42.6125C54.1518 42.1313 54.1955 41.9234 54.1955 41.125C54.1846 40.0312 53.933 39.375 53.2111 38.6641C52.5002 37.9422 51.8439 37.6906 50.7502 37.6797C49.8971 37.6797 49.7658 37.7125 49.1314 38.0516C48.3549 38.4672 47.9064 38.9484 47.5564 39.7359L47.3158 40.25H42.4705H37.6252V38.5C37.6252 36.8813 37.6361 36.75 37.8221 36.75C38.3471 36.75 39.058 36.3781 39.5174 35.875C40.1408 35.175 40.2502 34.7703 40.2502 32.9875V31.5H43.2471C45.3799 31.5 46.4736 31.4563 47.0533 31.3469C50.8814 30.6031 53.6814 27.6063 54.1736 23.7234C54.5783 20.5297 53.0033 17.2266 50.2252 15.4109C48.7486 14.4375 47.4033 14.0656 45.4674 14.0547H44.0783L43.7939 13.1797C42.9846 10.7188 41.683 8.62969 39.7143 6.66094C37.2424 4.18906 34.5736 2.74531 31.2158 2.07812C30.1549 1.85938 27.2346 1.70625 26.3596 1.81562ZM31.008 3.80625C36.5643 5.00938 40.8736 9.1 42.383 14.6016C42.7658 16.0016 42.9408 16.1219 44.2314 15.8703C49.0549 14.9406 53.3424 19.3484 52.3361 24.1938C51.7893 26.8188 49.5689 29.05 46.9768 29.5859C46.0143 29.7828 40.0315 29.8266 40.0315 29.6297C40.0315 29.5641 39.933 29.3672 39.8018 29.1922C39.583 28.875 39.583 28.875 39.7908 28.5688C40.1955 28 40.2502 27.5844 40.2502 25.375C40.2502 23.1656 40.1955 22.75 39.7908 22.1703C39.583 21.875 39.583 21.875 39.7908 21.5688C39.9002 21.4047 40.0533 21.1094 40.1189 20.9016C40.2939 20.3875 40.2939 16.4172 40.1189 15.8156C39.944 15.2141 39.0361 14.3063 38.4346 14.1313C37.7893 13.9453 18.2111 13.9453 17.5658 14.1313C16.9643 14.3063 16.0564 15.2141 15.8814 15.8156C15.7064 16.4172 15.7064 20.3875 15.8814 20.9016C15.9471 21.1094 16.1002 21.4047 16.2096 21.5688C16.4174 21.875 16.4174 21.875 16.2096 22.1703C15.8049 22.75 15.7502 23.1656 15.7502 25.375C15.7502 27.5844 15.8049 28 16.2096 28.5688C16.4174 28.875 16.4174 28.875 16.1986 29.1922C16.0674 29.3672 15.9689 29.5641 15.9689 29.6406C15.9689 29.8484 10.9596 29.7281 10.1721 29.4984C7.84239 28.8313 6.14708 27.6172 4.91114 25.725C3.94864 24.2594 3.55489 22.9031 3.55489 21C3.55489 18.4953 4.40801 16.4609 6.14708 14.7656C7.9627 12.9938 10.3252 12.1406 12.9611 12.2938C14.3393 12.3703 14.3939 12.3594 14.8752 11.375C15.3783 10.3688 16.4939 8.88125 17.5002 7.875C19.7424 5.62188 22.5643 4.18906 25.7799 3.66406C27.0815 3.45625 29.6846 3.52188 31.008 3.80625ZM38.2268 16.0234C38.5002 16.2859 38.5002 16.3078 38.5002 18.375C38.5002 20.4422 38.5002 20.4641 38.2268 20.7266L37.9643 21H28.0002H18.0361L17.7736 20.7266C17.5002 20.4641 17.5002 20.4422 17.5002 18.375C17.5002 16.3078 17.5002 16.2859 17.7736 16.0234L18.0361 15.75H28.0002H37.9643L38.2268 16.0234ZM38.2268 23.0234C38.5002 23.2859 38.5002 23.3078 38.5002 25.375C38.5002 27.4422 38.5002 27.4641 38.2268 27.7266L37.9643 28H28.0002H18.0361L17.7736 27.7266C17.5002 27.4641 17.5002 27.4422 17.5002 25.375C17.5002 23.3078 17.5002 23.2859 17.7736 23.0234L18.0361 22.75H28.0002H37.9643L38.2268 23.0234ZM38.2268 30.0234C38.5002 30.2859 38.5002 30.3078 38.5002 32.375C38.5002 34.4422 38.5002 34.4641 38.2268 34.7266L37.9643 35H28.0002H18.0361L17.7736 34.7266C17.5002 34.4641 17.5002 34.4422 17.5002 32.375C17.5002 30.3078 17.5002 30.2859 17.7736 30.0234L18.0361 29.75H28.0002H37.9643L38.2268 30.0234ZM5.93926 39.5281C7.06582 39.9984 7.33926 41.4641 6.46426 42.3391C5.75332 43.05 4.74708 43.05 4.03614 42.3391C2.67989 40.9938 4.17832 38.7844 5.93926 39.5281ZM51.4393 39.5281C52.5658 39.9984 52.8393 41.4641 51.9643 42.3391C51.2533 43.05 50.2471 43.05 49.5361 42.3391C48.1799 40.9938 49.6783 38.7844 51.4393 39.5281ZM28.7002 47.4031C29.1814 47.6 29.6408 48.2234 29.7174 48.7594C29.9361 50.4219 27.9674 51.3953 26.7861 50.2141C25.4299 48.8578 26.9283 46.6594 28.7002 47.4031ZM15.5752 49.1531C16.0564 49.35 16.5158 49.9734 16.5924 50.5094C16.8111 52.1719 14.8424 53.1453 13.6611 51.9641C12.3049 50.6078 13.8033 48.4094 15.5752 49.1531ZM41.8252 49.1531C42.3064 49.35 42.7658 49.9734 42.8424 50.5094C43.0611 52.1719 41.0924 53.1453 39.9111 51.9641C38.5549 50.6078 40.0533 48.4094 41.8252 49.1531Z" fill="url(#paint0_linear_256_1327)"/>
<path d="M19.25 18.375V19.25H24.5H29.75V18.375V17.5H24.5H19.25V18.375Z" fill="url(#paint1_linear_256_1327)"/>
<path d="M31.5 18.375V19.25H32.375H33.25V18.375V17.5H32.375H31.5V18.375Z" fill="url(#paint2_linear_256_1327)"/>
<path d="M35 18.375V19.25H35.875H36.75V18.375V17.5H35.875H35V18.375Z" fill="url(#paint3_linear_256_1327)"/>
<path d="M19.25 25.375V26.25H24.5H29.75V25.375V24.5H24.5H19.25V25.375Z" fill="url(#paint4_linear_256_1327)"/>
<path d="M31.5 25.375V26.25H32.375H33.25V25.375V24.5H32.375H31.5V25.375Z" fill="url(#paint5_linear_256_1327)"/>
<path d="M35 25.375V26.25H35.875H36.75V25.375V24.5H35.875H35V25.375Z" fill="url(#paint6_linear_256_1327)"/>
<path d="M19.25 32.375V33.25H24.5H29.75V32.375V31.5H24.5H19.25V32.375Z" fill="url(#paint7_linear_256_1327)"/>
<path d="M31.5 32.375V33.25H32.375H33.25V32.375V31.5H32.375H31.5V32.375Z" fill="url(#paint8_linear_256_1327)"/>
<path d="M35 32.375V33.25H35.875H36.75V32.375V31.5H35.875H35V32.375Z" fill="url(#paint9_linear_256_1327)"/>
<defs>
<linearGradient id="paint0_linear_256_1327" x1="49.2734" y1="57.0286" x2="-3.13721" y2="-1.10468" gradientUnits="userSpaceOnUse">
<stop stop-color="#0060AA"/>
<stop offset="1" stop-color="#0E94FB"/>
</linearGradient>
<linearGradient id="paint1_linear_256_1327" x1="28.7568" y1="19.3446" x2="28.2393" y2="15.904" gradientUnits="userSpaceOnUse">
<stop stop-color="#0060AA"/>
<stop offset="1" stop-color="#0E94FB"/>
</linearGradient>
<linearGradient id="paint2_linear_256_1327" x1="33.0845" y1="19.3446" x2="31.3345" y2="17.4054" gradientUnits="userSpaceOnUse">
<stop stop-color="#0060AA"/>
<stop offset="1" stop-color="#0E94FB"/>
</linearGradient>
<linearGradient id="paint3_linear_256_1327" x1="36.5845" y1="19.3446" x2="34.8345" y2="17.4054" gradientUnits="userSpaceOnUse">
<stop stop-color="#0060AA"/>
<stop offset="1" stop-color="#0E94FB"/>
</linearGradient>
<linearGradient id="paint4_linear_256_1327" x1="28.7568" y1="26.3446" x2="28.2393" y2="22.904" gradientUnits="userSpaceOnUse">
<stop stop-color="#0060AA"/>
<stop offset="1" stop-color="#0E94FB"/>
</linearGradient>
<linearGradient id="paint5_linear_256_1327" x1="33.0845" y1="26.3446" x2="31.3345" y2="24.4054" gradientUnits="userSpaceOnUse">
<stop stop-color="#0060AA"/>
<stop offset="1" stop-color="#0E94FB"/>
</linearGradient>
<linearGradient id="paint6_linear_256_1327" x1="36.5845" y1="26.3446" x2="34.8345" y2="24.4054" gradientUnits="userSpaceOnUse">
<stop stop-color="#0060AA"/>
<stop offset="1" stop-color="#0E94FB"/>
</linearGradient>
<linearGradient id="paint7_linear_256_1327" x1="28.7568" y1="33.3446" x2="28.2393" y2="29.904" gradientUnits="userSpaceOnUse">
<stop stop-color="#0060AA"/>
<stop offset="1" stop-color="#0E94FB"/>
</linearGradient>
<linearGradient id="paint8_linear_256_1327" x1="33.0845" y1="33.3446" x2="31.3345" y2="31.4054" gradientUnits="userSpaceOnUse">
<stop stop-color="#0060AA"/>
<stop offset="1" stop-color="#0E94FB"/>
</linearGradient>
<linearGradient id="paint9_linear_256_1327" x1="36.5845" y1="33.3446" x2="34.8345" y2="31.4054" gradientUnits="userSpaceOnUse">
<stop stop-color="#0060AA"/>
<stop offset="1" stop-color="#0E94FB"/>
</linearGradient>
</defs>
</svg>
