<svg width="57" height="56" viewBox="0 0 57 56" fill="none" xmlns="http://www.w3.org/2000/svg">
<path d="M27.0275 1.81563C23.0572 2.32969 19.9072 3.78438 17.2275 6.36563C16.0354 7.51406 15.1822 8.55313 14.4713 9.73438L14.0447 10.4453L12.6338 10.5219C11.8135 10.5656 10.8729 10.6859 10.3916 10.8172C5.49161 12.0969 2.19942 16.5266 2.45098 21.4922C2.69161 26.1516 5.79786 29.9469 10.3916 31.1938C11.0916 31.3906 11.6385 31.4344 13.826 31.4781L16.4182 31.5219V32.9984C16.4182 33.8406 16.4729 34.6719 16.5494 34.9344C16.801 35.7875 18.026 36.75 18.8682 36.75C19.0213 36.75 19.0432 36.9578 19.0432 38.5V40.25H14.1979H9.35254L9.09004 39.6813C8.77286 38.9813 8.11661 38.3031 7.39473 37.9531C6.61817 37.5703 5.24004 37.5703 4.44161 37.9531C3.74161 38.2922 3.08536 38.9484 2.74629 39.6484C2.36348 40.4359 2.36348 41.8141 2.74629 42.6016C3.08536 43.3016 3.74161 43.9578 4.44161 44.2969C4.89004 44.5156 5.16348 44.5594 5.91817 44.5594C6.71661 44.5594 6.92442 44.5156 7.40567 44.275C8.24786 43.8375 8.58692 43.4984 8.99161 42.7109L9.36348 42H14.8104H20.2572L20.5197 41.7266C20.7932 41.4641 20.7932 41.4641 20.7932 39.1016V36.75H21.6682H22.5432V40.25V43.75H18.8791H15.2041L14.9416 44.0234C14.6791 44.275 14.6682 44.3406 14.6682 45.7953V47.3047L13.9244 47.6984C11.365 49.0438 11.4635 52.6422 14.0885 53.9328C14.515 54.1406 14.7885 54.1953 15.5432 54.1953C16.3963 54.1953 16.5275 54.1625 17.1619 53.8234C17.9275 53.4078 18.2666 53.0578 18.6932 52.2375C18.9338 51.7672 18.9775 51.5375 18.9885 50.75C18.9885 49.8969 18.9557 49.7656 18.6166 49.1313C18.201 48.3547 17.7197 47.9063 16.9432 47.5563L16.4182 47.3156V46.4078V45.5H20.0822H23.7572L24.0197 45.2266L24.2932 44.9641V40.8516V36.75H26.0432H27.7932V41.1469V45.5547L27.0494 45.9484C24.501 47.2938 24.5775 50.8922 27.1916 52.1719C27.64 52.3906 27.9025 52.4453 28.6682 52.4453C29.5213 52.4453 29.6525 52.4125 30.2869 52.0734C31.0525 51.6578 31.3916 51.3078 31.8182 50.4875C32.0588 50.0172 32.1025 49.7875 32.1135 49C32.1135 48.1469 32.0807 48.0156 31.7416 47.3813C31.326 46.6047 30.8447 46.1563 30.0682 45.8063L29.5432 45.5656V41.1578V36.75H31.2932H33.0432V40.8516V44.9641L33.3166 45.2266L33.5791 45.5H37.2541H40.9182V46.3969V47.3047L40.1744 47.6984C37.615 49.0438 37.7135 52.6422 40.3385 53.9328C40.765 54.1406 41.0385 54.1953 41.7932 54.1953C42.6463 54.1953 42.7775 54.1625 43.4119 53.8234C44.1775 53.4078 44.5166 53.0578 44.9432 52.2375C45.1838 51.7672 45.2275 51.5375 45.2385 50.75C45.2385 49.8969 45.2057 49.7656 44.8666 49.1313C44.451 48.3547 43.9697 47.9063 43.1932 47.5563L42.6682 47.3156V45.8063C42.6682 44.3406 42.6572 44.275 42.3947 44.0234L42.1322 43.75H38.4572H34.7932V40.25V36.75H35.6682H36.5432V39.1016C36.5432 41.4641 36.5432 41.4641 36.8166 41.7266L37.0791 42H42.5369H47.9838L48.2463 42.5688C48.5635 43.2688 49.2197 43.9469 49.9416 44.2969C50.39 44.5156 50.6525 44.5703 51.4182 44.5703C52.2604 44.5594 52.4135 44.5266 53.0369 44.1984C53.8025 43.7828 54.1307 43.4438 54.5682 42.6125C54.8197 42.1313 54.8635 41.9234 54.8635 41.125C54.8525 40.0313 54.601 39.375 53.8791 38.6641C53.1682 37.9422 52.5119 37.6906 51.4182 37.6797C50.565 37.6797 50.4338 37.7125 49.7994 38.0516C49.0229 38.4672 48.5744 38.9484 48.2244 39.7359L47.9838 40.25H43.1385H38.2932V38.5C38.2932 36.8813 38.3041 36.75 38.49 36.75C39.015 36.75 39.726 36.3781 40.1854 35.875C40.8088 35.175 40.9182 34.7703 40.9182 32.9875V31.5H43.915C46.0479 31.5 47.1416 31.4563 47.7213 31.3469C51.5494 30.6031 54.3494 27.6063 54.8416 23.7234C55.2463 20.5297 53.6713 17.2266 50.8932 15.4109C49.4166 14.4375 48.0713 14.0656 46.1354 14.0547H44.7463L44.4619 13.1797C43.6525 10.7188 42.351 8.62969 40.3822 6.66094C37.9104 4.18906 35.2416 2.74531 31.8838 2.07813C30.8229 1.85938 27.9025 1.70625 27.0275 1.81563ZM31.676 3.80625C37.2322 5.00938 41.5416 9.1 43.051 14.6016C43.4338 16.0016 43.6088 16.1219 44.8994 15.8703C49.7229 14.9406 54.0104 19.3484 53.0041 24.1938C52.4572 26.8188 50.2369 29.05 47.6447 29.5859C46.6822 29.7828 40.6994 29.8266 40.6994 29.6297C40.6994 29.5641 40.601 29.3672 40.4697 29.1922C40.251 28.875 40.251 28.875 40.4588 28.5688C40.8635 28 40.9182 27.5844 40.9182 25.375C40.9182 23.1656 40.8635 22.75 40.4588 22.1703C40.251 21.875 40.251 21.875 40.4588 21.5688C40.5682 21.4047 40.7213 21.1094 40.7869 20.9016C40.9619 20.3875 40.9619 16.4172 40.7869 15.8156C40.6119 15.2141 39.7041 14.3063 39.1025 14.1313C38.4572 13.9453 18.8791 13.9453 18.2338 14.1313C17.6322 14.3063 16.7244 15.2141 16.5494 15.8156C16.3744 16.4172 16.3744 20.3875 16.5494 20.9016C16.615 21.1094 16.7682 21.4047 16.8775 21.5688C17.0854 21.875 17.0854 21.875 16.8775 22.1703C16.4729 22.75 16.4182 23.1656 16.4182 25.375C16.4182 27.5844 16.4729 28 16.8775 28.5688C17.0854 28.875 17.0854 28.875 16.8666 29.1922C16.7354 29.3672 16.6369 29.5641 16.6369 29.6406C16.6369 29.8484 11.6275 29.7281 10.84 29.4984C8.51036 28.8313 6.81504 27.6172 5.57911 25.725C4.61661 24.2594 4.22286 22.9031 4.22286 21C4.22286 18.4953 5.07598 16.4609 6.81504 14.7656C8.63067 12.9938 10.9932 12.1406 13.6291 12.2938C15.0072 12.3703 15.0619 12.3594 15.5432 11.375C16.0463 10.3688 17.1619 8.88125 18.1682 7.875C20.4104 5.62188 23.2322 4.18906 26.4479 3.66406C27.7494 3.45625 30.3525 3.52188 31.676 3.80625ZM38.8947 16.0234C39.1682 16.2859 39.1682 16.3078 39.1682 18.375C39.1682 20.4422 39.1682 20.4641 38.8947 20.7266L38.6322 21H28.6682H18.7041L18.4416 20.7266C18.1682 20.4641 18.1682 20.4422 18.1682 18.375C18.1682 16.3078 18.1682 16.2859 18.4416 16.0234L18.7041 15.75H28.6682H38.6322L38.8947 16.0234ZM38.8947 23.0234C39.1682 23.2859 39.1682 23.3078 39.1682 25.375C39.1682 27.4422 39.1682 27.4641 38.8947 27.7266L38.6322 28H28.6682H18.7041L18.4416 27.7266C18.1682 27.4641 18.1682 27.4422 18.1682 25.375C18.1682 23.3078 18.1682 23.2859 18.4416 23.0234L18.7041 22.75H28.6682H38.6322L38.8947 23.0234ZM38.8947 30.0234C39.1682 30.2859 39.1682 30.3078 39.1682 32.375C39.1682 34.4422 39.1682 34.4641 38.8947 34.7266L38.6322 35H28.6682H18.7041L18.4416 34.7266C18.1682 34.4641 18.1682 34.4422 18.1682 32.375C18.1682 30.3078 18.1682 30.2859 18.4416 30.0234L18.7041 29.75H28.6682H38.6322L38.8947 30.0234ZM6.60723 39.5281C7.73379 39.9984 8.00723 41.4641 7.13223 42.3391C6.42129 43.05 5.41504 43.05 4.70411 42.3391C3.34786 40.9938 4.84629 38.7844 6.60723 39.5281ZM52.1072 39.5281C53.2338 39.9984 53.5072 41.4641 52.6322 42.3391C51.9213 43.05 50.915 43.05 50.2041 42.3391C48.8479 40.9938 50.3463 38.7844 52.1072 39.5281ZM29.3682 47.4031C29.8494 47.6 30.3088 48.2234 30.3854 48.7594C30.6041 50.4219 28.6354 51.3953 27.4541 50.2141C26.0979 48.8578 27.5963 46.6594 29.3682 47.4031ZM16.2432 49.1531C16.7244 49.35 17.1838 49.9734 17.2604 50.5094C17.4791 52.1719 15.5104 53.1453 14.3291 51.9641C12.9729 50.6078 14.4713 48.4094 16.2432 49.1531ZM42.4932 49.1531C42.9744 49.35 43.4338 49.9734 43.5104 50.5094C43.7291 52.1719 41.7604 53.1453 40.5791 51.9641C39.2229 50.6078 40.7213 48.4094 42.4932 49.1531Z" fill="url(#paint0_linear_126_3164)"/>
<path d="M19.918 18.375V19.25H25.168H30.418V18.375V17.5H25.168H19.918V18.375Z" fill="url(#paint1_linear_126_3164)"/>
<path d="M32.168 18.375V19.25H33.043H33.918V18.375V17.5H33.043H32.168V18.375Z" fill="url(#paint2_linear_126_3164)"/>
<path d="M35.668 18.375V19.25H36.543H37.418V18.375V17.5H36.543H35.668V18.375Z" fill="url(#paint3_linear_126_3164)"/>
<path d="M19.918 25.375V26.25H25.168H30.418V25.375V24.5H25.168H19.918V25.375Z" fill="url(#paint4_linear_126_3164)"/>
<path d="M32.168 25.375V26.25H33.043H33.918V25.375V24.5H33.043H32.168V25.375Z" fill="url(#paint5_linear_126_3164)"/>
<path d="M35.668 25.375V26.25H36.543H37.418V25.375V24.5H36.543H35.668V25.375Z" fill="url(#paint6_linear_126_3164)"/>
<path d="M19.918 32.375V33.25H25.168H30.418V32.375V31.5H25.168H19.918V32.375Z" fill="url(#paint7_linear_126_3164)"/>
<path d="M32.168 32.375V33.25H33.043H33.918V32.375V31.5H33.043H32.168V32.375Z" fill="url(#paint8_linear_126_3164)"/>
<path d="M35.668 32.375V33.25H36.543H37.418V32.375V31.5H36.543H35.668V32.375Z" fill="url(#paint9_linear_126_3164)"/>
<defs>
<linearGradient id="paint0_linear_126_3164" x1="49.9414" y1="57.0286" x2="-2.46924" y2="-1.10468" gradientUnits="userSpaceOnUse">
<stop stop-color="#0060AA"/>
<stop offset="1" stop-color="#0E94FB"/>
</linearGradient>
<linearGradient id="paint1_linear_126_3164" x1="29.4247" y1="19.3446" x2="28.9072" y2="15.904" gradientUnits="userSpaceOnUse">
<stop stop-color="#0060AA"/>
<stop offset="1" stop-color="#0E94FB"/>
</linearGradient>
<linearGradient id="paint2_linear_126_3164" x1="33.7524" y1="19.3446" x2="32.0024" y2="17.4054" gradientUnits="userSpaceOnUse">
<stop stop-color="#0060AA"/>
<stop offset="1" stop-color="#0E94FB"/>
</linearGradient>
<linearGradient id="paint3_linear_126_3164" x1="37.2524" y1="19.3446" x2="35.5024" y2="17.4054" gradientUnits="userSpaceOnUse">
<stop stop-color="#0060AA"/>
<stop offset="1" stop-color="#0E94FB"/>
</linearGradient>
<linearGradient id="paint4_linear_126_3164" x1="29.4247" y1="26.3446" x2="28.9072" y2="22.904" gradientUnits="userSpaceOnUse">
<stop stop-color="#0060AA"/>
<stop offset="1" stop-color="#0E94FB"/>
</linearGradient>
<linearGradient id="paint5_linear_126_3164" x1="33.7524" y1="26.3446" x2="32.0024" y2="24.4054" gradientUnits="userSpaceOnUse">
<stop stop-color="#0060AA"/>
<stop offset="1" stop-color="#0E94FB"/>
</linearGradient>
<linearGradient id="paint6_linear_126_3164" x1="37.2524" y1="26.3446" x2="35.5024" y2="24.4054" gradientUnits="userSpaceOnUse">
<stop stop-color="#0060AA"/>
<stop offset="1" stop-color="#0E94FB"/>
</linearGradient>
<linearGradient id="paint7_linear_126_3164" x1="29.4247" y1="33.3446" x2="28.9072" y2="29.904" gradientUnits="userSpaceOnUse">
<stop stop-color="#0060AA"/>
<stop offset="1" stop-color="#0E94FB"/>
</linearGradient>
<linearGradient id="paint8_linear_126_3164" x1="33.7524" y1="33.3446" x2="32.0024" y2="31.4054" gradientUnits="userSpaceOnUse">
<stop stop-color="#0060AA"/>
<stop offset="1" stop-color="#0E94FB"/>
</linearGradient>
<linearGradient id="paint9_linear_126_3164" x1="37.2524" y1="33.3446" x2="35.5024" y2="31.4054" gradientUnits="userSpaceOnUse">
<stop stop-color="#0060AA"/>
<stop offset="1" stop-color="#0E94FB"/>
</linearGradient>
</defs>
</svg>
