<svg width="56" height="56" viewBox="0 0 56 56" fill="none" xmlns="http://www.w3.org/2000/svg">
<path d="M26.25 3.82794C26.0531 4.02481 26.0312 4.18887 26.0312 5.96075C26.0312 7.73262 26.0531 7.89669 26.25 8.09356C26.5234 8.367 27.0375 8.37794 27.2672 8.11544C27.4312 7.94044 27.4531 7.62325 27.4531 5.98262C27.4531 4.18887 27.4312 4.02481 27.2344 3.82794C27.1141 3.70762 26.8953 3.60919 26.7422 3.60919C26.5891 3.60919 26.3703 3.70762 26.25 3.82794Z" fill="url(#paint0_linear_125_3124)"/>
<path d="M37.6588 6.9125C37.3744 7.22969 35.8869 9.8 35.8104 10.1172C35.7229 10.4563 36.1494 10.9375 36.5213 10.9375C36.9369 10.9375 37.1448 10.675 38.1073 8.96875C38.9823 7.42656 39.026 7.24063 38.5885 6.85781C38.2823 6.60625 37.9323 6.62813 37.6588 6.9125Z" fill="url(#paint1_linear_125_3124)"/>
<path d="M18.9445 7.05474C13.3336 8.07192 9.1445 12.8297 8.78356 18.6047C8.72888 19.5782 8.73981 19.6766 8.95856 19.8954C9.17731 20.1141 9.29763 20.125 10.9273 20.125H12.6554L12.7101 21.0329C12.7758 22.1047 13.0273 22.6625 13.6726 23.2094C14.4492 23.8875 15.4336 24.0188 16.3523 23.5813C17.3914 23.0891 17.8179 22.3782 17.9164 20.9782L17.9711 20.125H19.6992C22.0508 20.125 21.8758 20.3438 21.8758 17.3907C21.8758 14.525 21.9414 14.6563 20.3445 14.6563C19.0648 14.6563 18.5836 14.5032 18.332 14.011C18.1023 13.5844 18.1133 13.3657 18.3758 12.9391C18.6492 12.4907 19.1086 12.3594 20.4758 12.3594C21.9414 12.3594 21.8758 12.4797 21.8758 9.60317C21.8758 6.82505 21.9086 6.89067 20.5961 6.90161C20.1258 6.90161 19.382 6.97817 18.9445 7.05474ZM20.3445 9.67974V10.9375H19.557C17.8726 10.9375 16.7351 11.9766 16.7351 13.5079C16.7351 15.0391 17.8726 16.0782 19.557 16.0782H20.3445V17.3907V18.7032H18.5945C16.3304 18.7032 16.407 18.6485 16.407 20.4094C16.407 21.6563 16.407 21.6782 16.0898 21.9954C15.8383 22.2469 15.6742 22.3125 15.3133 22.3125C14.9523 22.3125 14.7883 22.2469 14.5367 21.9954C14.2195 21.6782 14.2195 21.6563 14.2195 20.4094C14.2195 18.6485 14.2961 18.7032 12.0211 18.7032H10.2492L10.3258 17.9485C10.457 16.45 11.2226 14.3938 12.1523 13.0485C13.1695 11.5829 15.0179 10.0516 16.6804 9.29692C17.5992 8.8813 19.2398 8.43286 19.8851 8.42192H20.3445V9.67974Z" fill="url(#paint2_linear_125_3124)"/>
<path d="M26.2282 14.8421C26.0532 15.0281 26.0313 15.3015 26.0313 16.8656V18.6812L25.0688 18.7249C24.2157 18.7578 24.0298 18.8015 23.5595 19.0859C22.586 19.6984 22.1266 20.8578 22.4329 21.9515C22.5313 22.3234 22.7282 22.6296 23.122 23.0234C23.7673 23.6687 24.2485 23.8437 25.3095 23.8437H26.0423L26.0095 25.1234L25.9766 26.414L24.2157 26.4468C21.9735 26.4796 22.061 26.414 21.9845 28.2406C21.9298 29.5093 21.9188 29.564 21.6235 29.8156C21.0329 30.3187 20.1798 30.089 19.8954 29.3453C19.8407 29.2031 19.797 28.5687 19.797 27.9562C19.797 26.3703 19.9501 26.4578 17.0626 26.4906L14.7329 26.5234L14.536 26.7968C14.3501 27.0484 14.3501 27.1796 14.4376 28.1531C14.7548 31.4124 16.3626 34.4749 18.8126 36.4765C19.4907 37.0343 20.4532 38.1609 20.4532 38.4015C20.4532 38.4453 20.2126 38.5109 19.9063 38.5546C19.3048 38.6421 18.8891 38.9046 18.6485 39.3749C18.4079 39.8453 18.4079 43.3234 18.6595 43.7281C18.9657 44.2531 19.3485 44.4499 20.147 44.4937L20.8907 44.5374V46.2765C20.8907 48.5296 21.0657 48.9999 22.0391 49.4484C22.4329 49.6343 22.8266 49.6562 26.4032 49.6562H30.3188L30.9532 50.2359C32.572 51.7124 34.7595 52.489 36.9688 52.3578C38.3032 52.2812 39.0798 52.0734 40.3048 51.4609C45.8173 48.7484 46.6485 41.1687 41.847 37.3406C40.4251 36.2031 38.8501 35.6015 36.9251 35.4593L35.897 35.3828L36.597 34.4531C39.4188 30.7124 39.911 25.8781 37.8985 21.689C37.2751 20.3874 36.6954 19.5343 35.722 18.5062C33.5563 16.2203 30.6251 14.8312 27.6173 14.689C26.5235 14.6343 26.3923 14.6453 26.2282 14.8421ZM29.2907 16.4171C33.6657 17.4124 37.0782 21.2734 37.5813 25.7906L37.6579 26.4796L36.4657 26.4468L35.2735 26.414L35.2079 25.4843C35.1204 24.0624 34.5516 23.2312 33.3923 22.8484C32.386 22.5203 31.0626 23.0343 30.472 23.9968C30.1876 24.4453 30.1438 24.6531 30.1001 25.4953L30.0563 26.4796L28.7766 26.4468L27.5079 26.414L27.4751 24.5984C27.4423 22.2906 27.5188 22.389 25.6813 22.3124C24.4126 22.2578 24.3579 22.2468 24.1063 21.9515C23.6141 21.3828 23.8329 20.4859 24.522 20.2453C24.7079 20.1796 25.3532 20.1249 25.9548 20.1249C27.5079 20.1249 27.4532 20.2015 27.4532 17.9921C27.4532 17.0187 27.486 16.1984 27.5188 16.1546C27.5954 16.0781 28.1532 16.1546 29.2907 16.4171ZM33.3704 24.4453C33.6548 24.6312 33.797 25.2765 33.797 26.4031C33.797 27.9234 33.7423 27.8906 35.9516 27.8906C36.8704 27.8906 37.6251 27.9343 37.6251 27.989C37.6251 28.3718 37.2204 30.0453 36.947 30.7999C36.6079 31.7624 35.7657 33.1953 35.0438 34.0703C34.5188 34.7046 32.6595 36.3343 31.7735 36.9359C31.4126 37.1874 30.8766 37.6359 30.5704 37.9421L30.0345 38.4999H28.7438H27.4532V37.089V35.6781L28.4157 35.6343C29.2141 35.6015 29.4657 35.5359 29.8813 35.2953C31.6204 34.2781 31.5548 31.7515 29.761 30.8218C29.2688 30.5593 29.0501 30.5156 28.3173 30.5156H27.4532V29.2031V27.8906H29.2907C31.6313 27.8906 31.5438 27.9671 31.5876 26.1406C31.6204 24.9265 31.6423 24.8171 31.9048 24.5656C32.2766 24.1937 32.8673 24.139 33.3704 24.4453ZM18.3751 28.7437C18.3751 29.4437 18.4298 29.6953 18.6595 30.1765C19.4798 31.8281 21.6563 32.0578 22.8813 30.6249C23.3516 30.089 23.5157 29.5531 23.5157 28.6124V27.8906H24.7735H26.0313V29.7171C26.0313 32.0249 25.9766 31.9374 27.5298 31.9374C29.2032 31.9374 29.6407 32.1781 29.6407 33.1187C29.6407 33.4359 29.5641 33.6218 29.3673 33.8187C29.0501 34.1468 28.6126 34.2343 27.3548 34.2343C25.9876 34.2343 26.0313 34.1687 26.0313 36.5531V38.4999H24.0626H22.0938L21.8204 37.8765C21.4266 36.9906 20.8251 36.2468 19.8298 35.4046C17.6751 33.589 16.3298 31.1609 15.9251 28.3499L15.8595 27.8906H17.1173H18.3751V28.7437ZM38.2266 37.1328C39.5063 37.4609 40.447 38.0078 41.4532 39.0359C42.5251 40.1187 42.9735 40.9062 43.3235 42.3281C43.7282 43.9249 43.4766 45.8609 42.6891 47.2499C41.7157 48.9453 40.0641 50.2249 38.2266 50.6953C37.3954 50.9031 35.6673 50.9031 34.836 50.6953C32.4954 50.0937 30.5048 48.1578 29.7938 45.7734C29.5204 44.8765 29.5204 42.9515 29.7938 42.0546C30.4938 39.714 32.3751 37.8437 34.6938 37.1765C35.5688 36.9249 37.3298 36.9031 38.2266 37.1328ZM28.9845 40.0749C28.9845 40.0968 28.8641 40.3812 28.722 40.7093C28.5798 41.0374 28.372 41.7156 28.2626 42.2078L28.0766 43.0937L24.0188 43.0718L19.961 43.039L19.9282 41.5296L19.8954 40.0312H24.4454C26.9391 40.0312 28.9845 40.0531 28.9845 40.0749ZM28.2516 45.5109C28.3501 46.0578 28.6126 46.8671 28.8204 47.3156L29.1923 48.1249L25.8345 48.1031L22.4766 48.0703L22.4438 46.2874L22.422 44.5156H25.2329H28.0548L28.2516 45.5109Z" fill="url(#paint3_linear_125_3124)"/>
<path d="M37.1764 42.9403L34.3764 45.7294L33.3811 44.4825C32.8233 43.7935 32.2764 43.2028 32.1451 43.17C31.5764 43.0169 31.0186 43.6075 31.2483 44.0997C31.4342 44.5044 33.7967 47.4028 34.0155 47.5122C34.1248 47.5669 34.3326 47.5778 34.4748 47.545C34.8686 47.4356 41.0155 41.2231 41.0155 40.9278C41.0155 40.6106 40.5451 40.1403 40.228 40.1403C40.053 40.1403 39.1889 40.9388 37.1764 42.9403Z" fill="url(#paint4_linear_125_3124)"/>
<path d="M46.2663 15.0609C45.9163 15.2031 43.1491 16.8656 43.0725 16.9859C42.8975 17.2703 42.985 17.7078 43.2694 17.9266C43.4335 18.0578 43.6194 18.1562 43.685 18.1562C43.9038 18.1562 46.8569 16.4281 47.0647 16.1766C47.3272 15.8594 47.2944 15.575 46.9772 15.2578C46.7147 14.9844 46.5725 14.9516 46.2663 15.0609Z" fill="url(#paint5_linear_125_3124)"/>
<defs>
<linearGradient id="paint0_linear_125_3124" x1="27.3186" y1="8.55953" x2="24.4713" y2="7.60429" gradientUnits="userSpaceOnUse">
<stop stop-color="#0060AA"/>
<stop offset="1" stop-color="#0E94FB"/>
</linearGradient>
<linearGradient id="paint1_linear_125_3124" x1="38.5705" y1="11.1675" x2="34.4011" y2="7.84294" gradientUnits="userSpaceOnUse">
<stop stop-color="#0060AA"/>
<stop offset="1" stop-color="#0E94FB"/>
</linearGradient>
<linearGradient id="paint2_linear_125_3124" x1="20.6373" y1="24.7504" x2="3.80831" y2="10.3003" gradientUnits="userSpaceOnUse">
<stop stop-color="#0060AA"/>
<stop offset="1" stop-color="#0E94FB"/>
</linearGradient>
<linearGradient id="paint3_linear_125_3124" x1="42.0988" y1="54.4105" x2="4.39985" y2="20.4984" gradientUnits="userSpaceOnUse">
<stop stop-color="#0060AA"/>
<stop offset="1" stop-color="#0E94FB"/>
</linearGradient>
<linearGradient id="paint4_linear_125_3124" x1="40.0865" y1="47.9647" x2="33.1387" y2="37.7797" gradientUnits="userSpaceOnUse">
<stop stop-color="#0060AA"/>
<stop offset="1" stop-color="#0E94FB"/>
</linearGradient>
<linearGradient id="paint5_linear_125_3124" x1="46.8379" y1="18.3267" x2="43.9086" y2="13.9439" gradientUnits="userSpaceOnUse">
<stop stop-color="#0060AA"/>
<stop offset="1" stop-color="#0E94FB"/>
</linearGradient>
</defs>
</svg>
