<svg width="174" height="42" viewBox="0 0 174 42" fill="none" xmlns="http://www.w3.org/2000/svg">
<g clip-path="url(#clip0_51_597)">
<mask id="mask0_51_597" style="mask-type:luminance" maskUnits="userSpaceOnUse" x="0" y="-1" width="174" height="43">
<path d="M174 -1H0V42H174V-1Z" fill="white"/>
</mask>
<g mask="url(#mask0_51_597)">
<path fill-rule="evenodd" clip-rule="evenodd" d="M67.3551 19.9872L72.0779 17.8987L72.6163 22.951L71.3608 22.0559C69.1489 27.1481 64.0671 30.7086 58.149 30.7086C57.7704 30.7086 57.3918 30.6887 57.0127 30.6688C61.8351 28.8587 65.9605 25.8949 69.0888 21.1409L67.3551 19.9872Z" fill="url(#paint0_linear_51_597)"/>
<path fill-rule="evenodd" clip-rule="evenodd" d="M63.5486 11.9713L70.3235 7.59521L71.3401 15.2135L69.347 14.2786C65.6809 20.982 59.6826 27.9637 54.5017 28.8787C51.7116 29.5352 48.583 27.3272 47.208 25.6564C52.3891 27.6057 58.0687 26.4321 65.9398 12.8863L63.5486 11.9713Z" fill="url(#paint1_linear_51_597)"/>
<path fill-rule="evenodd" clip-rule="evenodd" d="M55.8367 15.6311L53.9232 14.5173L59.8018 11.5535L60.3797 17.8987L58.7061 17.0235C56.6534 21.0814 53.3653 23.9059 49.5793 24.3037C47.6663 24.5026 45.8329 23.9656 44.6572 21.3399C47.2478 23.2495 52.5484 22.1754 55.8367 15.6311Z" fill="url(#paint2_linear_51_597)"/>
<path fill-rule="evenodd" clip-rule="evenodd" d="M55.0593 3.57702C57.7294 2.64213 60.4992 2.58246 63.3887 2.98028C61.7546 2.34376 60.0009 2.00562 58.1481 2.00562C50.2168 2.00562 43.7803 8.43047 43.7803 16.3472C43.8799 17.6599 44.677 18.8335 45.8926 19.0722C47.5665 19.3308 49.1607 17.9583 50.5755 15.8101L51.6516 16.5461L51.7512 12.4883L48.1045 14.2984L49.2005 14.8553C48.3835 15.9891 47.3473 16.9439 46.5901 16.8046C45.6933 16.6256 45.5737 15.2332 45.9524 13.1248C46.9886 8.78852 50.9143 5.04896 55.0593 3.57702Z" fill="url(#paint3_linear_51_597)"/>
<path d="M17.1648 0.691406V27.2595H13.7828L3.12533 6.76776V27.2595H-0.238281V0.691406H3.12533L13.8377 21.2379V0.691406H17.1648Z" fill="url(#paint4_linear_51_597)"/>
<path d="M38.9845 24.3947V27.2595H27.4312V24.3947H38.9845ZM28.0345 0.691406V27.2595H24.6709V0.691406H28.0345ZM37.4307 12.1142V14.979H27.4312V12.1142H37.4307ZM38.8017 0.691406V3.57448H27.4312V0.691406H38.8017Z" fill="url(#paint5_linear_51_597)"/>
<path d="M85.9734 0.691406V27.2595H82.6463V0.691406H85.9734ZM92.975 0.691406V3.57448H75.6631V0.691406H92.975Z" fill="url(#paint6_linear_51_597)"/>
<path d="M114.229 24.3947V27.2595H102.676V24.3947H114.229ZM103.279 0.691406V27.2595H99.916V0.691406H103.279ZM112.676 12.1142V14.979H102.676V12.1142H112.676ZM114.047 0.691406V3.57448H102.676V0.691406H114.047Z" fill="url(#paint7_linear_51_597)"/>
<path d="M121.038 0.691406H128.478C130.209 0.691406 131.659 0.995527 132.829 1.60377C134.011 2.21201 134.901 3.11222 135.498 4.30437C136.107 5.48436 136.412 6.93807 136.412 8.66547C136.412 9.882 136.211 10.995 135.809 12.0047C135.406 13.0023 134.822 13.8538 134.054 14.5594C133.286 15.2528 132.353 15.7698 131.257 16.1104L130.343 16.4936H123.707L123.67 13.6287H128.442C129.465 13.6287 130.319 13.4098 131.001 12.9718C131.683 12.5217 132.195 11.9196 132.536 11.1654C132.877 10.4112 133.048 9.57784 133.048 8.66547C133.048 7.64363 132.896 6.74951 132.591 5.98313C132.286 5.21674 131.799 4.62674 131.129 4.21314C130.47 3.78736 129.587 3.57448 128.478 3.57448H124.402V27.2595H121.038V0.691406ZM133.816 27.2595L128.515 15.2163L132.006 15.198L137.417 27.0405V27.2595H133.816Z" fill="url(#paint8_linear_51_597)"/>
<path d="M147.984 0.691406V27.2595H144.62V0.691406H147.984Z" fill="url(#paint9_linear_51_597)"/>
<path d="M167.884 18.811H171.248C171.162 20.6357 170.791 22.2111 170.133 23.537C169.487 24.8508 168.542 25.8605 167.299 26.5661C166.068 27.2716 164.527 27.6244 162.674 27.6244C161.346 27.6244 160.145 27.3628 159.073 26.8398C158 26.3167 157.08 25.5685 156.312 24.5954C155.557 23.61 154.978 22.43 154.576 21.0554C154.174 19.6807 153.973 18.1358 153.973 16.4205V11.512C153.973 9.80895 154.174 8.27006 154.576 6.89545C154.99 5.52082 155.581 4.34691 156.349 3.37372C157.129 2.38836 158.073 1.63414 159.183 1.11105C160.304 0.587958 161.571 0.326416 162.985 0.326416C164.715 0.326416 166.178 0.673116 167.372 1.36651C168.579 2.04775 169.505 3.05135 170.15 4.37732C170.809 5.69113 171.174 7.30295 171.248 9.21285H167.884C167.799 7.8139 167.579 6.67648 167.226 5.80061C166.872 4.91257 166.348 4.26175 165.654 3.84815C164.971 3.42238 164.082 3.20949 162.985 3.20949C162.01 3.20949 161.163 3.40413 160.444 3.79341C159.737 4.18268 159.152 4.74227 158.689 5.47216C158.238 6.18988 157.897 7.05967 157.665 8.08153C157.446 9.09122 157.336 10.2225 157.336 11.4755V16.4205C157.336 17.5884 157.427 18.6771 157.61 19.6868C157.805 20.6965 158.11 21.5845 158.524 22.351C158.951 23.1052 159.505 23.6952 160.188 24.1209C160.87 24.5467 161.699 24.7596 162.674 24.7596C163.905 24.7596 164.88 24.5588 165.599 24.1574C166.318 23.756 166.848 23.1173 167.189 22.2414C167.543 21.3656 167.774 20.2221 167.884 18.811Z" fill="url(#paint10_linear_51_597)"/>
<path d="M35.9069 34.8041V41.4239H35.0779V34.8041H35.9069ZM37.6514 34.8041V35.5225H33.3379V34.8041H37.6514ZM42.1971 40.7101V41.4239H39.3184V40.7101H42.1971ZM39.4688 34.8041V41.4239H38.6307V34.8041H39.4688ZM41.81 37.6502V38.3641H39.3184V37.6502H41.81ZM42.1516 34.8041V35.5225H39.3184V34.8041H42.1516ZM46.588 39.3188H47.4261C47.4048 39.7735 47.3123 40.166 47.1483 40.4964C46.9873 40.8238 46.752 41.0753 46.4423 41.2511C46.1356 41.427 45.7515 41.5149 45.2899 41.5149C44.9589 41.5149 44.6598 41.4497 44.3926 41.3193C44.1254 41.189 43.8961 41.0026 43.7048 40.7601C43.5165 40.5146 43.3723 40.2206 43.2721 39.8781C43.1719 39.5356 43.1218 39.1506 43.1218 38.7232V37.5002C43.1218 37.0759 43.1719 36.6924 43.2721 36.3499C43.3753 36.0074 43.5226 35.7149 43.7139 35.4724C43.9082 35.2269 44.1436 35.039 44.4199 34.9087C44.6993 34.7783 45.0151 34.7131 45.3673 34.7131C45.7985 34.7131 46.1629 34.7995 46.4605 34.9723C46.7611 35.142 46.9919 35.3921 47.1528 35.7225C47.3168 36.0498 47.4079 36.4515 47.4261 36.9273H46.588C46.5668 36.5788 46.5121 36.2953 46.4241 36.0771C46.336 35.8559 46.2054 35.6937 46.0323 35.5906C45.8623 35.4846 45.6406 35.4315 45.3673 35.4315C45.1244 35.4315 44.9134 35.48 44.7342 35.577C44.5581 35.674 44.4123 35.8134 44.2969 35.9953C44.1846 36.1741 44.0995 36.3908 44.0418 36.6455C43.9872 36.897 43.9599 37.1789 43.9599 37.4911V38.7232C43.9599 39.0142 43.9826 39.2855 44.0282 39.5371C44.0768 39.7887 44.1527 40.0099 44.2559 40.2009C44.3622 40.3888 44.5004 40.5358 44.6704 40.6419C44.8404 40.748 45.047 40.801 45.2899 40.801C45.5966 40.801 45.8395 40.751 46.0187 40.651C46.1978 40.551 46.3299 40.3918 46.4149 40.1736C46.503 39.9553 46.5607 39.6705 46.588 39.3188ZM52.1586 37.6502V38.3641H49.2845V37.6502H52.1586ZM49.3984 34.8041V41.4239H48.5603V34.8041H49.3984ZM52.9008 34.8041V41.4239H52.063V34.8041H52.9008ZM58.6813 34.8041V41.4239H57.8387L55.1829 36.3181V41.4239H54.345V34.8041H55.1829L57.8524 39.9236V34.8041H58.6813ZM64.4433 37.5411V38.6914C64.4433 39.1582 64.3917 39.5689 64.2883 39.9236C64.1881 40.2751 64.041 40.5691 63.8465 40.8056C63.6519 41.042 63.4183 41.2193 63.1452 41.3376C62.8715 41.4558 62.5636 41.5149 62.2204 41.5149C61.8892 41.5149 61.5871 41.4558 61.314 41.3376C61.0408 41.2193 60.8052 41.042 60.608 40.8056C60.4108 40.5691 60.2573 40.2751 60.1477 39.9236C60.0417 39.5689 59.9884 39.1582 59.9884 38.6914V37.5411C59.9884 37.0743 60.0417 36.6651 60.1477 36.3136C60.2542 35.9589 60.406 35.6634 60.6032 35.4269C60.8009 35.1905 61.0361 35.0132 61.3092 34.895C61.5829 34.7738 61.885 34.7131 62.2156 34.7131C62.5589 34.7131 62.8673 34.7738 63.1405 34.895C63.4167 35.0132 63.6503 35.1905 63.8417 35.4269C64.0363 35.6634 64.185 35.9589 64.2883 36.3136C64.3917 36.6651 64.4433 37.0743 64.4433 37.5411ZM63.6139 38.6914V37.532C63.6139 37.1683 63.5839 36.8561 63.5233 36.5955C63.4621 36.3317 63.373 36.1165 63.2543 35.9498C63.1357 35.7831 62.9902 35.6603 62.8172 35.5816C62.6438 35.4997 62.4434 35.4588 62.2156 35.4588C62 35.4588 61.8059 35.4997 61.633 35.5816C61.4627 35.6603 61.3171 35.7831 61.1953 35.9498C61.0741 36.1165 60.9797 36.3317 60.9133 36.5955C60.8495 36.8561 60.8173 37.1683 60.8173 37.532V38.6914C60.8173 39.0582 60.8495 39.3734 60.9133 39.6371C60.9797 39.8978 61.0741 40.113 61.1953 40.2827C61.3198 40.4494 61.469 40.5737 61.6419 40.6556C61.8149 40.7343 62.0079 40.7738 62.2204 40.7738C62.4481 40.7738 62.6485 40.7343 62.8215 40.6556C62.9976 40.5737 63.1436 40.4494 63.2591 40.2827C63.3772 40.113 63.4653 39.8978 63.5233 39.6371C63.5839 39.3734 63.6139 39.0582 63.6139 38.6914ZM69.1804 40.7101V41.4239H66.4291V40.7101H69.1804ZM66.5793 34.8041V41.4239H65.7415V34.8041H66.5793ZM74.1905 37.5411V38.6914C74.1905 39.1582 74.1388 39.5689 74.0355 39.9236C73.9353 40.2751 73.7882 40.5691 73.5936 40.8056C73.3996 41.042 73.1655 41.2193 72.8924 41.3376C72.6192 41.4558 72.3108 41.5149 71.9675 41.5149C71.6369 41.5149 71.3348 41.4558 71.0611 41.3376C70.788 41.2193 70.5529 41.042 70.3551 40.8056C70.1579 40.5691 70.0045 40.2751 69.8953 39.9236C69.7888 39.5689 69.7361 39.1582 69.7361 38.6914V37.5411C69.7361 37.0743 69.7888 36.6651 69.8953 36.3136C70.0013 35.9589 70.1532 35.6634 70.3509 35.4269C70.5481 35.1905 70.7833 35.0132 71.0569 34.895C71.33 34.7738 71.6322 34.7131 71.9633 34.7131C72.3066 34.7131 72.6145 34.7738 72.8876 34.895C73.1644 35.0132 73.398 35.1905 73.5894 35.4269C73.7835 35.6634 73.9327 35.9589 74.0355 36.3136C74.1388 36.6651 74.1905 37.0743 74.1905 37.5411ZM73.3616 38.6914V37.532C73.3616 37.1683 73.3311 36.8561 73.2704 36.5955C73.2098 36.3317 73.1201 36.1165 73.0015 35.9498C72.8834 35.7831 72.7373 35.6603 72.5644 35.5816C72.3915 35.4997 72.1911 35.4588 71.9633 35.4588C71.7477 35.4588 71.5531 35.4997 71.3801 35.5816C71.2104 35.6603 71.0643 35.7831 70.943 35.9498C70.8212 36.1165 70.7274 36.3317 70.6604 36.5955C70.5966 36.8561 70.565 37.1683 70.565 37.532V38.6914C70.565 39.0582 70.5966 39.3734 70.6604 39.6371C70.7274 39.8978 70.8212 40.113 70.943 40.2827C71.0675 40.4494 71.2162 40.5737 71.3891 40.6556C71.5626 40.7343 71.755 40.7738 71.9675 40.7738C72.1953 40.7738 72.3957 40.7343 72.5691 40.6556C72.7453 40.5737 72.8908 40.4494 73.0063 40.2827C73.1249 40.113 73.2129 39.8978 73.2704 39.6371C73.3311 39.3734 73.3616 39.0582 73.3616 38.6914ZM79.6425 38.1276V40.5964C79.5697 40.6934 79.459 40.8147 79.3103 40.9602C79.1643 41.1057 78.9597 41.2345 78.6955 41.3466C78.4314 41.4588 78.0849 41.5149 77.6568 41.5149C77.3135 41.5149 76.9993 41.4572 76.714 41.3421C76.4314 41.2269 76.1873 41.0541 75.9806 40.8238C75.7771 40.5904 75.6194 40.3009 75.5071 39.9553C75.3948 39.6068 75.3384 39.1991 75.3384 38.7323V37.4911C75.3384 37.0273 75.3853 36.6212 75.4797 36.2726C75.5735 35.924 75.7133 35.6346 75.8989 35.4042C76.0871 35.1739 76.3191 35.0011 76.5954 34.8859C76.8749 34.7707 77.1997 34.7131 77.5703 34.7131C77.9985 34.7131 78.3628 34.7935 78.6634 34.9541C78.9639 35.1148 79.1964 35.3466 79.3604 35.6497C79.5276 35.9528 79.6214 36.3166 79.6425 36.7409H78.8047C78.7836 36.4681 78.7256 36.2347 78.6317 36.0408C78.5373 35.8437 78.4039 35.6937 78.2305 35.5906C78.0575 35.4846 77.8377 35.4315 77.5703 35.4315C77.3151 35.4315 77.0995 35.4739 76.9234 35.5588C76.7472 35.6437 76.6033 35.771 76.491 35.9407C76.3813 36.1104 76.3012 36.3241 76.2495 36.5818C76.201 36.8395 76.1762 37.1395 76.1762 37.482V38.7323C76.1762 39.0839 76.2115 39.3901 76.2811 39.6508C76.3513 39.9114 76.4499 40.1266 76.5775 40.2963C76.7077 40.4661 76.8643 40.5934 77.0462 40.6783C77.2287 40.7601 77.4338 40.801 77.6615 40.801C77.9194 40.801 78.1229 40.7738 78.2716 40.7192C78.4203 40.6647 78.5342 40.6025 78.6133 40.5328C78.6955 40.4631 78.7604 40.407 78.8094 40.3646V38.8369H77.593V38.1276H79.6425ZM81.8745 34.8041V41.4239H81.0366V34.8041H81.8745ZM86.8988 40.7101V41.4239H84.0199V40.7101H86.8988ZM84.1702 34.8041V41.4239H83.3324V34.8041H84.1702ZM86.5113 37.6502V38.3641H84.0199V37.6502H86.5113ZM86.853 34.8041V35.5225H84.0199V34.8041H86.853ZM90.8703 39.7508C90.8703 39.5962 90.8523 39.4598 90.8159 39.3416C90.7796 39.2203 90.7158 39.1112 90.6245 39.0142C90.5333 38.9172 90.4057 38.8248 90.2417 38.7369C90.0778 38.649 89.87 38.5596 89.618 38.4686C89.3449 38.3716 89.097 38.264 88.8756 38.1458C88.6536 38.0246 88.4638 37.8867 88.3061 37.7321C88.1511 37.5775 88.0314 37.4002 87.9465 37.2001C87.8611 37.0001 87.8189 36.7712 87.8189 36.5136C87.8189 36.2559 87.8627 36.018 87.9507 35.7998C88.042 35.5816 88.1696 35.3921 88.3335 35.2315C88.5007 35.0678 88.701 34.9405 88.9346 34.8496C89.1687 34.7586 89.4297 34.7131 89.7182 34.7131C90.1495 34.7131 90.5122 34.8086 90.807 34.9996C91.1044 35.1875 91.329 35.4345 91.4808 35.7407C91.6327 36.0438 91.7086 36.3681 91.7086 36.7137H90.8703C90.8703 36.4651 90.8297 36.2453 90.7474 36.0544C90.6683 35.8604 90.5439 35.7088 90.3741 35.5997C90.2069 35.4876 89.9881 35.4315 89.7182 35.4315C89.4751 35.4315 89.2747 35.4785 89.1171 35.5725C88.9621 35.6664 88.8466 35.7937 88.7706 35.9543C88.6979 36.115 88.6615 36.2984 88.6615 36.5045C88.6615 36.6439 88.6858 36.7712 88.7343 36.8864C88.7828 36.9986 88.8571 37.1031 88.9573 37.2001C89.0607 37.2971 89.1882 37.3866 89.3401 37.4684C89.4951 37.5502 89.677 37.629 89.8869 37.7048C90.2117 37.8109 90.4896 37.9291 90.72 38.0595C90.9509 38.1898 91.1392 38.3368 91.2852 38.5005C91.4307 38.6611 91.5372 38.8445 91.6037 39.0506C91.6738 39.2537 91.7086 39.484 91.7086 39.7417C91.7086 40.0114 91.6633 40.2554 91.572 40.4737C91.484 40.6919 91.3548 40.8783 91.185 41.0329C91.0147 41.1875 90.8096 41.3072 90.5697 41.3921C90.3298 41.4739 90.0598 41.5149 89.7593 41.5149C89.4978 41.5149 89.2415 41.4724 88.9895 41.3876C88.7401 41.3027 88.5139 41.1754 88.3109 41.0056C88.1073 40.8359 87.9449 40.6268 87.8231 40.3782C87.7019 40.1266 87.6412 39.8357 87.6412 39.5052H88.4791C88.4791 39.7326 88.5128 39.9281 88.5793 40.0918C88.6462 40.2524 88.739 40.3858 88.8571 40.4919C88.9758 40.598 89.1107 40.6768 89.2626 40.7283C89.4176 40.7768 89.5832 40.801 89.7593 40.801C90.0018 40.801 90.2054 40.7586 90.3693 40.6737C90.5365 40.5889 90.6609 40.4676 90.7432 40.31C90.8281 40.1524 90.8703 39.966 90.8703 39.7508ZM97.0604 38.8278H95.612V38.114H97.0604C97.3341 38.114 97.554 38.0594 97.7211 37.9503C97.8909 37.8412 98.0143 37.6897 98.0902 37.4957C98.1688 37.3017 98.2083 37.0804 98.2083 36.8319C98.2083 36.6045 98.1688 36.3908 98.0902 36.1908C98.0143 35.9907 97.8909 35.8301 97.7211 35.7088C97.554 35.5846 97.3341 35.5225 97.0604 35.5225H95.785V41.4239H94.9471V34.8041H97.0604C97.4886 34.8041 97.8503 34.8905 98.1445 35.0632C98.4392 35.236 98.6623 35.4754 98.8141 35.7816C98.9692 36.0847 99.0467 36.4318 99.0467 36.8228C99.0467 37.2471 98.9692 37.6093 98.8141 37.9094C98.6623 38.2094 98.4392 38.4383 98.1445 38.5959C97.8503 38.7505 97.4886 38.8278 97.0604 38.8278ZM101.944 40.4191L103.537 34.8041H104.449L102.39 41.4239H101.747L101.944 40.4191ZM100.513 34.8041L102.094 40.4191L102.303 41.4239H101.661L99.6024 34.8041H100.513ZM107.482 34.8041V41.4239H106.653V34.8041H107.482ZM109.227 34.8041V35.5225H104.913V34.8041H109.227ZM109.154 40.9783C109.154 40.8359 109.198 40.7162 109.286 40.6192C109.377 40.5191 109.508 40.4691 109.678 40.4691C109.848 40.4691 109.977 40.5191 110.065 40.6192C110.156 40.7162 110.201 40.8359 110.201 40.9783C110.201 41.1178 110.156 41.236 110.065 41.333C109.977 41.43 109.848 41.4785 109.678 41.4785C109.508 41.4785 109.377 41.43 109.286 41.333C109.198 41.236 109.154 41.1178 109.154 40.9783ZM117.252 40.7101V41.4239H114.501V40.7101H117.252ZM114.651 34.8041V41.4239H113.813V34.8041H114.651ZM119.124 34.8041V41.4239H118.295V34.8041H119.124ZM120.869 34.8041V35.5225H116.555V34.8041H120.869ZM123.351 41.4239H122.222L122.231 40.7101H123.351C123.749 40.7101 124.073 40.6343 124.321 40.4828C124.57 40.3282 124.754 40.1009 124.872 39.8008C124.991 39.4977 125.05 39.1233 125.05 38.6778V37.5457C125.05 37.1941 125.017 36.891 124.95 36.6363C124.883 36.3817 124.783 36.1726 124.649 36.0089C124.516 35.8452 124.347 35.724 124.144 35.6452C123.94 35.5633 123.702 35.5225 123.429 35.5225H122.199V34.8041H123.429C123.802 34.8041 124.139 34.8632 124.44 34.9814C124.741 35.0966 124.999 35.2709 125.214 35.5042C125.43 35.7346 125.594 36.021 125.706 36.3636C125.822 36.7061 125.879 37.1031 125.879 37.5548V38.6778C125.879 39.1294 125.822 39.5264 125.706 39.869C125.594 40.2115 125.428 40.4979 125.209 40.7283C124.991 40.9587 124.725 41.1329 124.413 41.2511C124.103 41.3663 123.749 41.4239 123.351 41.4239ZM122.686 34.8041V41.4239H121.848V34.8041H122.686ZM126.654 40.9783C126.654 40.8359 126.697 40.7162 126.785 40.6192C126.877 40.5191 127.007 40.4691 127.177 40.4691C127.348 40.4691 127.477 40.5191 127.565 40.6192C127.655 40.7162 127.701 40.8359 127.701 40.9783C127.701 41.1178 127.655 41.236 127.565 41.333C127.477 41.43 127.348 41.4785 127.177 41.4785C127.007 41.4785 126.877 41.43 126.785 41.333C126.697 41.236 126.654 41.1178 126.654 40.9783Z" fill="url(#paint11_linear_51_597)"/>
</g>
</g>
<defs>
<linearGradient id="paint0_linear_51_597" x1="71.1399" y1="17.2062" x2="58.8206" y2="33.8339" gradientUnits="userSpaceOnUse">
<stop stop-color="#0060AA"/>
<stop offset="1" stop-color="#0E94FB"/>
</linearGradient>
<linearGradient id="paint1_linear_51_597" x1="69.057" y1="6.43833" x2="48.065" y2="32.6671" gradientUnits="userSpaceOnUse">
<stop stop-color="#0060AA"/>
<stop offset="1" stop-color="#0E94FB"/>
</linearGradient>
<linearGradient id="paint2_linear_51_597" x1="58.8927" y1="10.8623" x2="46.6287" y2="27.571" gradientUnits="userSpaceOnUse">
<stop stop-color="#0060AA"/>
<stop offset="1" stop-color="#0E94FB"/>
</linearGradient>
<linearGradient id="paint3_linear_51_597" x1="61.5338" y1="1.08141" x2="44.8279" y2="22.3116" gradientUnits="userSpaceOnUse">
<stop stop-color="#0060AA"/>
<stop offset="1" stop-color="#0E94FB"/>
</linearGradient>
<linearGradient id="paint4_linear_51_597" x1="18.3745" y1="-9.83864" x2="-20.4304" y2="13.517" gradientUnits="userSpaceOnUse">
<stop stop-color="#0060AA"/>
<stop offset="1" stop-color="#0E94FB"/>
</linearGradient>
<linearGradient id="paint5_linear_51_597" x1="37.6305" y1="-0.744708" x2="14.1203" y2="13.2908" gradientUnits="userSpaceOnUse">
<stop stop-color="#0060AA"/>
<stop offset="1" stop-color="#0E94FB"/>
</linearGradient>
<linearGradient id="paint6_linear_51_597" x1="92.2115" y1="-9.83864" x2="57.2978" y2="7.43937" gradientUnits="userSpaceOnUse">
<stop stop-color="#0060AA"/>
<stop offset="1" stop-color="#0E94FB"/>
</linearGradient>
<linearGradient id="paint7_linear_51_597" x1="114.232" y1="-9.83864" x2="79.9015" y2="6.69142" gradientUnits="userSpaceOnUse">
<stop stop-color="#0060AA"/>
<stop offset="1" stop-color="#0E94FB"/>
</linearGradient>
<linearGradient id="paint8_linear_51_597" x1="136.291" y1="-9.83864" x2="100.816" y2="8.19158" gradientUnits="userSpaceOnUse">
<stop stop-color="#0060AA"/>
<stop offset="1" stop-color="#0E94FB"/>
</linearGradient>
<linearGradient id="paint9_linear_51_597" x1="147.665" y1="-0.744708" x2="140.317" y2="0.286223" gradientUnits="userSpaceOnUse">
<stop stop-color="#0060AA"/>
<stop offset="1" stop-color="#0E94FB"/>
</linearGradient>
<linearGradient id="paint10_linear_51_597" x1="171.261" y1="-9.83868" x2="134.232" y2="10.4667" gradientUnits="userSpaceOnUse">
<stop stop-color="#0060AA"/>
<stop offset="1" stop-color="#0E94FB"/>
</linearGradient>
<linearGradient id="paint11_linear_51_597" x1="118.775" y1="34.3455" x2="117.889" y2="47.9631" gradientUnits="userSpaceOnUse">
<stop stop-color="#0060AA"/>
<stop offset="1" stop-color="#0E94FB"/>
</linearGradient>
<clipPath id="clip0_51_597">
<rect width="174" height="42" fill="white"/>
</clipPath>
</defs>
</svg>
