<svg width="1440" height="800" viewBox="0 0 1440 800" fill="none" xmlns="http://www.w3.org/2000/svg">
<g clip-path="url(#clip0_120_3099)">
<mask id="path-1-inside-1_120_3099" fill="white">
<path d="M475.096 841.787C673.248 745.005 827.868 735.883 936.556 748.192C1027.17 758.46 1049.09 779.47 1127.89 774.693C1298.89 764.321 1517 645.897 1516.15 492.554C1515.73 417.016 1454.01 389.245 1381.22 287.753C1315.74 196.453 1245.14 49.2685 1239.31 -189.432"/>
</mask>
<path d="M936.556 748.192L936.646 747.398L936.646 747.398L936.556 748.192ZM1127.89 774.693L1127.94 775.491L1127.94 775.491L1127.89 774.693ZM1516.15 492.554L1516.95 492.549L1516.95 492.549L1516.15 492.554ZM1381.22 287.753L1380.57 288.22L1380.57 288.22L1381.22 287.753ZM475.447 842.506C673.456 745.793 827.923 736.695 936.466 748.987L936.646 747.398C827.813 735.072 673.039 744.216 474.744 841.068L475.447 842.506ZM936.466 748.987C981.716 754.115 1009.79 761.92 1036.48 767.865C1063.19 773.815 1088.45 777.886 1127.94 775.491L1127.85 773.894C1088.54 776.277 1063.44 772.231 1036.83 766.303C1010.2 760.371 982.005 752.537 936.646 747.398L936.466 748.987ZM1127.94 775.491C1213.59 770.297 1311 738.051 1386.91 687.905C1462.79 637.775 1517.38 569.621 1516.95 492.549L1515.35 492.558C1515.77 568.83 1461.73 636.559 1386.03 686.57C1310.35 736.564 1213.2 768.717 1127.85 773.894L1127.94 775.491ZM1516.95 492.549C1516.74 454.506 1501.06 428.5 1476.43 399.37C1451.79 370.221 1418.24 338.005 1381.87 287.287L1380.57 288.22C1416.98 338.994 1450.7 371.409 1475.21 400.403C1499.74 429.415 1515.14 455.063 1515.35 492.558L1516.95 492.549ZM1381.87 287.287C1316.48 196.113 1245.94 49.0831 1240.11 -189.451L1238.51 -189.412C1244.34 49.4538 1315 196.793 1380.57 288.22L1381.87 287.287Z" fill="#0060AA" fill-opacity="0.4" mask="url(#path-1-inside-1_120_3099)"/>
<mask id="path-3-inside-2_120_3099" fill="white">
<path d="M495.149 859.293C680.943 758.904 830.035 746.289 934.459 754.804C1022.34 761.982 1046.08 777.51 1126.52 769.496C1295.25 752.684 1501.32 642.583 1505.71 493.746C1507.97 417.083 1451.99 384.583 1382.54 279.922C1321.39 187.778 1253.56 41.378 1246.83 -194.115"/>
</mask>
<path d="M934.459 754.804L934.524 754.006L934.524 754.006L934.459 754.804ZM1126.52 769.496L1126.44 768.7L1126.44 768.7L1126.52 769.496ZM1505.71 493.746L1504.91 493.722L1504.91 493.722L1505.71 493.746ZM1382.54 279.922L1381.87 280.364L1381.87 280.364L1382.54 279.922ZM495.53 859.996C681.176 759.687 830.112 747.098 934.394 755.601L934.524 754.006C829.958 745.48 680.709 758.121 494.769 858.589L495.53 859.996ZM934.394 755.601C978.303 759.188 1006.15 764.855 1033.17 768.639C1060.2 772.424 1086.3 774.306 1126.59 770.292L1126.44 768.7C1086.29 772.7 1060.31 770.825 1033.39 767.055C1006.46 763.284 978.493 757.598 934.524 754.006L934.394 755.601ZM1126.59 770.292C1211.08 761.874 1304.91 730.105 1378.18 681.798C1451.43 633.506 1504.3 568.569 1506.51 493.769L1504.91 493.722C1502.73 567.76 1450.37 632.292 1377.3 680.462C1304.26 728.619 1210.68 760.306 1126.44 768.7L1126.59 770.292ZM1506.51 493.769C1507.65 455.189 1494.11 427.725 1471.67 396.863C1460.46 381.45 1447 365.152 1432.03 346.209C1417.06 327.255 1400.55 305.619 1383.2 279.479L1381.87 280.364C1399.25 306.555 1415.79 328.23 1430.78 347.201C1445.77 366.183 1459.19 382.425 1470.37 397.804C1492.71 428.523 1506.03 455.64 1504.91 493.722L1506.51 493.769ZM1383.2 279.479C1322.13 187.451 1254.35 41.1949 1247.63 -194.138L1246.03 -194.092C1252.76 41.561 1320.65 188.105 1381.87 280.364L1383.2 279.479Z" fill="#0060AA" fill-opacity="0.4" mask="url(#path-3-inside-2_120_3099)"/>
<mask id="path-5-inside-3_120_3099" fill="white">
<path d="M515.198 876.796C688.633 772.808 832.274 756.653 932.367 761.407C1017.64 765.458 1043 775.625 1125.14 764.292C1291.53 741.334 1486.01 639.133 1495.28 494.927C1500.29 417.022 1449.97 380.026 1383.87 272.082C1327 179.195 1262 33.4846 1254.37 -198.805"/>
</mask>
<path d="M932.367 761.407L932.405 760.608L932.405 760.608L932.367 761.407ZM1125.14 764.292L1125.03 763.499L1125.03 763.499L1125.14 764.292ZM1495.28 494.927L1496.08 494.979L1496.08 494.978L1495.28 494.927ZM1383.87 272.082L1383.19 272.5L1383.19 272.5L1383.87 272.082ZM515.61 877.482C688.894 773.584 832.375 757.459 932.329 762.206L932.405 760.608C832.172 755.847 688.372 772.031 514.787 876.11L515.61 877.482ZM932.329 762.206C1017.47 766.251 1043.02 776.431 1125.25 765.084L1125.03 763.499C1042.99 774.819 1017.8 764.665 932.405 760.608L932.329 762.206ZM1125.25 765.084C1208.55 753.591 1298.88 722.265 1369.57 675.746C1440.24 629.238 1491.42 567.444 1496.08 494.979L1494.48 494.876C1489.87 566.616 1439.17 628.025 1368.69 674.409C1298.22 720.781 1208.12 752.035 1125.03 763.499L1125.25 765.084ZM1496.08 494.978C1498.6 455.801 1487.19 426.909 1466.92 394.346C1456.8 378.082 1444.45 360.878 1430.52 341.026C1416.59 321.165 1401.06 298.629 1384.55 271.664L1383.19 272.5C1399.72 299.507 1415.27 322.075 1429.21 341.945C1443.15 361.823 1455.47 378.976 1465.56 395.192C1485.72 427.59 1496.97 456.148 1494.48 494.876L1496.08 494.978ZM1384.55 271.664C1327.74 178.881 1262.79 33.3044 1255.17 -198.831L1253.57 -198.779C1261.2 33.6648 1326.25 179.508 1383.19 272.5L1384.55 271.664Z" fill="#0060AA" fill-opacity="0.4" mask="url(#path-5-inside-3_120_3099)"/>
<mask id="path-7-inside-4_120_3099" fill="white">
<path d="M535.252 894.301C696.329 786.712 834.605 766.954 930.294 768.025C1013.04 768.929 1039.88 773.836 1123.78 759.073C1287.75 730.26 1471.07 635.573 1484.86 496.1C1492.69 416.858 1447.92 375.572 1385.21 264.231C1332.54 170.724 1270.44 25.5823 1261.89 -203.492"/>
</mask>
<path d="M930.294 768.025L930.285 768.825L930.286 768.825L930.294 768.025ZM1123.78 759.073L1123.64 758.285L1123.64 758.285L1123.78 759.073ZM1484.86 496.1L1484.06 496.021L1484.06 496.021L1484.86 496.1ZM1385.21 264.231L1385.9 263.838L1385.9 263.838L1385.21 264.231ZM535.697 894.967C696.619 787.48 834.733 767.755 930.285 768.825L930.303 767.225C834.478 766.152 696.038 785.945 534.808 893.636L535.697 894.967ZM930.286 768.825C1012.99 769.728 1039.92 774.64 1123.92 759.861L1123.64 758.285C1039.83 773.031 1013.09 768.129 930.303 767.225L930.286 768.825ZM1123.92 759.861C1205.99 745.439 1292.92 714.531 1361.08 669.753C1429.22 624.983 1478.73 566.26 1485.65 496.179L1484.06 496.021C1477.2 565.413 1428.15 623.77 1360.2 668.415C1292.26 713.052 1205.54 743.893 1123.64 758.285L1123.92 759.861ZM1485.65 496.179C1489.59 456.356 1480.3 426.065 1462.2 391.829C1453.15 374.727 1441.91 356.627 1429.02 335.867C1416.12 315.101 1401.57 291.657 1385.9 263.838L1384.51 264.624C1400.2 292.475 1414.76 315.945 1427.66 336.711C1440.56 357.484 1451.77 375.534 1460.78 392.577C1478.79 426.629 1487.96 456.602 1484.06 496.021L1485.65 496.179ZM1385.9 263.838C1333.29 170.424 1271.23 25.4054 1262.69 -203.522L1261.09 -203.462C1269.65 25.7591 1331.79 171.024 1384.51 264.624L1385.9 263.838Z" fill="#0060AA" fill-opacity="0.4" mask="url(#path-7-inside-4_120_3099)"/>
<mask id="path-9-inside-5_120_3099" fill="white">
<path d="M555.304 911.803C704.028 800.595 837.021 777.161 928.191 774.615C1008.55 772.367 1036.73 772.115 1122.39 753.884C1283.91 719.484 1456.48 631.964 1474.41 497.297C1485.16 416.615 1445.8 371.241 1386.52 256.404C1337.98 162.364 1278.86 17.6986 1269.42 -208.151"/>
</mask>
<path d="M928.191 774.615L928.214 775.415L928.214 775.415L928.191 774.615ZM1122.39 753.884L1122.56 754.666L1122.56 754.666L1122.39 753.884ZM1474.41 497.297L1473.62 497.191L1473.62 497.191L1474.41 497.297ZM1386.52 256.404L1385.81 256.771L1385.81 256.771L1386.52 256.404ZM555.783 912.444C704.351 801.353 837.176 777.957 928.214 775.415L928.169 773.815C836.866 776.365 703.705 799.838 554.825 911.163L555.783 912.444ZM928.214 775.415C1008.59 773.166 1036.83 772.912 1122.56 754.666L1122.23 753.101C1036.64 771.317 1008.51 771.568 928.169 773.815L928.214 775.415ZM1122.56 754.666C1203.39 737.452 1287.01 706.941 1352.69 663.859C1418.35 620.784 1466.19 565.063 1475.2 497.402L1473.62 497.191C1464.7 564.198 1417.29 619.57 1351.81 662.521C1286.34 705.466 1202.92 735.915 1122.22 753.101L1122.56 754.666ZM1475.2 497.402C1480.6 456.88 1473.41 425.216 1457.46 389.334C1449.49 371.408 1439.33 352.423 1427.48 330.76C1415.62 309.091 1402.05 284.735 1387.23 256.037L1385.81 256.771C1400.64 285.491 1414.22 309.871 1426.07 331.529C1437.93 353.193 1448.06 372.126 1456 389.984C1471.86 425.668 1478.97 457.032 1473.62 497.191L1475.2 497.402ZM1387.23 256.037C1338.74 162.078 1279.66 17.5257 1270.22 -208.184L1268.62 -208.117C1278.07 17.8716 1337.23 162.651 1385.81 256.771L1387.23 256.037Z" fill="#0060AA" fill-opacity="0.4" mask="url(#path-9-inside-5_120_3099)"/>
<mask id="path-11-inside-6_120_3099" fill="white">
<path d="M575.355 929.307C711.711 814.509 839.53 787.27 926.102 781.218C1004.18 775.761 1033.54 770.528 1121.02 748.677C1280.08 708.954 1442.25 628.29 1463.98 498.483C1477.74 416.292 1443.62 367.017 1387.85 248.564C1343.36 154.083 1287.3 9.80785 1276.93 -212.85"/>
</mask>
<path d="M926.102 781.218L926.046 780.42L926.046 780.42L926.102 781.218ZM1121.02 748.677L1120.82 747.901L1120.82 747.901L1121.02 748.677ZM1463.98 498.483L1464.77 498.616L1464.77 498.616L1463.98 498.483ZM1387.85 248.564L1388.58 248.224L1388.58 248.223L1387.85 248.564ZM575.87 929.919C712.069 815.253 839.716 788.059 926.158 782.016L926.046 780.42C839.345 786.481 711.353 813.765 574.84 928.695L575.87 929.919ZM926.158 782.016C1004.3 776.555 1033.7 771.313 1121.21 749.453L1120.82 747.901C1033.38 769.743 1004.07 774.967 926.046 780.42L926.158 782.016ZM1121.21 749.453C1200.79 729.579 1281.19 699.454 1344.44 658.031C1407.67 616.612 1453.85 563.829 1464.77 498.616L1463.19 498.351C1452.38 562.945 1406.61 615.396 1343.56 656.692C1280.52 697.983 1200.3 728.052 1120.82 747.901L1121.21 749.453ZM1464.77 498.616C1471.68 457.357 1466.56 424.348 1452.74 386.845C1438.94 349.403 1416.43 307.393 1388.58 248.224L1387.13 248.905C1415.04 308.188 1437.47 350.042 1451.24 387.398C1464.98 424.693 1470.04 457.418 1463.19 498.351L1464.77 498.616ZM1388.58 248.223C1344.11 153.811 1288.09 9.63935 1277.73 -212.887L1276.13 -212.812C1286.51 9.97634 1342.6 154.356 1387.13 248.905L1388.58 248.223Z" fill="#0060AA" fill-opacity="0.4" mask="url(#path-11-inside-6_120_3099)"/>
<mask id="path-13-inside-7_120_3099" fill="white">
<path d="M595.406 946.81C719.389 828.4 842.12 797.234 924.012 787.822C999.942 779.096 1030.34 769.027 1119.64 743.475C1276.25 698.658 1428.35 624.592 1453.55 499.668C1470.43 415.917 1441.38 362.849 1389.18 240.727C1348.64 145.877 1295.74 1.90574 1284.45 -217.531"/>
</mask>
<path d="M924.012 787.822L923.921 787.027L923.921 787.027L924.012 787.822ZM1119.64 743.475L1119.86 744.244L1119.86 744.244L1119.64 743.475ZM1453.55 499.668L1454.33 499.826L1454.33 499.826L1453.55 499.668ZM1389.18 240.727L1388.45 241.041L1388.45 241.041L1389.18 240.727ZM595.958 947.388C719.786 829.128 842.338 798.014 924.103 788.616L923.921 787.027C841.903 796.453 718.993 827.672 594.853 946.231L595.958 947.388ZM924.103 788.616C1000.11 779.882 1030.57 769.794 1119.86 744.244L1119.42 742.705C1030.12 768.26 999.775 778.309 923.921 787.027L924.103 788.616ZM1119.86 744.244C1198.2 721.826 1275.47 692.078 1336.31 652.281C1397.16 612.486 1441.67 562.581 1454.33 499.826L1452.76 499.509C1440.22 561.679 1396.09 611.269 1335.44 650.942C1274.78 690.614 1197.69 720.308 1119.42 742.706L1119.86 744.244ZM1454.33 499.826C1471.28 415.774 1442.07 362.433 1389.92 240.413L1388.45 241.041C1440.69 363.266 1469.59 416.061 1452.76 499.509L1454.33 499.826ZM1389.92 240.413C1349.4 145.618 1296.54 1.74229 1285.25 -217.572L1283.65 -217.49C1294.95 2.06919 1347.88 146.135 1388.45 241.041L1389.92 240.413Z" fill="#0060AA" fill-opacity="0.4" mask="url(#path-13-inside-7_120_3099)"/>
<mask id="path-15-inside-8_120_3099" fill="white">
<path d="M615.468 964.305C727.101 842.302 844.807 807.028 921.93 794.414C995.828 782.33 1027.17 767.609 1118.28 738.262C1272.45 688.576 1414.79 620.875 1443.12 500.841C1463.27 415.494 1439.05 358.773 1390.52 232.877C1353.83 137.746 1304.18 -5.96663 1291.98 -222.217"/>
</mask>
<path d="M921.93 794.414L921.801 793.625L921.801 793.625L921.93 794.414ZM1118.28 738.262L1118.52 739.024L1118.52 739.023L1118.28 738.262ZM1443.12 500.841L1442.34 500.657L1442.34 500.657L1443.12 500.841ZM1390.52 232.877L1391.27 232.589L1391.27 232.589L1390.52 232.877ZM616.058 964.845C727.538 843.009 845.06 807.797 922.06 795.204L921.801 793.625C844.555 806.259 726.665 841.594 614.877 963.765L616.058 964.845ZM922.06 795.204C996.035 783.107 1027.48 768.352 1118.52 739.024L1118.03 737.501C1026.87 766.865 995.621 781.553 921.801 793.625L922.06 795.204ZM1118.52 739.023C1195.63 714.174 1269.84 684.801 1328.33 646.602C1386.82 608.402 1429.67 561.319 1443.9 501.025L1442.34 500.657C1428.24 560.398 1385.76 607.182 1327.45 645.262C1269.14 683.344 1195.1 712.664 1118.03 737.501L1118.52 739.023ZM1443.9 501.025C1464.11 415.391 1439.77 358.42 1391.27 232.589L1389.77 233.164C1438.33 359.126 1462.42 415.598 1442.34 500.657L1443.9 501.025ZM1391.27 232.589C1354.6 137.502 1304.97 -6.12446 1292.78 -222.262L1291.18 -222.172C1303.38 -5.80881 1353.07 137.99 1389.77 233.164L1391.27 232.589Z" fill="#0060AA" fill-opacity="0.4" mask="url(#path-15-inside-8_120_3099)"/>
<mask id="path-17-inside-9_120_3099" fill="white">
<path d="M635.509 981.818C734.784 856.215 847.545 816.647 919.834 801.03C991.823 785.466 1024 766.349 1116.89 733.065C1268.68 678.702 1401.51 617.192 1432.68 502.038C1456.23 415.069 1436.59 354.784 1391.84 225.047C1358.94 129.666 1312.6 -13.8681 1299.51 -226.918"/>
</mask>
<path d="M919.834 801.03L920.003 801.812L920.003 801.812L919.834 801.03ZM1116.89 733.065L1116.62 732.312L1116.62 732.312L1116.89 733.065ZM1432.68 502.038L1431.91 501.829L1431.91 501.829L1432.68 502.038ZM1391.84 225.047L1391.08 225.308L1391.08 225.308L1391.84 225.047ZM636.137 982.314C735.264 856.898 847.835 817.402 920.003 801.812L919.665 800.248C847.254 815.891 734.305 855.531 634.881 981.322L636.137 982.314ZM920.003 801.812C992.058 786.234 1024.38 767.064 1117.16 733.818L1116.62 732.312C1023.63 765.634 991.589 784.699 919.665 800.248L920.003 801.812ZM1117.16 733.818C1193.06 706.634 1264.3 677.64 1320.46 641.018C1376.62 604.392 1417.8 560.085 1433.45 502.247L1431.91 501.829C1416.39 559.145 1375.57 603.17 1319.58 639.678C1263.59 676.191 1192.51 705.133 1116.62 732.312L1117.16 733.818ZM1433.45 502.247C1457.07 415.006 1437.34 354.489 1392.6 224.786L1391.08 225.308C1435.85 355.08 1455.38 415.133 1431.91 501.829L1433.45 502.247ZM1392.6 224.786C1359.7 129.437 1313.39 -14.0197 1300.31 -226.967L1298.72 -226.869C1311.81 -13.7166 1358.17 129.895 1391.08 225.308L1392.6 224.786Z" fill="#0060AA" fill-opacity="0.4" mask="url(#path-17-inside-9_120_3099)"/>
<mask id="path-19-inside-10_120_3099" fill="white">
<path d="M655.551 999.314C742.47 870.107 850.331 826.028 917.735 807.626C987.899 788.469 1020.84 765.136 1115.51 727.856C1264.95 669.005 1388.5 613.538 1422.24 503.215C1449.32 414.645 1434.03 350.835 1393.16 217.2C1363.93 121.626 1321.03 -21.7692 1307.02 -231.596"/>
</mask>
<path d="M917.735 807.626L917.946 808.398L917.946 808.398L917.735 807.626ZM1115.51 727.856L1115.8 728.6L1115.8 728.6L1115.51 727.856ZM1422.24 503.215L1421.47 502.981L1421.47 502.981L1422.24 503.215ZM1393.16 217.2L1392.39 217.434L1392.39 217.434L1393.16 217.2ZM656.215 999.761C742.994 870.761 850.661 826.767 917.946 808.398L917.524 806.855C850 825.289 741.945 869.453 654.887 998.867L656.215 999.761ZM917.946 808.398C953.084 798.804 978.901 788.163 1007.76 775.268C1036.61 762.373 1068.49 747.232 1115.8 728.6L1115.22 727.112C1067.86 745.76 1035.93 760.925 1007.1 773.807C978.283 786.687 952.55 797.291 917.524 806.855L917.946 808.398ZM1115.8 728.6C1190.52 699.177 1258.84 670.572 1312.7 635.508C1366.57 600.437 1406.06 558.855 1423 503.449L1421.47 502.981C1404.68 557.897 1365.52 599.211 1311.82 634.167C1258.12 669.13 1189.94 697.684 1115.22 727.112L1115.8 728.6ZM1423 503.449C1450.17 414.62 1434.79 350.592 1393.92 216.966L1392.39 217.434C1433.26 351.079 1448.48 414.67 1421.47 502.981L1423 503.449ZM1393.92 216.966C1364.7 121.413 1321.82 -21.914 1307.81 -231.649L1306.22 -231.543C1320.24 -21.6245 1363.16 121.84 1392.39 217.434L1393.92 216.966Z" fill="#0060AA" fill-opacity="0.4" mask="url(#path-19-inside-10_120_3099)"/>
<mask id="path-21-inside-11_120_3099" fill="white">
<path d="M675.613 1016.83C750.183 884.003 853.163 835.182 915.656 814.233C984.079 791.3 1017.74 764.047 1114.14 722.655C1261.3 659.469 1375.76 609.943 1411.81 504.408C1442.61 414.255 1431.35 346.949 1394.49 209.367C1368.85 113.639 1329.47 -29.6539 1314.55 -236.271"/>
</mask>
<path d="M915.656 814.233L915.402 813.475L915.402 813.475L915.656 814.233ZM1114.14 722.655L1113.83 721.92L1113.83 721.92L1114.14 722.655ZM1411.81 504.408L1412.57 504.666L1412.57 504.666L1411.81 504.408ZM1394.49 209.367L1395.27 209.16L1395.27 209.16L1394.49 209.367ZM676.311 1017.22C750.753 884.621 853.537 835.901 915.911 814.992L915.402 813.475C852.79 834.464 749.613 883.384 674.915 1016.43L676.311 1017.22ZM915.911 814.992C950.181 803.505 975.746 790.936 1004.77 776.078C1033.8 761.222 1066.29 744.074 1114.46 723.39L1113.83 721.92C1065.6 742.628 1033.06 759.802 1004.04 774.654C975.033 789.504 949.555 802.028 915.402 813.475L915.911 814.992ZM1114.46 723.39C1188.02 691.805 1253.5 663.6 1305.08 630.083C1356.68 596.556 1394.47 557.664 1412.57 504.666L1411.06 504.149C1393.11 556.687 1355.64 595.326 1304.21 628.742C1252.76 662.169 1187.43 690.319 1113.83 721.92L1114.46 723.39ZM1412.57 504.666C1443.45 414.267 1432.12 346.752 1395.27 209.16L1393.72 209.574C1430.57 347.146 1441.77 414.243 1411.06 504.149L1412.57 504.666ZM1395.27 209.16C1369.63 113.441 1330.27 -29.7911 1315.35 -236.329L1313.76 -236.214C1328.68 -29.5166 1368.08 113.837 1393.72 209.574L1395.27 209.16Z" fill="#0060AA" fill-opacity="0.4" mask="url(#path-21-inside-11_120_3099)"/>
<mask id="path-23-inside-12_120_3099" fill="white">
<path d="M695.663 1034.33C757.859 897.917 855.981 844.071 913.566 820.837C980.286 793.919 1014.7 763.04 1112.77 717.453C1257.72 650.065 1363.24 606.403 1401.38 505.592C1436.06 413.909 1428.53 343.089 1395.83 201.53C1373.67 105.666 1337.91 -37.5473 1322.07 -240.957"/>
</mask>
<path d="M913.566 820.837L913.266 820.095L913.266 820.095L913.566 820.837ZM1112.77 717.453L1113.11 718.179L1113.11 718.179L1112.77 717.453ZM1401.38 505.592L1400.63 505.309L1400.63 505.309L1401.38 505.592ZM1395.83 201.53L1396.6 201.35L1396.6 201.35L1395.83 201.53ZM696.391 1034.66C758.475 898.494 856.401 844.765 913.865 821.578L913.266 820.095C855.562 843.378 757.243 897.339 694.935 1034L696.391 1034.66ZM913.865 821.578C947.282 808.097 972.609 793.622 1001.81 776.839C1031.01 760.058 1064.1 740.956 1113.11 718.179L1112.43 716.728C1063.36 739.536 1030.22 758.668 1001.01 775.452C971.81 792.235 946.57 806.659 913.266 820.095L913.865 821.578ZM1113.11 718.179C1185.55 684.499 1248.24 656.707 1297.56 624.728C1346.92 592.733 1382.98 556.496 1402.13 505.875L1400.63 505.309C1381.64 555.5 1345.88 591.499 1296.69 623.385C1247.49 655.286 1184.94 683.019 1112.43 716.728L1113.11 718.179ZM1402.13 505.875C1436.9 413.956 1429.32 342.933 1396.6 201.35L1395.05 201.71C1427.75 343.244 1435.23 413.862 1400.63 505.309L1402.13 505.875ZM1396.6 201.35C1374.45 105.484 1338.7 -37.6762 1322.87 -241.019L1321.28 -240.895C1337.11 -37.4184 1372.89 105.848 1395.05 201.71L1396.6 201.35Z" fill="#0060AA" fill-opacity="0.4" mask="url(#path-23-inside-12_120_3099)"/>
<mask id="path-25-inside-13_120_3099" fill="white">
<path d="M715.717 1051.83C765.552 911.819 858.755 852.701 911.479 827.442C976.482 796.299 1011.69 762.145 1111.4 712.248C1254.21 640.778 1350.93 602.947 1390.95 506.773C1429.7 413.644 1425.58 339.251 1397.15 193.689C1378.41 97.7074 1346.34 -45.4388 1329.6 -245.645"/>
</mask>
<path d="M911.479 827.442L911.825 828.163L911.825 828.163L911.479 827.442ZM1111.4 712.248L1111.76 712.963L1111.76 712.963L1111.4 712.248ZM1390.95 506.773L1391.69 507.08L1391.69 507.08L1390.95 506.773ZM1397.15 193.689L1397.94 193.536L1397.94 193.536L1397.15 193.689ZM716.471 1052.1C766.213 912.348 859.222 853.365 911.825 828.163L911.134 826.72C858.289 852.038 764.892 911.289 714.964 1051.57L716.471 1052.1ZM911.825 828.163C944.378 812.567 969.472 796.215 998.853 777.553C1028.23 758.89 1061.94 737.894 1111.76 712.963L1111.04 711.533C1061.15 736.499 1027.4 757.528 997.995 776.202C968.595 794.877 943.584 811.173 911.134 826.72L911.825 828.163ZM1111.76 712.963C1183.12 677.25 1243.07 649.891 1290.16 619.446C1337.27 588.981 1371.59 555.367 1391.69 507.08L1390.21 506.465C1370.28 554.352 1336.24 587.742 1289.29 618.103C1242.3 648.484 1182.49 675.776 1111.04 711.533L1111.76 712.963ZM1391.69 507.08C1430.53 413.724 1426.37 339.132 1397.94 193.536L1396.37 193.843C1424.79 339.37 1428.86 413.565 1390.21 506.465L1391.69 507.08ZM1397.94 193.536C1379.19 97.5406 1347.13 -45.5583 1330.4 -245.711L1328.8 -245.578C1345.55 -45.3193 1377.63 97.8742 1396.37 193.843L1397.94 193.536Z" fill="#0060AA" fill-opacity="0.4" mask="url(#path-25-inside-13_120_3099)"/>
<mask id="path-27-inside-14_120_3099" fill="white">
<path d="M735.768 1069.34C773.247 925.719 861.451 861.078 909.39 834.046C972.598 798.404 1008.75 761.328 1110.02 707.05C1250.77 631.599 1338.77 599.574 1380.51 507.965C1423.54 413.469 1422.48 335.427 1398.48 185.856C1383.06 89.7488 1354.77 -53.3367 1337.13 -250.32"/>
</mask>
<path d="M909.39 834.046L908.997 833.349L908.997 833.349L909.39 834.046ZM1110.02 707.05L1110.39 707.755L1110.39 707.755L1110.02 707.05ZM1380.51 507.965L1381.24 508.297L1381.24 508.297L1380.51 507.965ZM1398.48 185.856L1397.69 185.982L1397.69 185.983L1398.48 185.856ZM736.542 1069.54C773.95 926.195 861.966 861.706 909.782 834.742L908.997 833.349C860.935 860.45 772.544 925.244 734.994 1069.14L736.542 1069.54ZM909.782 834.742C941.428 816.898 966.31 798.69 995.889 778.194C1025.47 757.695 1059.8 734.875 1110.39 707.755L1109.64 706.344C1058.97 733.503 1024.59 756.36 994.977 776.879C965.36 797.401 940.56 815.551 908.997 833.349L909.782 834.742ZM1110.39 707.755C1180.72 670.059 1237.98 643.15 1282.83 614.239C1327.72 585.3 1360.29 554.287 1381.24 508.297L1379.78 507.634C1359 553.252 1326.7 584.056 1281.96 612.894C1237.19 641.76 1180.07 668.589 1109.64 706.344L1110.39 707.755ZM1381.24 508.297C1424.37 413.578 1423.28 335.34 1399.27 185.729L1397.69 185.983C1421.68 335.515 1422.72 413.36 1379.78 507.634L1381.24 508.297ZM1399.27 185.729C1383.85 89.5966 1355.56 -53.4447 1337.93 -250.392L1336.33 -250.249C1353.98 -53.2288 1382.27 89.9011 1397.69 185.982L1399.27 185.729Z" fill="#0060AA" fill-opacity="0.4" mask="url(#path-27-inside-14_120_3099)"/>
<mask id="path-29-inside-15_120_3099" fill="white">
<path d="M755.818 1086.84C780.936 939.619 864.021 869.222 907.289 840.66C968.539 800.222 1005.88 760.602 1108.64 701.85C1247.42 622.503 1326.79 596.33 1370.07 509.155C1417.59 413.431 1419.24 331.597 1399.79 178.014C1387.61 81.7894 1363.19 -61.2224 1344.63 -255.011"/>
</mask>
<path d="M907.289 840.66L907.73 841.327L907.73 841.327L907.289 840.66ZM1108.64 701.85L1109.04 702.544L1109.04 702.544L1108.64 701.85ZM1370.07 509.155L1370.79 509.51L1370.79 509.51L1370.07 509.155ZM1399.79 178.014L1399 178.114L1399 178.114L1399.79 178.014ZM756.607 1086.98C781.677 940.035 864.584 869.809 907.73 841.327L906.848 839.992C863.457 868.636 780.196 939.203 755.03 1086.71L756.607 1086.98ZM907.73 841.327C938.381 821.091 963.07 801.045 992.875 778.763C1022.69 756.474 1057.69 731.9 1109.04 702.544L1108.24 701.155C1056.82 730.551 1021.77 755.164 991.917 777.482C962.051 799.808 937.447 819.79 906.848 839.992L907.73 841.327ZM1109.04 702.544C1178.35 662.914 1232.99 636.478 1275.6 609.111C1318.28 581.705 1349.06 553.27 1370.79 509.51L1369.36 508.799C1347.8 552.214 1317.26 580.454 1274.74 607.765C1232.15 635.114 1177.71 661.439 1108.24 701.155L1109.04 702.544ZM1370.79 509.51C1418.42 413.568 1420.04 331.536 1400.59 177.913L1399 178.114C1418.44 331.657 1416.77 413.293 1369.36 508.799L1370.79 509.51ZM1400.59 177.913C1388.4 81.6443 1363.99 -61.3103 1345.42 -255.088L1343.83 -254.935C1362.4 -61.1345 1386.82 81.9345 1399 178.114L1400.59 177.913Z" fill="#0060AA" fill-opacity="0.4" mask="url(#path-29-inside-15_120_3099)"/>
<mask id="path-31-inside-16_120_3099" fill="white">
<path d="M775.871 1104.35C788.64 953.508 866.429 877.172 905.209 847.252C964.238 801.709 1003.09 759.933 1107.27 696.634C1244.17 613.48 1314.94 593.173 1359.65 510.33C1411.88 413.534 1415.88 327.747 1401.14 170.173C1392.13 73.8035 1371.65 -69.1171 1352.17 -259.696"/>
</mask>
<path d="M905.209 847.252L904.72 846.618L904.72 846.618L905.209 847.252ZM1107.27 696.634L1106.86 695.951L1106.86 695.951L1107.27 696.634ZM1359.65 510.33L1360.35 510.71L1360.35 510.71L1359.65 510.33ZM1401.14 170.173L1401.94 170.098L1401.94 170.098L1401.14 170.173ZM776.668 1104.41C789.413 953.861 867.039 877.712 905.697 847.885L904.72 846.618C865.818 876.633 787.867 953.156 775.074 1104.28L776.668 1104.41ZM905.697 847.885C964.804 802.282 1003.55 760.588 1107.69 697.318L1106.86 695.951C1002.62 759.279 963.671 801.135 904.72 846.618L905.697 847.885ZM1107.69 697.318C1141.9 676.538 1171.98 659.683 1198.56 644.791C1225.14 629.903 1248.24 616.968 1268.46 604.039C1308.93 578.168 1337.92 552.29 1360.35 510.71L1358.95 509.95C1336.68 551.213 1307.93 576.91 1267.6 602.691C1247.43 615.589 1224.37 628.5 1197.78 643.395C1171.2 658.287 1141.09 675.154 1106.86 695.951L1107.69 697.318ZM1360.35 510.71C1412.7 413.697 1416.68 327.709 1401.94 170.098L1400.34 170.247C1415.08 327.785 1411.06 413.372 1358.95 509.95L1360.35 510.71ZM1401.94 170.098C1397.43 121.9 1390.05 62.0637 1381.37 -9.52932C1372.69 -81.1272 1362.7 -164.496 1352.97 -259.778L1351.37 -259.615C1361.11 -164.318 1371.1 -80.9363 1379.78 -9.33674C1388.47 62.2677 1395.84 122.076 1400.34 170.247L1401.94 170.098Z" fill="#0060AA" fill-opacity="0.4" mask="url(#path-31-inside-16_120_3099)"/>
<mask id="path-33-inside-17_120_3099" fill="white">
<path d="M795.935 1121.84C796.333 967.411 878.9 893.511 903.134 853.844C942.771 788.959 1000.38 759.334 1105.91 691.416C1240.99 604.49 1303.19 590.152 1349.22 511.514C1406.39 413.846 1412.35 323.859 1402.47 162.333C1396.56 65.8087 1380.08 -77.008 1359.71 -264.373"/>
</mask>
<path d="M903.134 853.844L903.817 854.261L903.817 854.261L903.134 853.844ZM1105.91 691.416L1105.48 690.743L1105.48 690.743L1105.91 691.416ZM1349.22 511.514L1348.53 511.11L1348.53 511.11L1349.22 511.514ZM1402.47 162.333L1403.27 162.284L1403.27 162.284L1402.47 162.333ZM796.735 1121.84C797.132 967.708 879.472 894.11 903.817 854.261L902.452 853.427C878.328 892.913 795.534 967.114 795.135 1121.83L796.735 1121.84ZM903.817 854.261C943.331 789.576 1000.72 760.07 1106.34 692.089L1105.48 690.743C1000.05 758.597 942.211 788.342 902.452 853.427L903.817 854.261ZM1106.34 692.089C1140.1 670.367 1169.3 653.18 1194.84 638.385C1220.38 623.595 1242.28 611.184 1261.39 599.032C1299.64 574.71 1326.81 551.383 1349.91 511.918L1348.53 511.11C1325.6 550.283 1298.65 573.444 1260.53 597.682C1241.45 609.81 1219.6 622.197 1194.04 637.001C1168.49 651.8 1139.26 669.002 1105.48 690.743L1106.34 692.089ZM1349.91 511.918C1407.21 414.032 1413.15 323.839 1403.27 162.284L1401.67 162.382C1411.55 323.879 1405.58 413.659 1348.53 511.11L1349.91 511.918ZM1403.27 162.284C1397.36 65.7352 1380.88 -77.1101 1360.5 -264.46L1358.91 -264.287C1379.29 -76.9059 1395.76 65.8822 1401.67 162.382L1403.27 162.284Z" fill="#0060AA" fill-opacity="0.4" mask="url(#path-33-inside-17_120_3099)"/>
<mask id="path-35-inside-18_120_3099" fill="white">
<path d="M815.974 1139.35C804.015 981.323 879.505 899.285 901.032 860.46C938.764 792.411 997.728 758.827 1104.52 686.227C1237.91 595.567 1291.51 587.285 1338.78 512.697C1401.13 414.369 1408.7 319.942 1403.79 154.487C1400.93 57.7719 1388.51 -84.9077 1367.21 -269.073"/>
</mask>
<path d="M901.032 860.46L900.333 860.072L900.333 860.072L901.032 860.46ZM1104.52 686.227L1104.08 685.565L1104.08 685.565L1104.52 686.227ZM1338.78 512.697L1338.11 512.269L1338.11 512.269L1338.78 512.697ZM1403.79 154.487L1402.99 154.511L1402.99 154.511L1403.79 154.487ZM816.771 1139.29C804.836 981.567 880.135 899.8 901.732 860.847L900.333 860.072C878.876 898.771 803.195 981.08 815.176 1139.41L816.771 1139.29ZM901.732 860.848C939.347 793.01 998.087 759.55 1104.97 686.888L1104.08 685.565C997.369 758.103 938.182 791.812 900.333 860.072L901.732 860.848ZM1104.97 686.888C1171.67 641.559 1218.32 616.884 1254.37 594.111C1290.42 571.347 1315.74 550.553 1339.46 513.125L1338.11 512.269C1314.56 549.429 1289.44 570.07 1253.52 592.759C1217.61 615.439 1170.77 640.235 1104.08 685.565L1104.97 686.888ZM1339.46 513.126C1401.94 414.578 1409.5 319.936 1404.59 154.464L1402.99 154.511C1407.9 319.949 1400.31 414.159 1338.11 512.269L1339.46 513.126ZM1404.59 154.464C1401.73 57.713 1389.3 -84.9942 1368.01 -269.165L1366.42 -268.981C1387.71 -84.8213 1400.13 57.8309 1402.99 154.511L1404.59 154.464Z" fill="#0060AA" fill-opacity="0.4" mask="url(#path-35-inside-18_120_3099)"/>
<mask id="path-37-inside-19_120_3099" fill="white">
<path d="M836.026 1156.86C811.704 995.224 879.454 905.155 898.941 867.063C935.32 795.96 995.165 758.372 1103.16 681.032C1234.9 586.673 1279.87 584.553 1328.36 513.896C1396.12 415.164 1404.92 315.989 1405.14 146.665C1405.26 49.728 1396.96 -92.7888 1374.76 -273.742"/>
</mask>
<path d="M898.941 867.063L898.229 866.699L898.229 866.699L898.941 867.063ZM1103.16 681.032L1103.63 681.683L1103.63 681.682L1103.16 681.032ZM1328.36 513.896L1329.02 514.349L1329.02 514.349L1328.36 513.896ZM1405.14 146.665L1404.34 146.664L1404.34 146.664L1405.14 146.665ZM836.817 1156.74C812.541 995.408 880.134 905.584 899.654 867.428L898.229 866.699C878.775 904.727 810.867 995.04 835.235 1156.98L836.817 1156.74ZM899.654 867.428C935.921 796.541 995.55 759.08 1103.63 681.683L1102.7 680.382C994.78 757.663 934.719 795.379 898.229 866.699L899.654 867.428ZM1103.63 681.682C1169.47 634.522 1213.6 610.434 1247.4 589.254C1281.23 568.063 1304.69 549.8 1329.02 514.349L1327.7 513.444C1303.54 548.65 1280.27 566.774 1246.55 587.898C1212.82 609.032 1168.59 633.183 1102.7 680.382L1103.63 681.682ZM1329.02 514.349C1396.93 415.395 1405.72 315.992 1405.94 146.666L1404.34 146.664C1404.12 315.986 1395.31 414.933 1327.7 513.444L1329.02 514.349ZM1405.94 146.666C1406.06 49.6879 1397.76 -92.8628 1375.55 -273.839L1373.96 -273.645C1396.16 -92.7147 1404.46 49.768 1404.34 146.664L1405.94 146.666Z" fill="#0060AA" fill-opacity="0.4" mask="url(#path-37-inside-19_120_3099)"/>
<mask id="path-39-inside-20_120_3099" fill="white">
<path d="M856.078 1174.36C819.397 1009.13 873.746 908.405 896.855 873.663C942.392 805.25 992.688 757.961 1101.79 675.822C1231.97 577.79 1268.25 581.967 1317.93 515.072C1391.32 416.228 1400.99 311.95 1406.46 138.807C1409.53 41.6062 1405.39 -100.693 1382.27 -278.441"/>
</mask>
<path d="M896.855 873.663L896.189 873.22L896.188 873.22L896.855 873.663ZM1101.79 675.822L1102.27 676.461L1102.27 676.461L1101.79 675.822ZM1317.93 515.072L1318.57 515.549L1318.57 515.549L1317.93 515.072ZM1406.46 138.807L1407.26 138.833L1407.26 138.832L1406.46 138.807ZM856.858 1174.19C820.236 1009.22 874.499 908.716 897.521 874.106L896.188 873.22C872.992 908.094 818.557 1009.04 855.297 1174.53L856.858 1174.19ZM897.521 874.107C942.983 805.806 993.192 758.582 1102.27 676.461L1101.31 675.183C992.183 757.34 941.802 804.694 896.189 873.22L897.521 874.107ZM1102.27 676.461C1167.32 627.472 1208.9 604.031 1240.47 584.45C1272.07 564.851 1293.65 549.108 1318.57 515.549L1317.29 514.596C1292.53 547.931 1271.13 563.547 1239.62 583.091C1208.09 602.653 1166.43 626.14 1101.3 675.183L1102.27 676.461ZM1318.57 515.549C1392.13 416.48 1401.79 311.958 1407.26 138.833L1405.66 138.782C1400.19 311.942 1390.51 415.976 1317.29 514.596L1318.57 515.549ZM1407.26 138.832C1410.33 41.5868 1406.19 -100.756 1383.06 -278.545L1381.47 -278.338C1404.59 -100.631 1408.73 41.6256 1405.66 138.782L1407.26 138.832Z" fill="#0060AA" fill-opacity="0.4" mask="url(#path-39-inside-20_120_3099)"/>
<mask id="path-41-inside-21_120_3099" fill="white">
<path d="M876.128 1191.86C827.089 1023.03 874.959 916.415 894.765 880.272C935.487 805.965 990.285 757.609 1100.41 670.62C1229.12 568.934 1256.62 579.555 1307.49 516.259C1386.76 417.631 1396.97 307.878 1407.79 130.98C1413.75 33.4684 1413.83 -108.574 1389.8 -283.118"/>
</mask>
<path d="M894.765 880.272L894.063 879.887L894.063 879.887L894.765 880.272ZM1100.41 670.62L1100.9 671.248L1100.9 671.248L1100.41 670.62ZM1307.49 516.259L1306.87 515.758L1306.87 515.758L1307.49 516.259ZM1407.79 130.98L1408.59 131.029L1408.59 131.029L1407.79 130.98ZM876.897 1191.64C827.931 1023.06 875.734 916.665 895.467 880.656L894.063 879.887C874.184 916.164 826.247 1023 875.36 1192.09L876.897 1191.64ZM895.467 880.656C936.101 806.509 990.774 758.243 1100.9 671.248L1099.91 669.993C989.797 756.975 934.874 805.42 894.063 879.887L895.467 880.656ZM1100.9 671.248C1165.22 620.436 1204.24 597.691 1233.56 579.726C1262.92 561.737 1282.6 548.511 1308.12 516.76L1306.87 515.758C1281.52 547.303 1262.01 560.415 1232.72 578.361C1203.39 596.331 1164.31 619.118 1099.91 669.993L1100.9 671.248ZM1308.12 516.76C1387.57 417.904 1397.77 307.887 1408.59 131.029L1406.99 130.932C1396.17 307.87 1385.95 417.359 1306.87 515.758L1308.12 516.76ZM1408.59 131.029C1414.55 33.4707 1414.63 -108.625 1390.59 -283.227L1389.01 -283.009C1413.03 -108.523 1412.95 33.466 1406.99 130.932L1408.59 131.029Z" fill="#0060AA" fill-opacity="0.4" mask="url(#path-41-inside-21_120_3099)"/>
<mask id="path-43-inside-22_120_3099" fill="white">
<path d="M896.18 1209.37C834.782 1036.93 875.942 924.69 892.673 886.875C928.067 806.852 987.965 757.298 1099.03 665.411C1226.34 560.077 1244.96 577.302 1297.06 517.438C1382.39 419.362 1392.82 303.723 1409.12 123.136C1417.95 25.2853 1422.25 -116.472 1397.32 -287.809"/>
</mask>
<path d="M892.673 886.875L893.405 887.199L893.405 887.199L892.673 886.875ZM1099.03 665.411L1099.54 666.027L1099.54 666.027L1099.03 665.411ZM1297.06 517.438L1297.66 517.964L1297.66 517.964L1297.06 517.438ZM1409.12 123.136L1408.32 123.064L1408.32 123.064L1409.12 123.136ZM896.934 1209.1C835.622 1036.9 876.732 924.881 893.405 887.199L891.942 886.552C875.152 924.499 833.942 1036.95 895.426 1209.64L896.934 1209.1ZM893.405 887.199C928.708 807.383 988.432 757.949 1099.54 666.027L1098.52 664.794C987.497 756.646 927.427 806.322 891.942 886.552L893.405 887.199ZM1099.54 666.027C1163.15 613.393 1199.6 591.389 1226.66 575.058C1253.76 558.702 1271.53 547.991 1297.66 517.964L1296.45 516.913C1270.49 546.75 1252.89 557.358 1225.84 573.688C1198.73 590.045 1162.21 612.094 1098.52 664.794L1099.54 666.027ZM1297.66 517.964C1383.19 419.656 1393.63 303.728 1409.91 123.208L1408.32 123.064C1392.02 303.717 1381.58 419.068 1296.45 516.913L1297.66 517.964ZM1409.91 123.208C1418.75 25.3103 1423.06 -116.511 1398.11 -287.924L1396.52 -287.694C1421.45 -116.432 1417.15 25.2602 1408.32 123.064L1409.91 123.208Z" fill="#0060AA" fill-opacity="0.4" mask="url(#path-43-inside-22_120_3099)"/>
</g>
<defs>
<clipPath id="clip0_120_3099">
<rect width="1440" height="800" fill="white"/>
</clipPath>
</defs>
</svg>
