<svg width="1440" height="1024" viewBox="0 0 1440 1024" fill="none" xmlns="http://www.w3.org/2000/svg">
<g clip-path="url(#clip0_48_503)">
<mask id="mask0_48_503" style="mask-type:luminance" maskUnits="userSpaceOnUse" x="0" y="0" width="1440" height="1024">
<path d="M1440 0H0V1024H1440V0Z" fill="white"/>
</mask>
<g mask="url(#mask0_48_503)">
<path d="M1440 0H0V1024H1440V0Z" fill="white"/>
<mask id="mask1_48_503" style="mask-type:luminance" maskUnits="userSpaceOnUse" x="475" y="-243" width="1042" height="1321">
<path d="M475.096 1077.49C673.248 953.607 827.868 941.93 936.556 957.686C1027.17 970.829 1049.09 997.722 1127.89 991.607C1298.89 978.331 1517 826.748 1516.15 630.469C1515.73 533.781 1454.01 498.234 1381.22 368.324C1315.74 251.46 1245.14 63.0637 1239.31 -242.472" fill="white"/>
</mask>
<g mask="url(#mask1_48_503)">
<path d="M475.447 1078.41C673.456 954.615 827.923 942.97 936.466 958.704L936.646 956.67C827.813 940.892 673.039 952.597 474.744 1076.57L475.447 1078.41ZM936.466 958.704C981.716 965.267 1009.79 975.258 1036.48 982.867C1063.19 990.483 1088.45 995.694 1127.94 992.629L1127.85 990.584C1088.54 993.635 1063.44 988.456 1036.83 980.868C1010.2 973.275 982.005 963.248 936.646 956.67L936.466 958.704ZM1127.94 992.629C1213.59 985.98 1311 944.705 1386.91 880.519C1462.79 816.352 1517.38 729.115 1516.95 630.463L1515.35 630.474C1515.77 728.103 1461.73 814.796 1386.03 878.81C1310.35 942.802 1213.2 983.958 1127.85 990.584L1127.94 992.629ZM1516.95 630.463C1516.74 581.768 1501.06 548.48 1476.43 511.194C1451.79 473.883 1418.24 432.647 1381.87 367.728L1380.57 368.922C1416.98 433.913 1450.7 475.404 1475.21 512.516C1499.74 549.651 1515.14 582.482 1515.35 630.474L1516.95 630.463ZM1381.87 367.728C1316.48 251.025 1245.94 62.8266 1240.11 -242.497L1238.51 -242.447C1244.34 63.3012 1315 251.895 1380.57 368.922L1381.87 367.728Z" fill="#0060AA" fill-opacity="0.4"/>
</g>
<mask id="mask2_48_503" style="mask-type:luminance" maskUnits="userSpaceOnUse" x="495" y="-249" width="1011" height="1349">
<path d="M495.148 1099.9C680.942 971.397 830.034 955.25 934.458 966.149C1022.34 975.337 1046.08 995.213 1126.51 984.955C1295.25 963.435 1501.32 822.506 1505.71 631.995C1507.97 533.866 1451.99 492.266 1382.54 358.3C1321.39 240.356 1253.56 52.9636 1246.83 -248.467" fill="white"/>
</mask>
<g mask="url(#mask2_48_503)">
<path d="M495.53 1100.79C681.176 972.399 830.113 956.285 934.394 967.169L934.524 965.128C829.958 954.214 680.709 970.395 494.769 1098.99L495.53 1100.79ZM934.394 967.169C978.303 971.761 1006.14 979.014 1033.17 983.858C1060.19 988.703 1086.3 991.112 1126.59 985.974L1126.44 983.936C1086.29 989.056 1060.31 986.656 1033.39 981.83C1006.46 977.004 978.493 969.725 934.524 965.128L934.394 967.169ZM1126.59 985.974C1211.08 975.199 1304.91 934.534 1378.18 872.701C1451.43 810.888 1504.3 727.768 1506.51 632.024L1504.91 631.964C1502.72 726.733 1450.37 809.334 1377.3 870.991C1304.26 932.632 1210.68 973.192 1126.44 983.936L1126.59 985.974ZM1506.51 632.024C1507.65 582.642 1494.11 547.488 1471.66 507.985C1460.46 488.256 1446.99 467.395 1432.03 443.148C1417.06 418.887 1400.55 391.192 1383.2 357.733L1381.87 358.866C1399.25 392.39 1415.79 420.134 1430.77 444.417C1445.77 468.714 1459.19 489.504 1470.37 509.189C1492.71 548.51 1506.03 583.219 1504.91 631.964L1506.51 632.024ZM1383.2 357.733C1322.13 239.937 1254.35 52.7296 1247.62 -248.497L1246.03 -248.438C1252.76 53.1981 1320.65 240.774 1381.87 358.866L1383.2 357.733Z" fill="#0060AA" fill-opacity="0.4"/>
</g>
<mask id="mask3_48_503" style="mask-type:luminance" maskUnits="userSpaceOnUse" x="515" y="-255" width="981" height="1378">
<path d="M515.199 1122.3C688.634 989.195 832.275 968.516 932.368 974.601C1017.64 979.786 1043 992.8 1125.14 978.294C1291.53 948.908 1486.01 818.09 1495.28 633.507C1500.29 533.788 1449.97 486.434 1383.87 348.265C1327 229.37 1262 42.8605 1254.37 -254.47" fill="white"/>
</mask>
<g mask="url(#mask3_48_503)">
<path d="M515.611 1123.18C688.895 990.188 832.376 969.548 932.33 975.624L932.406 973.579C832.173 967.484 688.373 988.2 514.788 1121.42L515.611 1123.18ZM932.33 975.624C1017.48 980.802 1043.02 993.832 1125.25 979.308L1125.03 977.279C1042.99 991.769 1017.8 978.772 932.406 973.579L932.33 975.624ZM1125.25 979.308C1208.55 964.597 1298.88 924.5 1369.57 864.955C1440.24 805.425 1491.42 726.329 1496.08 633.572L1494.48 633.442C1489.87 725.269 1439.17 803.872 1368.69 863.244C1298.22 922.6 1208.12 962.605 1125.03 977.279L1125.25 979.308ZM1496.08 633.572C1498.6 583.426 1487.19 546.444 1466.92 504.763C1456.8 483.945 1444.45 461.924 1430.52 436.514C1416.59 411.092 1401.06 382.245 1384.55 347.73L1383.19 348.8C1399.73 383.369 1415.28 412.256 1429.21 437.69C1443.16 463.132 1455.47 485.09 1465.56 505.846C1485.73 547.315 1496.97 583.87 1494.48 633.442L1496.08 633.572ZM1384.55 347.73C1327.74 228.968 1262.79 42.6299 1255.17 -254.503L1253.57 -254.437C1261.2 43.0913 1326.25 229.771 1383.19 348.8L1384.55 347.73Z" fill="#0060AA" fill-opacity="0.4"/>
</g>
<mask id="mask4_48_503" style="mask-type:luminance" maskUnits="userSpaceOnUse" x="535" y="-261" width="951" height="1406">
<path d="M535.252 1144.71C696.329 1006.99 834.605 981.701 930.294 983.072C1013.04 984.229 1039.88 990.51 1123.78 971.614C1287.75 934.733 1471.07 813.534 1484.86 635.008C1492.69 533.578 1447.92 480.732 1385.21 338.216C1332.54 218.527 1270.44 32.7454 1261.89 -260.47" fill="white"/>
</mask>
<g mask="url(#mask4_48_503)">
<path d="M930.294 983.072L930.285 984.096H930.286L930.294 983.072ZM535.697 1145.56C696.619 1007.97 834.733 982.726 930.285 984.096L930.303 982.048C834.478 980.674 696.038 1006.01 534.808 1143.85L535.697 1145.56ZM930.286 984.096C1012.99 985.252 1039.92 991.539 1123.92 972.622L1123.64 970.605C1039.83 989.48 1013.09 983.205 930.303 982.048L930.286 984.096ZM1123.92 972.622C1205.99 954.162 1292.92 914.6 1361.08 857.284C1429.22 799.978 1478.73 724.813 1485.65 635.109L1484.06 634.907C1477.2 723.728 1428.15 798.425 1360.2 855.571C1292.26 912.706 1205.54 952.183 1123.64 970.605L1123.92 972.622ZM1485.65 635.109C1489.59 584.136 1480.3 545.363 1462.2 501.541C1453.15 479.65 1441.91 456.482 1429.02 429.91C1416.12 403.329 1401.57 373.321 1385.9 337.713L1384.51 338.717C1400.2 374.368 1414.76 404.409 1427.66 430.99C1440.56 457.579 1451.77 480.683 1460.78 502.498C1478.79 546.085 1487.96 584.45 1484.06 634.907L1485.65 635.109ZM1385.9 337.713C1333.29 218.143 1271.23 32.5188 1262.69 -260.508L1261.09 -260.432C1269.65 32.9715 1331.79 218.911 1384.51 338.719L1385.9 337.713Z" fill="#0060AA" fill-opacity="0.4"/>
</g>
<mask id="mask5_48_503" style="mask-type:luminance" maskUnits="userSpaceOnUse" x="555" y="-267" width="922" height="1435">
<path d="M555.304 1167.11C704.028 1024.76 837.021 994.766 928.191 991.507C1008.55 988.63 1036.73 988.307 1122.39 964.972C1283.91 920.94 1456.48 808.914 1474.41 636.54C1485.16 533.267 1445.8 475.189 1386.52 328.197C1337.98 207.826 1278.86 22.6544 1269.42 -266.433" fill="white"/>
</mask>
<g mask="url(#mask5_48_503)">
<path d="M555.782 1167.93C704.35 1025.73 837.175 995.785 928.213 992.531L928.168 990.483C836.865 993.747 703.704 1023.79 554.824 1166.29L555.782 1167.93ZM928.213 992.531C1008.59 989.653 1036.83 989.327 1122.56 965.973L1122.22 963.969C1036.64 987.286 1008.51 987.607 928.168 990.483L928.213 992.531ZM1122.56 965.973C1203.39 943.939 1287.01 904.885 1352.69 849.74C1418.35 794.604 1466.19 723.281 1475.2 636.675L1473.62 636.404C1464.7 722.173 1417.29 793.05 1351.81 848.027C1286.34 902.997 1202.92 941.973 1122.22 963.969L1122.56 965.973ZM1475.2 636.675C1480.6 584.806 1473.41 544.276 1457.46 498.348C1449.49 475.402 1439.33 451.101 1427.48 423.373C1415.62 395.636 1402.05 364.461 1387.23 327.727L1385.81 328.667C1400.64 365.428 1414.22 396.635 1426.07 424.357C1437.93 452.087 1448.06 476.321 1456 499.18C1471.86 544.855 1478.97 585.001 1473.62 636.404L1475.2 636.675ZM1387.23 327.727C1338.74 207.46 1279.66 22.4329 1270.22 -266.476L1268.62 -266.39C1278.07 22.8755 1337.23 208.193 1385.81 328.667L1387.23 327.727Z" fill="#0060AA" fill-opacity="0.4"/>
</g>
<mask id="mask6_48_503" style="mask-type:luminance" maskUnits="userSpaceOnUse" x="575" y="-273" width="893" height="1463">
<path d="M575.354 1189.51C711.71 1042.57 839.529 1007.71 926.101 999.959C1004.18 992.974 1033.54 986.276 1121.02 958.306C1280.08 907.461 1442.25 804.211 1463.98 638.058C1477.74 532.854 1443.62 469.78 1387.85 318.162C1343.36 197.226 1287.3 12.5538 1276.93 -272.448" fill="white"/>
</mask>
<g mask="url(#mask6_48_503)">
<path d="M1463.98 638.058L1464.77 638.228V638.227L1463.98 638.058ZM575.869 1190.3C712.068 1043.52 839.715 1008.72 926.157 1000.98L926.045 998.937C839.344 1006.7 711.352 1041.62 574.839 1188.73L575.869 1190.3ZM926.157 1000.98C1004.3 993.99 1033.7 987.28 1121.21 959.3L1120.82 957.313C1033.38 985.271 1004.07 991.957 926.045 998.937L926.157 1000.98ZM1121.21 959.3C1200.79 933.861 1281.19 895.301 1344.43 842.279C1407.67 789.263 1453.85 721.701 1464.77 638.228L1463.19 637.889C1452.38 720.569 1406.61 787.707 1343.56 840.565C1280.52 893.418 1200.3 931.906 1120.82 957.313L1121.21 959.3ZM1464.77 638.227C1471.67 585.417 1466.56 543.165 1452.74 495.161C1438.94 447.236 1416.43 393.463 1388.58 317.725L1387.13 318.598C1415.04 394.48 1437.47 448.054 1451.24 495.869C1464.98 543.607 1470.04 585.495 1463.19 637.889L1464.77 638.227ZM1388.58 317.725C1344.11 196.878 1288.09 12.3382 1277.73 -272.496L1276.13 -272.4C1286.51 12.7695 1342.6 197.575 1387.13 318.598L1388.58 317.725Z" fill="#0060AA" fill-opacity="0.4"/>
</g>
<mask id="mask7_48_503" style="mask-type:luminance" maskUnits="userSpaceOnUse" x="595" y="-279" width="864" height="1491">
<path d="M595.405 1211.92C719.388 1060.35 842.119 1020.46 924.011 1008.41C999.941 997.242 1030.34 984.355 1119.64 951.648C1276.25 894.282 1428.35 799.478 1453.54 639.575C1470.43 532.374 1441.38 464.447 1389.18 308.131C1348.64 186.723 1295.74 2.43954 1284.45 -278.439" fill="white"/>
</mask>
<g mask="url(#mask7_48_503)">
<path d="M595.958 1212.66C719.786 1061.28 842.338 1021.46 924.103 1009.43L923.921 1007.4C841.903 1019.46 718.993 1059.42 594.853 1211.18L595.958 1212.66ZM924.103 1009.43C1000.11 998.25 1030.57 985.337 1119.86 952.633L1119.42 950.664C1030.11 983.373 999.775 996.236 923.921 1007.4L924.103 1009.43ZM1119.86 952.633C1198.2 923.938 1275.46 885.86 1336.31 834.92C1397.16 783.983 1441.67 720.104 1454.33 639.778L1452.76 639.372C1440.22 718.95 1396.09 782.425 1335.44 833.206C1274.78 883.987 1197.69 921.996 1119.42 950.664L1119.86 952.633ZM1454.33 639.778C1471.28 532.191 1442.07 463.915 1389.92 307.729L1388.45 308.533C1440.69 464.981 1469.59 532.559 1452.76 639.372L1454.33 639.778ZM1389.92 307.729C1349.4 186.392 1296.54 2.23059 1285.25 -278.492L1283.65 -278.387C1294.95 2.64902 1347.88 187.053 1388.45 308.533L1389.92 307.729Z" fill="#0060AA" fill-opacity="0.4"/>
</g>
<mask id="mask8_48_503" style="mask-type:luminance" maskUnits="userSpaceOnUse" x="615" y="-285" width="836" height="1520">
<path d="M615.468 1234.31C727.101 1078.15 844.807 1033 921.93 1016.85C995.828 1001.38 1027.17 982.539 1118.28 944.975C1272.45 881.377 1414.79 794.72 1443.12 641.076C1463.27 531.832 1439.05 459.229 1390.52 298.082C1353.83 176.315 1304.18 -7.63754 1291.98 -284.438" fill="white"/>
</mask>
<g mask="url(#mask8_48_503)">
<path d="M616.058 1235C727.538 1079.05 845.06 1033.98 922.06 1017.86L921.801 1015.84C844.555 1032.01 726.665 1077.24 614.877 1233.62L616.058 1235ZM922.06 1017.86C996.035 1002.38 1027.48 983.49 1118.52 945.95L1118.03 944.001C1026.87 981.587 995.621 1000.39 921.801 1015.84L922.06 1017.86ZM1118.52 945.95C1195.63 914.144 1269.84 876.545 1328.33 827.65C1386.82 778.754 1429.67 718.488 1443.9 641.312L1442.34 640.841C1428.24 717.309 1385.76 777.193 1327.45 825.935C1269.14 874.68 1195.1 912.21 1118.03 944.001L1118.52 945.95ZM1443.9 641.312C1464.11 531.7 1439.77 458.777 1391.27 297.714L1389.77 298.45C1438.33 459.681 1462.42 531.965 1442.34 640.841L1443.9 641.312ZM1391.27 297.714C1354.6 176.002 1304.97 -7.83958 1292.78 -284.496L1291.18 -284.38C1303.38 -7.43547 1353.07 176.627 1389.77 298.45L1391.27 297.714Z" fill="#0060AA" fill-opacity="0.4"/>
</g>
<mask id="mask9_48_503" style="mask-type:luminance" maskUnits="userSpaceOnUse" x="635" y="-291" width="808" height="1548">
<path d="M635.509 1256.73C734.784 1095.96 847.545 1045.31 919.834 1025.32C991.823 1005.4 1024 980.927 1116.89 938.323C1268.68 868.739 1401.51 790.006 1432.68 642.609C1456.23 531.288 1436.59 454.123 1391.84 288.06C1358.94 165.972 1312.6 -17.7513 1299.51 -290.455" fill="white"/>
</mask>
<g mask="url(#mask9_48_503)">
<path d="M636.137 1257.36C735.264 1096.83 847.835 1046.27 920.003 1026.32L919.665 1024.32C847.254 1044.34 734.305 1095.08 634.881 1256.09L636.137 1257.36ZM920.003 1026.32C992.058 1006.38 1024.38 981.842 1117.16 939.287L1116.62 937.36C1023.63 980.012 991.589 1004.41 919.665 1024.32L920.003 1026.32ZM1117.16 939.287C1193.06 904.492 1264.3 867.379 1320.46 820.503C1376.62 773.622 1417.8 716.909 1433.45 642.876L1431.91 642.341C1416.39 715.706 1375.57 772.058 1319.58 818.788C1263.59 865.525 1192.51 902.57 1116.62 937.36L1117.16 939.287ZM1433.45 642.876C1457.07 531.208 1437.34 453.746 1392.6 287.726L1391.08 288.394C1435.85 454.503 1455.38 531.37 1431.91 642.341L1433.45 642.876ZM1392.6 287.726C1359.7 165.68 1313.39 -17.945 1300.31 -290.518L1298.72 -290.392C1311.81 -17.557 1358.17 166.266 1391.08 288.394L1392.6 287.726Z" fill="#0060AA" fill-opacity="0.4"/>
</g>
<mask id="mask10_48_503" style="mask-type:luminance" maskUnits="userSpaceOnUse" x="655" y="-297" width="781" height="1577">
<path d="M655.551 1279.12C742.47 1113.74 850.331 1057.32 917.735 1033.76C987.899 1009.24 1020.84 979.374 1115.51 931.656C1264.95 856.326 1388.5 785.329 1422.24 644.115C1449.32 530.746 1434.03 449.069 1393.16 278.016C1363.93 155.681 1321.03 -27.8646 1307.02 -296.443" fill="white"/>
</mask>
<g mask="url(#mask10_48_503)">
<path d="M656.215 1279.69C742.994 1114.57 850.661 1058.26 917.946 1034.75L917.524 1032.77C850 1056.37 741.945 1112.9 654.887 1278.55L656.215 1279.69ZM917.946 1034.75C953.084 1022.47 978.901 1008.85 1007.76 992.343C1036.61 975.837 1068.49 956.457 1115.8 932.608L1115.22 930.703C1067.86 954.573 1035.93 973.984 1007.1 990.473C978.283 1006.96 952.55 1020.53 917.524 1032.77L917.946 1034.75ZM1115.8 932.608C1190.52 894.946 1258.84 858.332 1312.7 813.45C1366.57 768.559 1406.06 715.334 1423 644.415L1421.47 643.816C1404.68 714.108 1365.52 766.99 1311.82 811.734C1258.12 856.486 1189.94 893.035 1115.22 930.703L1115.8 932.608ZM1423 644.415C1450.17 530.714 1434.79 448.758 1393.92 277.716L1392.39 278.315C1433.26 449.381 1448.48 530.778 1421.47 643.816L1423 644.415ZM1393.92 277.716C1364.7 155.409 1321.82 -28.0499 1307.81 -296.511L1306.22 -296.375C1320.24 -27.6794 1363.16 155.955 1392.39 278.315L1393.92 277.716Z" fill="#0060AA" fill-opacity="0.4"/>
</g>
<mask id="mask11_48_503" style="mask-type:luminance" maskUnits="userSpaceOnUse" x="675" y="-303" width="755" height="1605">
<path d="M675.613 1301.54C750.183 1131.52 853.163 1069.03 915.656 1042.22C984.079 1012.86 1017.74 977.98 1114.14 924.999C1261.3 844.122 1375.76 780.727 1411.81 645.642C1442.61 530.246 1431.35 444.095 1394.49 267.99C1368.85 145.458 1329.47 -37.9569 1314.55 -302.427" fill="white"/>
</mask>
<g mask="url(#mask11_48_503)">
<path d="M676.311 1302.04C750.753 1132.31 853.537 1069.95 915.911 1043.19L915.402 1041.25C852.79 1068.11 749.613 1130.73 674.915 1301.03L676.311 1302.04ZM915.911 1043.19C950.181 1028.49 975.746 1012.4 1004.77 993.38C1033.8 974.364 1066.29 952.415 1114.46 925.939L1113.83 924.058C1065.6 950.564 1033.06 972.547 1004.04 991.557C975.033 1010.57 949.555 1026.6 915.402 1041.25L915.911 1043.19ZM1114.46 925.939C1188.02 885.511 1253.5 849.408 1305.08 806.506C1356.68 763.592 1394.47 713.81 1412.57 645.973L1411.06 645.311C1393.11 712.559 1355.64 762.017 1304.21 804.79C1252.76 847.576 1187.43 883.608 1113.83 924.058L1114.46 925.939ZM1412.57 645.973C1443.45 530.262 1432.12 443.843 1395.27 267.725L1393.72 268.255C1430.57 444.347 1441.77 530.231 1411.06 645.311L1412.57 645.973ZM1395.27 267.725C1369.63 145.205 1330.27 -38.1325 1315.35 -302.501L1313.76 -302.354C1328.68 -37.7811 1368.08 145.712 1393.72 268.255L1395.27 267.725Z" fill="#0060AA" fill-opacity="0.4"/>
</g>
<mask id="mask12_48_503" style="mask-type:luminance" maskUnits="userSpaceOnUse" x="695" y="-309" width="730" height="1633">
<path d="M695.664 1323.94C757.86 1149.33 855.982 1080.41 913.567 1050.67C980.287 1016.22 1014.7 976.691 1112.77 918.34C1257.72 832.083 1363.25 776.196 1401.38 647.158C1436.06 529.804 1428.53 439.154 1395.83 257.959C1373.67 135.253 1337.91 -48.0604 1322.07 -308.425" fill="white"/>
</mask>
<g mask="url(#mask12_48_503)">
<path d="M1395.83 257.958L1396.61 257.728V257.727L1395.83 257.958ZM696.392 1324.36C758.476 1150.07 856.402 1081.3 913.866 1051.62L913.267 1049.72C855.563 1079.52 757.244 1148.59 694.936 1323.52L696.392 1324.36ZM913.866 1051.62C947.283 1034.36 972.61 1015.84 1001.81 994.354C1031.01 972.874 1064.11 948.424 1113.11 919.269L1112.43 917.412C1063.36 946.606 1030.22 971.095 1001.01 992.579C971.811 1014.06 946.571 1032.52 913.267 1049.72L913.866 1051.62ZM1113.11 919.269C1185.55 876.159 1248.24 840.585 1297.57 799.652C1346.92 758.698 1382.98 712.315 1402.13 647.52L1400.63 646.796C1381.65 711.04 1345.88 757.119 1296.7 797.933C1247.49 838.766 1184.94 874.264 1112.43 917.412L1113.11 919.269ZM1402.13 647.52C1436.9 529.864 1429.32 438.954 1396.61 257.728L1395.05 258.189C1427.75 439.352 1435.23 529.743 1400.63 646.796L1402.13 647.52ZM1396.61 257.727C1374.45 135.019 1338.7 -48.2256 1322.87 -308.504L1321.28 -308.346C1337.11 -47.8955 1372.9 135.485 1395.05 258.189L1396.61 257.727Z" fill="#0060AA" fill-opacity="0.4"/>
</g>
<mask id="mask13_48_503" style="mask-type:luminance" maskUnits="userSpaceOnUse" x="715" y="-315" width="705" height="1662">
<path d="M715.717 1346.34C765.552 1167.13 858.755 1091.46 911.479 1059.13C976.482 1019.26 1011.69 975.545 1111.4 911.677C1254.21 820.196 1350.93 771.772 1390.95 648.669C1429.7 529.464 1425.58 434.241 1397.15 247.922C1378.41 125.065 1346.34 -58.1618 1329.6 -314.426" fill="white"/>
</mask>
<g mask="url(#mask13_48_503)">
<path d="M716.471 1346.69C766.213 1167.81 859.222 1092.31 911.825 1060.05L911.134 1058.2C858.289 1090.61 764.892 1166.45 714.964 1346.01L716.471 1346.69ZM911.825 1060.05C944.378 1040.09 969.472 1019.15 998.853 995.268C1028.23 971.379 1061.94 944.504 1111.76 912.592L1111.04 910.762C1061.15 942.719 1027.4 969.636 997.995 993.538C968.595 1017.44 943.584 1038.3 911.134 1058.2L911.825 1060.05ZM1111.76 912.592C1183.12 866.88 1243.07 831.86 1290.16 792.891C1337.27 753.895 1371.59 710.87 1391.69 649.062L1390.21 648.275C1370.28 709.57 1336.24 752.31 1289.29 791.172C1242.3 830.059 1182.49 864.993 1111.04 910.762L1111.76 912.592ZM1391.69 649.062C1430.53 529.567 1426.37 434.089 1397.94 247.726L1396.37 248.119C1424.79 434.393 1428.86 529.363 1390.21 648.275L1391.69 649.062ZM1397.94 247.726C1379.19 124.852 1347.13 -58.3149 1330.4 -314.51L1328.8 -314.34C1345.55 -58.0089 1377.63 125.279 1396.37 248.119L1397.94 247.726Z" fill="#0060AA" fill-opacity="0.4"/>
</g>
<mask id="mask14_48_503" style="mask-type:luminance" maskUnits="userSpaceOnUse" x="735" y="-321" width="681" height="1690">
<path d="M735.767 1368.75C773.246 1184.92 861.45 1102.18 909.389 1067.58C972.597 1021.96 1008.75 974.5 1110.01 905.024C1250.77 808.447 1338.77 767.455 1380.51 650.195C1423.54 529.24 1422.48 429.347 1398.48 237.896C1383.06 114.878 1354.77 -68.271 1337.13 -320.41" fill="white"/>
</mask>
<g mask="url(#mask14_48_503)">
<path d="M1398.48 237.895L1397.69 238.057V238.058L1398.48 237.895ZM736.54 1369.01C773.948 1185.53 861.964 1102.98 909.78 1068.47L908.995 1066.69C860.933 1101.38 772.543 1184.31 734.992 1368.5L736.54 1369.01ZM909.78 1068.47C941.426 1045.63 966.308 1022.32 995.887 996.088C1025.47 969.849 1059.8 940.64 1110.39 905.926L1109.64 904.12C1058.97 938.884 1024.59 968.141 994.975 994.405C965.358 1020.67 940.558 1043.91 908.995 1066.69L909.78 1068.47ZM1110.39 905.926C1180.72 857.675 1237.98 823.232 1282.83 786.226C1327.72 749.184 1360.29 709.487 1381.24 650.62L1379.78 649.771C1359 708.162 1326.7 747.591 1281.96 784.504C1237.18 821.453 1180.07 855.794 1109.64 904.12L1110.39 905.926ZM1381.24 650.62C1424.37 529.38 1423.28 429.235 1399.27 237.733L1397.69 238.058C1421.68 429.459 1422.71 529.101 1379.78 649.771L1381.24 650.62ZM1399.27 237.733C1383.84 114.683 1355.56 -68.4094 1337.93 -320.502L1336.33 -320.319C1353.97 -68.1329 1382.27 115.073 1397.69 238.057L1399.27 237.733Z" fill="#0060AA" fill-opacity="0.4"/>
</g>
<mask id="mask15_48_503" style="mask-type:luminance" maskUnits="userSpaceOnUse" x="755" y="-327" width="657" height="1719">
<path d="M755.818 1391.16C780.936 1202.71 864.021 1112.6 907.289 1076.04C968.539 1024.28 1005.88 973.57 1108.64 898.368C1247.42 796.804 1326.79 763.302 1370.07 651.718C1417.59 529.192 1419.24 424.444 1399.79 227.858C1387.61 104.69 1363.19 -78.3647 1344.63 -326.414" fill="white"/>
</mask>
<g mask="url(#mask15_48_503)">
<path d="M756.607 1391.33C781.677 1203.24 864.584 1113.36 907.73 1076.9L906.848 1075.19C863.457 1111.85 780.196 1202.18 755.03 1390.99L756.607 1391.33ZM907.73 1076.9C938.381 1051 963.07 1025.34 992.875 996.816C1022.69 968.287 1057.69 936.832 1109.04 899.256L1108.24 897.478C1056.82 935.105 1021.77 966.61 991.917 995.177C962.051 1023.75 937.447 1049.33 906.848 1075.19L907.73 1076.9ZM1109.04 899.256C1178.35 848.53 1232.99 814.692 1275.6 779.662C1318.28 744.581 1349.06 708.186 1370.79 652.173L1369.36 651.263C1347.8 706.834 1317.26 742.981 1274.74 777.939C1232.15 812.946 1177.71 846.642 1108.24 897.478L1109.04 899.256ZM1370.79 652.173C1418.42 529.367 1420.04 424.366 1400.59 227.729L1399 227.986C1418.44 424.521 1416.77 529.015 1369.36 651.263L1370.79 652.173ZM1400.59 227.729C1388.4 104.505 1363.99 -78.4773 1345.42 -326.513L1343.83 -326.317C1362.4 -78.2522 1386.82 104.876 1399 227.986L1400.59 227.729Z" fill="#0060AA" fill-opacity="0.4"/>
</g>
<mask id="mask16_48_503" style="mask-type:luminance" maskUnits="userSpaceOnUse" x="775" y="-333" width="634" height="1747">
<path d="M775.871 1413.57C788.64 1220.49 866.429 1122.78 905.209 1084.48C964.238 1026.19 1003.09 972.714 1107.27 891.691C1244.17 785.254 1314.94 759.261 1359.65 653.222C1411.88 529.325 1415.88 419.516 1401.14 217.821C1392.13 94.4682 1371.65 -88.47 1352.17 -332.411" fill="white"/>
</mask>
<g mask="url(#mask16_48_503)">
<path d="M776.668 1413.64C789.413 1220.94 867.039 1123.47 905.697 1085.29L904.72 1083.67C865.818 1122.09 787.867 1220.04 775.074 1413.48L776.668 1413.64ZM905.697 1085.29C964.804 1026.92 1003.55 973.552 1107.69 892.567L1106.86 890.817C1002.62 971.877 963.671 1025.45 904.72 1083.67L905.697 1085.29ZM1107.69 892.567C1141.9 865.968 1171.98 844.394 1198.56 825.332C1225.14 806.276 1248.24 789.719 1268.46 773.17C1308.93 740.055 1337.92 706.931 1360.35 653.709L1358.95 652.736C1336.68 705.552 1307.93 738.444 1267.6 771.444C1247.43 787.954 1224.37 804.48 1197.78 823.545C1171.2 842.607 1141.09 864.197 1106.86 890.817L1107.69 892.567ZM1360.35 653.709C1412.7 529.532 1416.68 419.467 1401.94 217.725L1400.34 217.916C1415.08 419.565 1411.06 529.116 1358.95 652.736L1360.35 653.709ZM1401.94 217.725C1397.43 156.032 1390.05 79.4413 1381.37 -12.1978C1372.69 -103.843 1362.7 -210.555 1352.97 -332.516L1351.37 -332.307C1361.11 -210.327 1371.1 -103.599 1379.78 -11.9513C1388.47 79.7024 1395.84 156.257 1400.34 217.916L1401.94 217.725Z" fill="#0060AA" fill-opacity="0.4"/>
</g>
<mask id="mask17_48_503" style="mask-type:luminance" maskUnits="userSpaceOnUse" x="795" y="-339" width="612" height="1775">
<path d="M795.934 1435.95C796.332 1238.29 878.899 1143.69 903.133 1092.92C942.77 1009.87 1000.38 971.947 1105.91 885.012C1240.99 773.747 1303.19 755.394 1349.22 654.738C1406.39 529.723 1412.35 414.539 1402.47 207.786C1396.56 84.2352 1380.08 -98.5703 1359.71 -338.397" fill="white"/>
</mask>
<g mask="url(#mask17_48_503)">
<path d="M796.734 1435.96C797.131 1238.67 879.471 1144.46 903.816 1093.45L902.451 1092.39C878.327 1142.93 795.533 1237.91 795.134 1435.94L796.734 1435.96ZM903.816 1093.45C943.33 1010.66 1000.72 972.89 1106.34 885.874L1105.48 884.151C1000.05 971.004 942.21 1009.08 902.451 1092.39L903.816 1093.45ZM1106.34 885.874C1140.1 858.07 1169.3 836.07 1194.84 817.133C1220.38 798.202 1242.27 782.315 1261.39 766.761C1299.64 735.629 1326.81 705.77 1349.91 655.255L1348.53 654.221C1325.6 704.362 1298.65 734.008 1260.53 765.033C1241.45 780.557 1219.6 796.412 1194.04 815.361C1168.49 834.304 1139.26 856.323 1105.48 884.151L1106.34 885.874ZM1349.91 655.256C1407.21 529.962 1413.15 414.514 1403.27 207.724L1401.67 207.849C1411.55 414.565 1405.58 529.483 1348.53 654.221L1349.91 655.256ZM1403.27 207.724C1397.36 84.141 1380.87 -98.7011 1360.5 -338.509L1358.91 -338.287C1379.29 -98.4395 1395.76 84.3292 1401.67 207.849L1403.27 207.724Z" fill="#0060AA" fill-opacity="0.4"/>
</g>
<mask id="mask18_48_503" style="mask-type:luminance" maskUnits="userSpaceOnUse" x="814" y="-345" width="592" height="1804">
<path d="M815.974 1458.37C804.015 1256.09 879.505 1151.08 901.032 1101.39C938.764 1014.29 997.728 971.298 1104.52 878.37C1237.91 762.326 1291.51 751.725 1338.78 656.252C1401.13 530.392 1408.7 409.526 1403.79 197.743C1400.93 73.9479 1388.51 -108.682 1367.21 -344.414" fill="white"/>
</mask>
<g mask="url(#mask18_48_503)">
<path d="M816.771 1458.29C804.836 1256.41 880.135 1151.74 901.732 1101.88L900.333 1100.89C878.876 1150.43 803.195 1255.78 815.176 1458.44L816.771 1458.29ZM901.732 1101.89C939.347 1015.05 998.087 972.224 1104.97 879.217L1104.08 877.523C997.369 970.372 938.182 1013.52 900.333 1100.89L901.732 1101.89ZM1104.97 879.217C1171.67 821.195 1218.32 789.61 1254.37 760.462C1290.42 731.324 1315.74 704.708 1339.46 656.8L1338.11 655.704C1314.56 703.269 1289.44 729.689 1253.52 758.731C1217.61 787.762 1170.77 819.501 1104.08 877.523L1104.97 879.217ZM1339.46 656.8C1401.94 530.659 1409.5 409.518 1404.59 197.713L1402.99 197.774C1407.9 409.535 1400.31 530.123 1338.11 655.704L1339.46 656.8ZM1404.59 197.714C1401.73 73.8726 1389.3 -108.793 1368.01 -344.531L1366.42 -344.296C1387.71 -108.571 1400.13 74.0235 1402.99 197.774L1404.59 197.714Z" fill="#0060AA" fill-opacity="0.4"/>
</g>
<mask id="mask19_48_503" style="mask-type:luminance" maskUnits="userSpaceOnUse" x="830" y="-351" width="576" height="1832">
<path d="M836.027 1480.78C811.705 1273.89 879.455 1158.6 898.942 1109.84C935.321 1018.83 995.166 970.716 1103.16 871.721C1234.9 750.942 1279.87 748.228 1328.37 657.787C1396.12 531.41 1404.92 404.466 1405.14 187.731C1405.27 63.6519 1396.96 -118.77 1374.76 -350.39" fill="white"/>
</mask>
<g mask="url(#mask19_48_503)">
<path d="M836.819 1480.63C812.543 1274.12 880.136 1159.15 899.656 1110.31L898.231 1109.37C878.777 1158.05 810.869 1273.65 835.237 1480.93L836.819 1480.63ZM899.656 1110.31C935.923 1019.57 995.552 971.623 1103.63 872.554L1102.7 870.889C994.782 969.809 934.721 1018.09 898.231 1109.37L899.656 1110.31ZM1103.63 872.554C1169.47 812.19 1213.6 781.356 1247.41 754.245C1281.23 727.121 1304.7 703.744 1329.03 658.367L1327.71 657.208C1303.54 702.272 1280.27 725.471 1246.56 752.51C1212.82 779.561 1168.59 810.474 1102.7 870.889L1103.63 872.554ZM1329.03 658.367C1396.93 531.706 1405.72 404.47 1405.94 187.733L1404.34 187.73C1404.12 404.462 1395.31 531.114 1327.71 657.208L1329.03 658.367ZM1405.94 187.733C1406.07 63.6008 1397.76 -118.864 1375.55 -350.514L1373.96 -350.265C1396.16 -118.675 1404.47 63.7034 1404.34 187.73L1405.94 187.733Z" fill="#0060AA" fill-opacity="0.4"/>
</g>
<mask id="mask20_48_503" style="mask-type:luminance" maskUnits="userSpaceOnUse" x="843" y="-357" width="565" height="1861">
<path d="M856.077 1503.18C819.397 1291.69 873.746 1162.76 896.855 1118.29C942.392 1030.72 992.688 970.19 1101.79 865.052C1231.97 739.571 1268.25 744.918 1317.93 659.292C1391.32 532.772 1400.99 399.296 1406.46 177.673C1409.53 53.2561 1405.39 -128.887 1382.27 -356.404" fill="white"/>
</mask>
<g mask="url(#mask20_48_503)">
<path d="M896.855 1118.29L896.189 1117.72H896.188L896.855 1118.29ZM856.859 1502.96C820.236 1291.8 874.499 1163.16 897.521 1118.86L896.188 1117.72C872.992 1162.36 818.557 1291.57 855.297 1503.4L856.859 1502.96ZM897.521 1118.86C942.983 1031.43 993.192 970.985 1102.27 865.87L1101.31 864.234C992.183 969.395 941.802 1030.01 896.189 1117.72L897.521 1118.86ZM1102.27 865.87C1167.32 803.164 1208.9 773.16 1240.47 748.096C1272.07 723.009 1293.65 702.858 1318.57 659.903L1317.29 658.683C1292.53 701.352 1271.13 721.34 1239.62 746.356C1208.09 771.396 1166.43 801.459 1101.3 864.234L1102.27 865.87ZM1318.57 659.903C1392.13 533.094 1401.79 399.306 1407.26 177.706L1405.66 177.641C1400.19 399.286 1390.51 532.449 1317.29 658.683L1318.57 659.903ZM1407.26 177.706C1410.33 53.2311 1406.19 -128.968 1383.06 -356.538L1381.47 -356.273C1404.59 -128.808 1408.73 53.2808 1405.66 177.641L1407.26 177.706Z" fill="#0060AA" fill-opacity="0.4"/>
</g>
<mask id="mask21_48_503" style="mask-type:luminance" maskUnits="userSpaceOnUse" x="854" y="-363" width="558" height="1889">
<path d="M876.127 1525.58C827.088 1309.48 874.958 1173.01 894.764 1126.75C935.486 1031.64 990.284 969.74 1100.41 858.394C1229.11 728.236 1256.62 741.83 1307.49 660.811C1386.76 534.568 1396.97 394.084 1407.79 167.654C1413.75 42.8395 1413.83 -138.975 1389.8 -362.391" fill="white"/>
</mask>
<g mask="url(#mask21_48_503)">
<path d="M876.897 1525.3C827.931 1309.52 875.734 1173.33 895.467 1127.24L894.063 1126.26C874.184 1172.69 826.247 1309.44 875.36 1525.87L876.897 1525.3ZM895.467 1127.24C936.101 1032.33 990.774 970.551 1100.9 859.197L1099.91 857.591C989.797 968.928 934.874 1030.94 894.063 1126.26L895.467 1127.24ZM1100.9 859.197C1165.22 794.158 1204.24 765.044 1233.56 742.048C1262.92 719.022 1282.6 702.094 1308.11 661.453L1306.87 660.17C1281.52 700.548 1262.01 717.331 1232.72 740.302C1203.39 763.303 1164.3 792.471 1099.91 857.591L1100.9 859.197ZM1308.11 661.453C1387.57 534.917 1397.77 394.095 1408.59 167.717L1406.99 167.593C1396.17 394.073 1385.95 534.219 1306.87 660.17L1308.11 661.453ZM1408.59 167.717C1414.55 42.8424 1414.63 -139.04 1390.59 -362.531L1389 -362.252C1413.03 -138.91 1412.95 42.8363 1406.99 167.593L1408.59 167.717Z" fill="#0060AA" fill-opacity="0.4"/>
</g>
<mask id="mask22_48_503" style="mask-type:luminance" maskUnits="userSpaceOnUse" x="863" y="-369" width="554" height="1917">
<path d="M896.181 1547.99C834.783 1327.27 875.943 1183.6 892.674 1135.2C928.068 1032.77 987.966 969.341 1099.03 851.726C1226.34 716.899 1244.96 738.946 1297.06 662.321C1382.39 536.783 1392.82 388.765 1409.12 157.614C1417.95 32.3652 1422.25 -149.084 1397.32 -368.396" fill="white"/>
</mask>
<g mask="url(#mask22_48_503)">
<path d="M896.935 1547.65C835.623 1327.23 876.733 1183.85 893.406 1135.61L891.943 1134.79C875.153 1183.36 833.943 1327.3 895.427 1548.34L896.935 1547.65ZM893.406 1135.61C928.709 1033.45 988.433 970.174 1099.54 852.514L1098.52 850.936C987.498 968.507 927.428 1032.09 891.943 1134.79L893.406 1135.61ZM1099.54 852.514C1163.16 785.143 1199.6 756.978 1226.66 736.074C1253.77 715.138 1271.53 701.428 1297.66 662.994L1296.45 661.648C1270.49 699.84 1252.89 713.418 1225.84 734.32C1198.73 755.257 1162.22 783.48 1098.52 850.936L1099.54 852.514ZM1297.66 662.994C1383.19 537.159 1393.63 388.772 1409.91 157.706L1408.32 157.522C1392.02 388.758 1381.58 536.407 1296.45 661.648L1297.66 662.994ZM1409.91 157.706C1418.75 32.397 1423.06 -149.134 1398.11 -368.543L1396.52 -368.249C1421.45 -149.033 1417.15 32.3328 1408.32 157.522L1409.91 157.706Z" fill="#0060AA" fill-opacity="0.4"/>
</g>
</g>
</g>
<defs>
<clipPath id="clip0_48_503">
<rect width="1440" height="1024" fill="white"/>
</clipPath>
</defs>
</svg>
